<svg xmlns="http://www.w3.org/2000/svg" xmlns:xlink="http://www.w3.org/1999/xlink" width="500" zoomAndPan="magnify" viewBox="0 0 375 374.999991" height="500" preserveAspectRatio="xMidYMid meet" version="1.0"><defs><clipPath id="da61df4360"><path d="M 25.417969 43 L 349.417969 43 L 349.417969 332 L 25.417969 332 Z M 25.417969 43 " clip-rule="nonzero"/></clipPath></defs><g clip-path="url(#da61df4360)"><path fill="#00d8ff" d="M 291.59375 136.855469 C 288.246094 135.703125 284.773438 134.609375 281.1875 133.574219 C 281.78125 131.171875 282.324219 128.800781 282.804688 126.472656 C 290.671875 88.207031 285.53125 57.378906 267.9375 47.226562 C 251.0625 37.496094 223.476562 47.644531 195.613281 71.902344 C 192.9375 74.234375 190.246094 76.703125 187.570312 79.292969 C 185.777344 77.582031 183.996094 75.925781 182.214844 74.34375 C 153.011719 48.40625 123.742188 37.472656 106.167969 47.652344 C 89.316406 57.410156 84.324219 86.390625 91.417969 122.65625 C 92.105469 126.160156 92.90625 129.738281 93.808594 133.375 C 89.667969 134.550781 85.667969 135.804688 81.84375 137.140625 C 47.609375 149.078125 25.746094 167.796875 25.746094 187.210938 C 25.746094 207.25 49.21875 227.371094 84.871094 239.5625 C 87.6875 240.523438 90.605469 241.433594 93.613281 242.292969 C 92.636719 246.222656 91.789062 250.078125 91.074219 253.84375 C 84.3125 289.480469 89.59375 317.773438 106.402344 327.464844 C 123.761719 337.488281 152.898438 327.1875 181.265625 302.382812 C 183.515625 300.421875 185.761719 298.339844 188.011719 296.164062 C 190.941406 298.96875 193.859375 301.636719 196.75 304.136719 C 224.234375 327.792969 251.378906 337.347656 268.164062 327.628906 C 285.507812 317.585938 291.152344 287.179688 283.824219 250.203125 C 283.269531 247.375 282.613281 244.492188 281.894531 241.5625 C 283.941406 240.953125 285.949219 240.320312 287.90625 239.675781 C 324.976562 227.382812 349.089844 207.53125 349.089844 187.210938 C 349.089844 167.722656 326.515625 148.882812 291.59375 136.855469 Z M 283.5625 226.5625 C 281.792969 227.140625 279.972656 227.710938 278.128906 228.253906 C 274.039062 215.300781 268.519531 201.515625 261.746094 187.273438 C 268.203125 173.371094 273.507812 159.765625 277.484375 146.890625 C 280.792969 147.847656 284.003906 148.859375 287.097656 149.921875 C 317.019531 160.230469 335.269531 175.46875 335.269531 187.210938 C 335.269531 199.707031 315.566406 215.945312 283.5625 226.5625 Z M 270.273438 252.882812 C 273.519531 269.234375 273.972656 284.019531 271.828125 295.582031 C 269.90625 305.972656 266.03125 312.894531 261.242188 315.664062 C 251.050781 321.566406 229.261719 313.894531 205.769531 293.664062 C 203.066406 291.335938 200.351562 288.859375 197.636719 286.246094 C 206.742188 276.273438 215.847656 264.6875 224.742188 251.808594 C 240.363281 250.433594 255.128906 248.15625 268.53125 245.0625 C 269.1875 247.726562 269.769531 250.332031 270.273438 252.882812 Z M 135.984375 314.640625 C 126.03125 318.164062 118.101562 318.265625 113.308594 315.5 C 103.109375 309.609375 98.867188 286.890625 104.652344 256.421875 C 105.316406 252.933594 106.105469 249.34375 107.011719 245.679688 C 120.257812 248.613281 134.917969 250.722656 150.585938 251.984375 C 159.535156 264.585938 168.90625 276.160156 178.339844 286.296875 C 176.28125 288.292969 174.222656 290.1875 172.175781 291.96875 C 159.636719 302.949219 147.066406 310.734375 135.984375 314.640625 Z M 89.34375 226.484375 C 73.578125 221.089844 60.558594 214.089844 51.632812 206.429688 C 43.613281 199.566406 39.566406 192.746094 39.566406 187.210938 C 39.566406 175.433594 57.117188 160.402344 86.394531 150.191406 C 89.945312 148.949219 93.664062 147.78125 97.523438 146.683594 C 101.570312 159.851562 106.878906 173.625 113.28125 187.539062 C 106.792969 201.664062 101.410156 215.65625 97.324219 228.988281 C 94.574219 228.191406 91.910156 227.355469 89.34375 226.484375 Z M 104.980469 120.003906 C 98.902344 88.933594 102.9375 65.496094 113.09375 59.613281 C 123.910156 53.347656 147.832031 62.28125 173.035156 84.675781 C 174.652344 86.109375 176.269531 87.605469 177.898438 89.15625 C 168.503906 99.25 159.21875 110.738281 150.347656 123.261719 C 135.140625 124.671875 120.585938 126.9375 107.203125 129.96875 C 106.359375 126.582031 105.617188 123.257812 104.980469 120.003906 Z M 244.445312 154.460938 C 241.25 148.933594 237.964844 143.535156 234.617188 138.28125 C 244.9375 139.585938 254.816406 141.320312 264.097656 143.4375 C 261.320312 152.375 257.847656 161.71875 253.753906 171.300781 C 250.824219 165.722656 247.714844 160.105469 244.445312 154.460938 Z M 187.570312 99.035156 C 193.949219 105.941406 200.328125 113.648438 206.605469 122.015625 C 200.277344 121.71875 193.871094 121.5625 187.417969 121.5625 C 181.027344 121.5625 174.675781 121.714844 168.382812 122.007812 C 174.660156 113.71875 181.101562 106.019531 187.570312 99.035156 Z M 130.332031 154.558594 C 127.136719 160.101562 124.089844 165.6875 121.203125 171.285156 C 117.183594 161.742188 113.738281 152.355469 110.929688 143.292969 C 120.15625 141.226562 129.992188 139.539062 140.242188 138.257812 C 136.847656 143.558594 133.535156 148.996094 130.332031 154.554688 Z M 140.539062 237.136719 C 129.949219 235.960938 119.960938 234.359375 110.738281 232.347656 C 113.59375 223.125 117.109375 213.542969 121.21875 203.789062 C 124.113281 209.386719 127.171875 214.972656 130.386719 220.53125 C 133.660156 226.195312 137.054688 231.730469 140.539062 237.136719 Z M 187.949219 276.351562 C 181.40625 269.285156 174.875 261.464844 168.5 253.058594 C 174.6875 253.300781 181.003906 253.425781 187.417969 253.425781 C 194.011719 253.425781 200.527344 253.273438 206.933594 252.996094 C 200.644531 261.550781 194.277344 269.386719 187.949219 276.351562 Z M 253.878906 203.296875 C 258.199219 213.152344 261.851562 222.679688 264.742188 231.753906 C 255.371094 233.890625 245.242188 235.609375 234.582031 236.898438 C 237.941406 231.578125 241.25 226.082031 244.507812 220.433594 C 247.804688 214.71875 250.925781 208.996094 253.878906 203.296875 Z M 232.535156 213.53125 C 227.484375 222.300781 222.292969 230.667969 217.023438 238.566406 C 207.4375 239.25 197.523438 239.601562 187.417969 239.601562 C 177.351562 239.601562 167.5625 239.296875 158.140625 238.679688 C 152.660156 230.679688 147.359375 222.289062 142.339844 213.609375 C 137.332031 204.953125 132.722656 196.21875 128.542969 187.539062 C 132.71875 178.84375 137.320312 170.097656 142.296875 161.460938 C 147.289062 152.796875 152.546875 144.445312 157.976562 136.488281 C 167.589844 135.761719 177.453125 135.382812 187.417969 135.382812 C 197.433594 135.382812 207.300781 135.765625 216.910156 136.496094 C 222.265625 144.394531 227.484375 152.722656 232.496094 161.386719 C 237.5625 170.148438 242.222656 178.832031 246.429688 187.347656 C 242.234375 196.003906 237.585938 204.773438 232.535156 213.53125 Z M 261.03125 59.199219 C 271.867188 65.445312 276.070312 90.640625 269.265625 123.679688 C 268.835938 125.785156 268.34375 127.933594 267.8125 130.109375 C 254.398438 127.011719 239.835938 124.707031 224.589844 123.277344 C 215.699219 110.617188 206.492188 99.109375 197.246094 89.148438 C 199.734375 86.757812 202.222656 84.476562 204.683594 82.324219 C 228.554688 61.539062 250.875 53.332031 261.03125 59.199219 Z M 187.417969 158.316406 C 203.359375 158.316406 216.292969 171.246094 216.292969 187.207031 C 216.292969 203.152344 203.359375 216.09375 187.417969 216.09375 C 171.480469 216.09375 158.546875 203.152344 158.546875 187.207031 C 158.546875 171.246094 171.480469 158.316406 187.417969 158.316406 Z M 187.417969 158.316406 " fill-opacity="1" fill-rule="nonzero"/></g></svg>