<svg xmlns="http://www.w3.org/2000/svg" xmlns:xlink="http://www.w3.org/1999/xlink" width="500" zoomAndPan="magnify" viewBox="0 0 375 374.999991" height="500" preserveAspectRatio="xMidYMid meet" version="1.0"><defs><clipPath id="15eb4319a2"><path d="M 81.019531 96 L 294 96 L 294 337.167969 L 81.019531 337.167969 Z M 81.019531 96 " clip-rule="nonzero"/></clipPath><clipPath id="ceb8013335"><path d="M 100 37.167969 L 141 37.167969 L 141 78 L 100 78 Z M 100 37.167969 " clip-rule="nonzero"/></clipPath><clipPath id="69688e96b2"><path d="M 146 37.167969 L 184 37.167969 L 184 78 L 146 78 Z M 146 37.167969 " clip-rule="nonzero"/></clipPath><clipPath id="a6b10caa27"><path d="M 189 37.167969 L 236 37.167969 L 236 78 L 189 78 Z M 189 37.167969 " clip-rule="nonzero"/></clipPath><clipPath id="f694f9557d"><path d="M 241 37.167969 L 275 37.167969 L 275 78 L 241 78 Z M 241 37.167969 " clip-rule="nonzero"/></clipPath></defs><g clip-path="url(#15eb4319a2)"><path fill="#e44d26" d="M 293.960938 96.125 L 274.574219 313.03125 L 187.425781 337.15625 L 100.519531 313.066406 L 81.15625 96.125 L 293.957031 96.121094 L 293.96875 96.121094 Z M 293.960938 96.125 " fill-opacity="1" fill-rule="nonzero"/></g><path fill="#f16529" d="M 187.5625 318.714844 L 257.984375 299.222656 L 274.550781 113.863281 L 187.5625 113.863281 Z M 187.5625 318.714844 " fill-opacity="1" fill-rule="nonzero"/><path fill="#ebebeb" d="M 149.871094 167.074219 L 187.5625 167.074219 L 187.5625 140.464844 L 120.757812 140.464844 L 121.394531 147.605469 L 127.941406 220.925781 L 187.5625 220.925781 L 187.5625 194.324219 L 152.308594 194.324219 Z M 149.871094 167.074219 " fill-opacity="1" fill-rule="nonzero"/><path fill="#ebebeb" d="M 155.875 234.230469 L 129.132812 234.230469 L 132.863281 276.011719 L 187.4375 291.140625 L 187.5625 291.109375 L 187.5625 263.421875 L 187.445312 263.457031 L 157.773438 255.449219 Z M 155.875 234.230469 " fill-opacity="1" fill-rule="nonzero"/><g clip-path="url(#ceb8013335)"><path fill="#000000" d="M 100.957031 37.167969 L 114.496094 37.167969 L 114.496094 50.527344 L 126.878906 50.527344 L 126.878906 37.167969 L 140.417969 37.167969 L 140.417969 77.625 L 126.878906 77.625 L 126.878906 64.078125 L 114.496094 64.078125 L 114.496094 77.625 L 100.957031 77.625 Z M 100.957031 37.167969 " fill-opacity="1" fill-rule="nonzero"/></g><g clip-path="url(#69688e96b2)"><path fill="#000000" d="M 158.222656 50.585938 L 146.304688 50.585938 L 146.304688 37.167969 L 183.691406 37.167969 L 183.691406 50.585938 L 171.761719 50.585938 L 171.761719 77.625 L 158.222656 77.625 Z M 158.222656 50.585938 " fill-opacity="1" fill-rule="nonzero"/></g><g clip-path="url(#a6b10caa27)"><path fill="#000000" d="M 189.621094 37.167969 L 203.734375 37.167969 L 212.421875 51.382812 L 221.09375 37.167969 L 235.21875 37.167969 L 235.21875 77.625 L 221.738281 77.625 L 221.738281 57.574219 L 212.421875 71.957031 L 212.1875 71.957031 L 202.867188 57.574219 L 202.867188 77.625 L 189.621094 77.625 Z M 189.621094 37.167969 " fill-opacity="1" fill-rule="nonzero"/></g><g clip-path="url(#f694f9557d)"><path fill="#000000" d="M 241.957031 37.167969 L 255.496094 37.167969 L 255.496094 64.253906 L 274.542969 64.253906 L 274.542969 77.625 L 241.957031 77.625 Z M 241.957031 37.167969 " fill-opacity="1" fill-rule="nonzero"/></g><path fill="#ffffff" d="M 187.46875 220.925781 L 220.277344 220.925781 L 217.183594 255.433594 L 187.46875 263.449219 L 187.46875 291.125 L 242.085938 276.011719 L 242.484375 271.511719 L 248.75 201.464844 L 249.398438 194.324219 L 187.46875 194.324219 Z M 187.46875 220.925781 " fill-opacity="1" fill-rule="nonzero"/><path fill="#ffffff" d="M 187.46875 167.007812 L 187.46875 167.074219 L 251.820312 167.074219 L 252.351562 161.09375 L 253.570312 147.605469 L 254.203125 140.464844 L 187.46875 140.464844 Z M 187.46875 167.007812 " fill-opacity="1" fill-rule="nonzero"/></svg>