<svg xmlns="http://www.w3.org/2000/svg" xmlns:xlink="http://www.w3.org/1999/xlink" width="500" zoomAndPan="magnify" viewBox="0 0 375 374.999991" height="500" preserveAspectRatio="xMidYMid meet" version="1.0"><defs><clipPath id="d7306d9e0e"><path d="M 81.265625 96 L 293.515625 96 L 293.515625 337.863281 L 81.265625 337.863281 Z M 81.265625 96 " clip-rule="nonzero"/></clipPath><clipPath id="def0f7662a"><path d="M 131 37.863281 L 164 37.863281 L 164 79 L 131 79 Z M 131 37.863281 " clip-rule="nonzero"/></clipPath><clipPath id="7c2b3e559a"><path d="M 169 37.863281 L 203 37.863281 L 203 79 L 169 79 Z M 169 37.863281 " clip-rule="nonzero"/></clipPath><clipPath id="d2b8693e50"><path d="M 208 37.863281 L 241 37.863281 L 241 79 L 208 79 Z M 208 37.863281 " clip-rule="nonzero"/></clipPath></defs><g clip-path="url(#d7306d9e0e)"><path fill="#f615ba" d="M 187.300781 337.855469 L 100.703125 313.761719 L 81.402344 96.824219 L 293.453125 96.820312 L 274.140625 313.726562 L 187.304688 337.851562 Z M 187.300781 337.855469 " fill-opacity="1" fill-rule="nonzero"/></g><path fill="#ffacec" d="M 257.605469 299.917969 L 274.113281 114.558594 L 187.433594 114.558594 L 187.433594 319.410156 L 257.605469 299.914062 Z M 257.605469 299.917969 " fill-opacity="1" fill-rule="nonzero"/><path fill="#ebebeb" d="M 125.644531 195.019531 L 128.023438 221.621094 L 187.433594 221.621094 L 187.433594 195.019531 Z M 125.644531 195.019531 " fill-opacity="1" fill-rule="nonzero"/><path fill="#ebebeb" d="M 120.863281 141.160156 L 123.277344 167.769531 L 187.433594 167.769531 L 187.433594 141.160156 Z M 120.863281 141.160156 " fill-opacity="1" fill-rule="nonzero"/><path fill="#ebebeb" d="M 187.433594 264.117188 L 187.316406 264.152344 L 157.75 256.144531 L 155.859375 234.925781 L 129.210938 234.925781 L 132.929688 276.707031 L 187.308594 291.835938 L 187.433594 291.800781 Z M 187.433594 264.117188 " fill-opacity="1" fill-rule="nonzero"/><g clip-path="url(#def0f7662a)"><path fill="#000000" d="M 131.3125 37.863281 L 163.464844 37.863281 L 163.464844 51.339844 L 144.757812 51.339844 L 144.757812 64.816406 L 163.464844 64.816406 L 163.464844 78.292969 L 131.3125 78.292969 Z M 131.3125 37.863281 " fill-opacity="1" fill-rule="nonzero"/></g><g clip-path="url(#7c2b3e559a)"><path fill="#000000" d="M 169.894531 37.863281 L 202.046875 37.863281 L 202.046875 49.582031 L 183.34375 49.582031 L 183.34375 51.925781 L 202.046875 51.925781 L 202.046875 78.878906 L 169.894531 78.878906 L 169.894531 66.574219 L 188.605469 66.574219 L 188.605469 64.230469 L 169.894531 64.230469 Z M 169.894531 37.863281 " fill-opacity="1" fill-rule="nonzero"/></g><g clip-path="url(#d2b8693e50)"><path fill="#000000" d="M 208.480469 37.863281 L 240.632812 37.863281 L 240.632812 49.582031 L 221.921875 49.582031 L 221.921875 51.925781 L 240.632812 51.925781 L 240.632812 78.878906 L 208.480469 78.878906 L 208.480469 66.574219 L 227.183594 66.574219 L 227.183594 64.230469 L 208.480469 64.230469 Z M 208.480469 37.863281 " fill-opacity="1" fill-rule="nonzero"/></g><path fill="#ffffff" d="M 249.050781 195.019531 L 253.839844 141.160156 L 187.339844 141.160156 L 187.339844 167.769531 L 224.746094 167.769531 L 222.335938 195.019531 L 187.339844 195.019531 L 187.339844 221.621094 L 220.035156 221.621094 L 216.949219 256.128906 L 187.339844 264.144531 L 187.339844 291.820312 L 241.761719 276.707031 L 242.160156 272.207031 L 248.402344 202.160156 Z M 249.050781 195.019531 " fill-opacity="1" fill-rule="nonzero"/></svg>