<svg xmlns="http://www.w3.org/2000/svg" xmlns:xlink="http://www.w3.org/1999/xlink" width="500" zoomAndPan="magnify" viewBox="0 0 375 374.999991" height="500" preserveAspectRatio="xMidYMid meet" version="1.0"><defs><clipPath id="aefd71739d"><path d="M 6.46875 24.25 L 363.808594 24.25 L 363.808594 354.617188 L 6.46875 354.617188 Z M 6.46875 24.25 " clip-rule="nonzero"/></clipPath><clipPath id="f891f88faf"><path d="M 36.375 24.25 L 360.742188 24.25 L 360.742188 354.617188 L 36.375 354.617188 Z M 36.375 24.25 " clip-rule="nonzero"/></clipPath><clipPath id="7aabb6cd35"><path d="M 6.46875 20.269531 L 354 20.269531 L 354 344 L 6.46875 344 Z M 6.46875 20.269531 " clip-rule="nonzero"/></clipPath><clipPath id="b0a68e8b9c"><path d="M 32.539062 25.015625 L 363.808594 25.015625 L 363.808594 354.617188 L 32.539062 354.617188 Z M 32.539062 25.015625 " clip-rule="nonzero"/></clipPath><clipPath id="98f551785c"><path d="M 73.183594 108.566406 L 368.710938 108.566406 L 368.710938 344.660156 L 73.183594 344.660156 Z M 73.183594 108.566406 " clip-rule="nonzero"/></clipPath></defs><g clip-path="url(#aefd71739d)"><path fill="#f615ba" d="M 322.324219 282.578125 L 309.03125 262.597656 L 303.898438 262.597656 C 298.695312 269.535156 293.203125 276.222656 287.476562 282.578125 Z M 60.398438 57.816406 C 60.398438 58.121094 60.425781 58.425781 60.464844 58.71875 C 63.765625 56.476562 67.1875 54.351562 70.710938 52.339844 C 69.652344 51.625 68.378906 51.207031 67.007812 51.207031 C 63.363281 51.207031 60.398438 54.171875 60.398438 57.816406 Z M 363.652344 294.523438 L 348.238281 294.523438 L 355.214844 354.617188 L 344.019531 354.617188 L 337.035156 294.523438 L 297.558594 294.523438 L 290.582031 354.617188 L 279.382812 354.617188 L 286.363281 294.523438 L 276.027344 294.523438 C 246.171875 323.75 211.21875 343.449219 176.960938 343.449219 C 161.648438 343.449219 146.480469 340.46875 131.867188 335.09375 L 134.140625 354.617188 L 122.9375 354.617188 L 120.101562 330.199219 C 104.308594 322.859375 89.34375 312.773438 75.765625 300.707031 L 69.5 354.617188 L 58.304688 354.617188 L 65.28125 294.523438 L 50.714844 294.523438 L 50.714844 282.578125 L 57.695312 282.578125 C 26.691406 247.519531 6.46875 201.964844 6.46875 158.753906 C 6.46875 118.453125 24.054688 87.238281 51.574219 65.273438 C 51.097656 64.292969 50.714844 63.269531 50.433594 62.214844 L 45.398438 61.105469 L 45.398438 54.53125 L 50.433594 53.421875 C 50.828125 51.941406 51.410156 50.53125 52.179688 49.210938 L 49.402344 44.867188 L 54.054688 40.21875 L 58.398438 42.992188 C 59.71875 42.222656 61.132812 41.640625 62.609375 41.25 L 63.71875 36.214844 L 70.300781 36.214844 L 71.40625 41.25 C 72.886719 41.640625 74.300781 42.222656 75.621094 42.992188 L 79.964844 40.21875 L 84.617188 44.867188 L 84.277344 45.398438 C 86.777344 44.253906 89.320312 43.160156 91.898438 42.117188 L 91.898438 36.214844 L 108.707031 36.214844 C 122.234375 32.128906 136.507812 29.328125 151.140625 27.816406 C 151.125 27.691406 151.101562 27.570312 151.101562 27.4375 C 151.101562 25.910156 152.347656 24.667969 153.875 24.667969 C 155.363281 24.667969 156.566406 25.839844 156.632812 27.308594 C 163.359375 26.765625 170.144531 26.496094 176.960938 26.496094 C 264.519531 26.496094 356.609375 39.71875 356.609375 127.246094 C 356.609375 167.640625 336.988281 216.804688 307.253906 258.039062 L 330.492188 258.039062 L 346.816406 282.578125 L 363.652344 282.578125 Z M 47.304688 30.210938 C 48.832031 30.210938 50.074219 28.96875 50.074219 27.4375 C 50.074219 25.910156 48.832031 24.667969 47.304688 24.667969 C 45.773438 24.667969 44.53125 25.910156 44.53125 27.4375 C 44.53125 28.96875 45.773438 30.210938 47.304688 30.210938 Z M 260.113281 27.4375 C 260.113281 25.910156 261.359375 24.667969 262.886719 24.667969 C 264.414062 24.667969 265.660156 25.910156 265.660156 27.4375 C 265.660156 28.96875 264.414062 30.210938 262.886719 30.210938 C 261.359375 30.210938 260.113281 28.96875 260.113281 27.4375 " fill-opacity="1" fill-rule="nonzero"/></g><g clip-path="url(#f891f88faf)"><path fill="#ffacec" d="M 255.289062 29.445312 C 256.398438 29.445312 257.296875 28.546875 257.296875 27.4375 C 257.296875 26.332031 256.398438 25.433594 255.289062 25.433594 C 254.179688 25.433594 253.28125 26.332031 253.28125 27.4375 C 253.28125 28.546875 254.179688 29.445312 255.289062 29.445312 Z M 300.671875 89.460938 L 310.011719 89.460938 L 310.011719 87.160156 L 300.671875 87.160156 Z M 297.046875 58.429688 L 284.320312 50.828125 L 284.320312 66.03125 Z M 328.851562 79.417969 L 252.519531 79.417969 L 252.519531 39.5625 L 328.851562 39.5625 Z M 314.078125 84.605469 L 307.574219 84.605469 L 307.574219 86.902344 L 314.078125 86.902344 Z M 300.671875 84.605469 L 300.671875 86.902344 L 307.175781 86.902344 L 307.175781 84.605469 Z M 314.078125 82.050781 L 300.671875 82.050781 L 300.671875 84.351562 L 314.078125 84.351562 Z M 99.433594 89.589844 L 91.628906 89.589844 L 91.628906 90.355469 L 99.433594 90.355469 Z M 103.5 87.800781 L 103.5 87.03125 L 98.53125 87.03125 L 98.53125 87.800781 Z M 96.597656 87.03125 L 91.628906 87.03125 L 91.628906 87.800781 L 96.597656 87.800781 Z M 103.5 84.480469 L 91.628906 84.480469 L 91.628906 85.246094 L 103.5 85.246094 Z M 50.472656 89.589844 L 42.671875 89.589844 L 42.671875 90.355469 L 50.472656 90.355469 Z M 54.539062 87.800781 L 54.539062 87.03125 L 49.570312 87.03125 L 49.570312 87.800781 Z M 47.636719 87.03125 L 42.671875 87.03125 L 42.671875 87.800781 L 47.636719 87.800781 Z M 54.539062 84.480469 L 42.671875 84.480469 L 42.671875 85.246094 L 54.539062 85.246094 Z M 106.316406 65.789062 L 92.667969 65.789062 L 92.667969 70.5625 L 106.316406 70.5625 Z M 106.316406 44.953125 L 92.667969 44.953125 L 92.667969 49.726562 L 106.316406 49.726562 Z M 39.707031 29.445312 C 40.8125 29.445312 41.710938 28.546875 41.710938 27.4375 C 41.710938 26.332031 40.8125 25.433594 39.707031 25.433594 C 38.601562 25.433594 37.699219 26.332031 37.699219 27.4375 C 37.699219 28.546875 38.601562 29.445312 39.707031 29.445312 Z M 55.589844 57.816406 C 55.589844 64.113281 60.710938 69.230469 67.007812 69.230469 C 73.308594 69.230469 78.429688 64.113281 78.429688 57.816406 C 78.429688 51.523438 73.308594 46.398438 67.007812 46.398438 C 60.710938 46.398438 55.589844 51.523438 55.589844 57.816406 Z M 54.824219 57.816406 C 54.824219 51.097656 60.289062 45.632812 67.007812 45.632812 C 73.730469 45.632812 79.195312 51.097656 79.195312 57.816406 C 79.195312 64.535156 73.730469 70 67.007812 70 C 60.289062 70 54.824219 64.535156 54.824219 57.816406 Z M 200.328125 126.585938 C 199.703125 126.585938 199.128906 127.097656 199.050781 127.722656 C 198.972656 128.347656 199.417969 128.855469 200.042969 128.855469 C 200.671875 128.855469 201.242188 128.347656 201.320312 127.722656 C 201.398438 127.097656 200.953125 126.585938 200.328125 126.585938 Z M 232.878906 126.953125 L 221.460938 126.953125 C 221.039062 126.953125 220.695312 127.296875 220.695312 127.71875 C 220.695312 128.144531 221.039062 128.484375 221.460938 128.484375 L 232.878906 128.484375 C 233.300781 128.484375 233.648438 128.144531 233.648438 127.71875 C 233.648438 127.296875 233.300781 126.953125 232.878906 126.953125 Z M 146.277344 30.210938 C 147.808594 30.210938 149.054688 28.96875 149.054688 27.4375 C 149.054688 25.910156 147.808594 24.667969 146.277344 24.667969 C 144.75 24.667969 143.507812 25.910156 143.507812 27.4375 C 143.507812 28.96875 144.75 30.210938 146.277344 30.210938 Z M 166.960938 81.773438 C 166.960938 82.980469 167.945312 83.964844 169.15625 83.964844 L 185.761719 83.964844 C 186.972656 83.964844 187.957031 82.980469 187.957031 81.773438 C 187.957031 80.5625 186.972656 79.582031 185.761719 79.582031 L 169.15625 79.582031 C 167.945312 79.582031 166.960938 80.5625 166.960938 81.773438 Z M 151.773438 70.628906 L 168.382812 70.628906 C 169.59375 70.628906 170.578125 69.644531 170.578125 68.433594 C 170.578125 67.222656 169.59375 66.242188 168.382812 66.242188 L 151.773438 66.242188 C 150.5625 66.242188 149.578125 67.222656 149.578125 68.433594 C 149.578125 69.644531 150.5625 70.628906 151.773438 70.628906 Z M 151.773438 57.289062 L 180.550781 57.289062 C 181.761719 57.289062 182.742188 56.300781 182.742188 55.09375 C 182.742188 53.882812 181.761719 52.902344 180.550781 52.902344 L 151.773438 52.902344 C 150.5625 52.902344 149.578125 53.882812 149.578125 55.09375 C 149.578125 56.300781 150.5625 57.289062 151.773438 57.289062 Z M 186.097656 70.628906 L 191.972656 70.628906 C 193.179688 70.628906 194.164062 69.644531 194.164062 68.433594 C 194.164062 67.222656 193.179688 66.242188 191.972656 66.242188 L 186.097656 66.242188 C 184.886719 66.242188 183.902344 67.222656 183.902344 68.433594 C 183.902344 69.644531 184.886719 70.628906 186.097656 70.628906 Z M 180.109375 70.628906 C 181.320312 70.628906 182.304688 69.644531 182.304688 68.433594 C 182.304688 67.222656 181.320312 66.242188 180.109375 66.242188 L 174.238281 66.242188 C 173.027344 66.242188 172.042969 67.222656 172.042969 68.433594 C 172.042969 69.644531 173.027344 70.628906 174.238281 70.628906 Z M 151.773438 50.621094 L 157.648438 50.621094 C 158.855469 50.621094 159.84375 49.632812 159.84375 48.425781 C 159.84375 47.214844 158.855469 46.230469 157.648438 46.230469 L 151.773438 46.230469 C 150.5625 46.230469 149.578125 47.214844 149.578125 48.425781 C 149.578125 49.632812 150.5625 50.621094 151.773438 50.621094 Z M 151.773438 43.949219 L 171.550781 43.949219 C 172.761719 43.949219 173.746094 42.964844 173.746094 41.757812 C 173.746094 40.546875 172.761719 39.5625 171.550781 39.5625 L 151.773438 39.5625 C 150.5625 39.5625 149.578125 40.546875 149.578125 41.757812 C 149.578125 42.964844 150.5625 43.949219 151.773438 43.949219 Z M 194.488281 333.8125 L 54.914062 333.8125 C 49.167969 333.8125 44.507812 338.46875 44.507812 344.214844 C 44.507812 349.960938 49.167969 354.617188 54.914062 354.617188 L 194.488281 354.617188 C 200.234375 354.617188 204.894531 349.960938 204.894531 344.214844 C 204.894531 338.46875 200.234375 333.8125 194.488281 333.8125 Z M 355.511719 116.480469 C 355.511719 116.058594 355.167969 115.714844 354.746094 115.714844 L 317.042969 115.714844 C 316.617188 115.714844 316.277344 116.058594 316.277344 116.480469 C 316.277344 116.90625 316.617188 117.25 317.042969 117.25 L 354.746094 117.25 C 355.167969 117.25 355.511719 116.90625 355.511719 116.480469 Z M 337.796875 128.484375 L 344.261719 128.484375 C 344.683594 128.484375 345.027344 128.144531 345.027344 127.71875 C 345.027344 127.296875 344.683594 126.953125 344.261719 126.953125 L 337.796875 126.953125 C 337.375 126.953125 337.03125 127.296875 337.03125 127.71875 C 337.03125 128.144531 337.375 128.484375 337.796875 128.484375 Z M 353 132.730469 C 353 132.308594 352.65625 131.960938 352.234375 131.960938 L 337.167969 131.960938 C 336.746094 131.960938 336.402344 132.308594 336.402344 132.730469 C 336.402344 133.152344 336.746094 133.496094 337.167969 133.496094 L 352.234375 133.496094 C 352.65625 133.496094 353 133.152344 353 132.730469 Z M 336.539062 138.503906 L 344.273438 138.503906 C 344.699219 138.503906 345.039062 138.160156 345.039062 137.738281 C 345.039062 137.3125 344.699219 136.972656 344.273438 136.972656 L 336.539062 136.972656 C 336.117188 136.972656 335.773438 137.3125 335.773438 137.738281 C 335.773438 138.160156 336.117188 138.503906 336.539062 138.503906 Z M 332.007812 170.460938 C 331.582031 170.460938 331.242188 170.800781 331.242188 171.226562 C 331.242188 171.648438 331.582031 171.992188 332.007812 171.992188 L 338.46875 171.992188 C 338.890625 171.992188 339.234375 171.648438 339.234375 171.226562 C 339.234375 170.800781 338.890625 170.460938 338.46875 170.460938 Z M 347.207031 176.234375 C 347.207031 175.8125 346.863281 175.464844 346.441406 175.464844 L 331.375 175.464844 C 330.953125 175.464844 330.609375 175.8125 330.609375 176.234375 C 330.609375 176.65625 330.953125 177 331.375 177 L 346.441406 177 C 346.863281 177 347.207031 176.65625 347.207031 176.234375 Z M 339.246094 181.242188 C 339.246094 180.816406 338.90625 180.476562 338.480469 180.476562 L 330.746094 180.476562 C 330.324219 180.476562 329.980469 180.816406 329.980469 181.242188 C 329.980469 181.664062 330.324219 182.007812 330.746094 182.007812 L 338.480469 182.007812 C 338.90625 182.007812 339.246094 181.664062 339.246094 181.242188 Z M 322.742188 133.308594 C 322.742188 132.882812 322.402344 132.539062 321.976562 132.539062 L 309.058594 132.539062 C 308.632812 132.539062 308.289062 132.882812 308.289062 133.308594 C 308.289062 133.730469 308.632812 134.074219 309.058594 134.074219 L 321.976562 134.074219 C 322.402344 134.074219 322.742188 133.730469 322.742188 133.308594 Z M 316.273438 143.324219 C 316.273438 142.902344 315.929688 142.558594 315.503906 142.558594 L 304.214844 142.558594 C 303.792969 142.558594 303.449219 142.902344 303.449219 143.324219 C 303.449219 143.746094 303.792969 144.09375 304.214844 144.09375 L 315.503906 144.09375 C 315.929688 144.09375 316.273438 143.746094 316.273438 143.324219 Z M 313.574219 206.234375 C 313.574219 205.8125 313.230469 205.46875 312.808594 205.46875 L 292.480469 205.46875 C 292.058594 205.46875 291.714844 205.8125 291.714844 206.234375 C 291.714844 206.65625 292.058594 207.003906 292.480469 207.003906 L 312.808594 207.003906 C 313.230469 207.003906 313.574219 206.65625 313.574219 206.234375 Z M 255.90625 122.136719 L 199.839844 122.136719 C 197.722656 122.136719 195.789062 123.851562 195.523438 125.96875 L 194.601562 133.308594 L 258.335938 133.308594 L 259.257812 125.96875 C 259.523438 123.851562 258.023438 122.136719 255.90625 122.136719 Z M 249.480469 179.761719 C 249.480469 179.335938 249.136719 178.992188 248.714844 178.992188 L 241.871094 178.992188 C 241.449219 178.992188 241.105469 179.335938 241.105469 179.761719 C 241.105469 180.183594 241.449219 180.527344 241.871094 180.527344 L 248.714844 180.527344 C 249.136719 180.527344 249.480469 180.183594 249.480469 179.761719 Z M 232.980469 183.441406 C 232.980469 183.015625 232.632812 182.671875 232.210938 182.671875 L 225.804688 182.671875 C 225.382812 182.671875 225.039062 183.015625 225.039062 183.441406 C 225.039062 183.863281 225.382812 184.207031 225.804688 184.207031 L 232.210938 184.207031 C 232.632812 184.207031 232.980469 183.863281 232.980469 183.441406 Z M 219.71875 179.761719 C 219.71875 179.335938 219.375 178.992188 218.953125 178.992188 L 212.109375 178.992188 C 211.683594 178.992188 211.34375 179.335938 211.34375 179.761719 C 211.34375 180.183594 211.683594 180.527344 212.109375 180.527344 L 218.953125 180.527344 C 219.375 180.527344 219.71875 180.183594 219.71875 179.761719 Z M 201.085938 209.382812 L 195.246094 209.382812 C 194.441406 209.382812 193.707031 210.035156 193.605469 210.839844 C 193.503906 211.644531 194.074219 212.296875 194.878906 212.296875 L 200.722656 212.296875 C 201.523438 212.296875 202.261719 211.644531 202.363281 210.839844 C 202.460938 210.035156 201.890625 209.382812 201.085938 209.382812 Z M 195.089844 199.402344 C 195.714844 199.402344 196.285156 198.894531 196.367188 198.269531 C 196.445312 197.640625 196 197.132812 195.375 197.132812 C 194.75 197.132812 194.175781 197.640625 194.097656 198.269531 C 194.015625 198.894531 194.464844 199.402344 195.089844 199.402344 Z M 194.417969 183.441406 C 194.417969 183.863281 194.761719 184.207031 195.1875 184.207031 L 199.890625 184.207031 C 200.3125 184.207031 200.660156 183.863281 200.660156 183.441406 C 200.660156 183.015625 200.3125 182.671875 199.890625 182.671875 L 195.1875 182.671875 C 194.761719 182.671875 194.417969 183.015625 194.417969 183.441406 Z M 224.527344 143.324219 C 224.527344 142.902344 224.183594 142.558594 223.757812 142.558594 L 209.277344 142.558594 C 208.855469 142.558594 208.507812 142.902344 208.507812 143.324219 C 208.507812 143.746094 208.855469 144.09375 209.277344 144.09375 L 223.757812 144.09375 C 224.183594 144.09375 224.527344 143.746094 224.527344 143.324219 Z M 273.59375 226.269531 C 273.59375 226.691406 273.933594 227.035156 274.359375 227.035156 L 303.683594 227.035156 C 304.109375 227.035156 304.449219 226.691406 304.449219 226.269531 C 304.449219 225.84375 304.109375 225.5 303.683594 225.5 L 274.359375 225.5 C 273.933594 225.5 273.59375 225.84375 273.59375 226.269531 Z M 280.242188 173.375 C 280.242188 173.796875 280.589844 174.140625 281.011719 174.140625 L 288.746094 174.140625 C 289.167969 174.140625 289.511719 173.796875 289.511719 173.375 C 289.511719 172.949219 289.167969 172.605469 288.746094 172.605469 L 281.011719 172.605469 C 280.589844 172.605469 280.242188 172.949219 280.242188 173.375 Z M 282.761719 153.339844 C 282.761719 153.765625 283.105469 154.109375 283.53125 154.109375 L 292.847656 154.109375 C 293.273438 154.109375 293.617188 153.765625 293.617188 153.339844 C 293.617188 152.917969 293.273438 152.574219 292.847656 152.574219 L 283.53125 152.574219 C 283.105469 152.574219 282.761719 152.917969 282.761719 153.339844 Z M 284.648438 138.316406 C 284.648438 138.738281 284.996094 139.082031 285.417969 139.082031 L 291.878906 139.082031 C 292.304688 139.082031 292.644531 138.738281 292.644531 138.316406 C 292.644531 137.894531 292.304688 137.550781 291.878906 137.550781 L 285.417969 137.550781 C 284.996094 137.550781 284.648438 137.894531 284.648438 138.316406 Z M 310.328125 153.339844 C 310.328125 152.917969 309.980469 152.574219 309.558594 152.574219 L 296.199219 152.574219 C 295.777344 152.574219 295.433594 152.917969 295.433594 153.339844 C 295.433594 153.765625 295.777344 154.109375 296.199219 154.109375 L 309.558594 154.109375 C 309.980469 154.109375 310.328125 153.765625 310.328125 153.339844 Z M 312.359375 169.128906 C 312.78125 169.128906 313.125 168.789062 313.125 168.363281 C 313.125 167.941406 312.78125 167.597656 312.359375 167.597656 L 301.066406 167.597656 C 300.644531 167.597656 300.300781 167.941406 300.300781 168.363281 C 300.300781 168.789062 300.644531 169.128906 301.066406 169.128906 Z M 360.402344 119.039062 L 348.527344 226.128906 C 348.175781 229.292969 345.507812 231.679688 342.324219 231.679688 L 176.003906 231.679688 C 174.203125 231.679688 172.550781 230.941406 171.355469 229.601562 C 171.113281 229.335938 170.910156 229.050781 170.726562 228.757812 C 168.996094 241.027344 160.71875 254.867188 160.71875 265.664062 C 160.71875 277.519531 169.761719 294.523438 169.761719 294.523438 C 169.761719 294.523438 166.550781 321.066406 133.984375 321.066406 C 122.214844 321.066406 113.90625 319.003906 109.628906 317.609375 C 107.410156 316.882812 105.773438 315.019531 105.273438 312.738281 C 101.488281 295.5625 104.054688 271.171875 106.726562 262.597656 C 108.53125 256.800781 106.40625 227.109375 99.441406 205.941406 C 95.886719 195.144531 103.933594 184.03125 115.304688 184.03125 L 117.996094 175.464844 C 117.996094 175.464844 126.558594 171.328125 135.609375 173.167969 C 144.660156 175.007812 148.980469 177.492188 152.355469 177.964844 L 150.167969 184.082031 C 153.898438 184.40625 157.238281 186.628906 158.945312 190.015625 C 162.625 197.328125 168.480469 209.890625 170.402344 219.328125 L 181.675781 117.664062 C 182.027344 114.5 184.691406 112.113281 187.878906 112.113281 L 354.199219 112.113281 C 355.996094 112.113281 357.652344 112.851562 358.851562 114.191406 C 360.050781 115.53125 360.601562 117.25 360.402344 119.039062 Z M 204.621094 126.585938 C 204 126.585938 203.425781 127.097656 203.34375 127.722656 C 203.265625 128.347656 203.710938 128.855469 204.335938 128.855469 C 204.960938 128.855469 205.535156 128.347656 205.613281 127.722656 C 205.695312 127.097656 205.25 126.585938 204.621094 126.585938 Z M 208.917969 126.585938 C 208.289062 126.585938 207.71875 127.097656 207.640625 127.722656 C 207.5625 128.347656 208.007812 128.855469 208.632812 128.855469 C 209.257812 128.855469 209.832031 128.347656 209.90625 127.722656 C 209.984375 127.097656 209.542969 126.585938 208.917969 126.585938 Z M 91.386719 123.085938 L 82.257812 123.085938 L 82.257812 142.992188 L 91.386719 142.992188 Z M 59.355469 142.992188 L 68.484375 142.992188 L 68.484375 125.84375 L 59.355469 125.84375 Z M 45.582031 142.992188 L 36.453125 142.992188 L 36.453125 131.824219 L 45.582031 131.824219 L 45.582031 142.992188 " fill-opacity="1" fill-rule="nonzero"/></g><g clip-path="url(#7aabb6cd35)"><path fill="#ebebeb" d="M 67.007812 65.195312 C 71.085938 65.195312 74.390625 61.894531 74.390625 57.816406 C 74.390625 53.742188 71.085938 50.441406 67.007812 50.441406 C 62.933594 50.441406 59.628906 53.742188 59.628906 57.816406 C 59.628906 61.894531 62.933594 65.195312 67.007812 65.195312 Z M 45.296875 27.4375 C 45.296875 28.546875 46.195312 29.445312 47.304688 29.445312 C 48.414062 29.445312 49.308594 28.546875 49.308594 27.4375 C 49.308594 26.332031 48.414062 25.433594 47.304688 25.433594 C 46.195312 25.433594 45.296875 26.332031 45.296875 27.4375 Z M 50.378906 44.976562 L 53.082031 49.195312 C 52.160156 50.679688 51.472656 52.320312 51.0625 54.070312 L 46.167969 55.144531 L 46.167969 60.488281 L 51.0625 61.566406 C 51.472656 63.316406 52.160156 64.957031 53.082031 66.4375 L 50.378906 70.660156 L 54.160156 74.4375 L 58.386719 71.742188 C 59.871094 72.660156 61.507812 73.347656 63.257812 73.757812 L 64.335938 78.652344 L 69.683594 78.652344 L 70.761719 73.757812 C 72.507812 73.347656 74.148438 72.660156 75.632812 71.742188 L 79.859375 74.4375 L 83.640625 70.660156 L 80.9375 66.4375 C 81.855469 64.957031 82.546875 63.316406 82.957031 61.566406 L 87.851562 60.488281 L 87.851562 55.144531 L 82.957031 54.070312 C 82.546875 52.320312 81.855469 50.679688 80.9375 49.195312 L 83.640625 44.976562 L 79.859375 41.191406 L 75.632812 43.894531 C 74.148438 42.976562 72.507812 42.285156 70.761719 41.878906 L 69.683594 36.980469 L 64.335938 36.980469 L 63.257812 41.878906 C 61.507812 42.285156 59.871094 42.976562 58.386719 43.894531 L 54.160156 41.191406 Z M 92.667969 62.589844 L 113.523438 62.589844 L 113.523438 57.816406 L 92.667969 57.816406 Z M 92.667969 41.757812 L 113.523438 41.757812 L 113.523438 36.980469 L 92.667969 36.980469 Z M 70.859375 84.480469 L 58.988281 84.480469 L 58.988281 85.246094 L 70.859375 85.246094 Z M 70.859375 87.03125 L 65.890625 87.03125 L 65.890625 87.800781 L 70.859375 87.800781 Z M 63.957031 87.800781 L 63.957031 87.03125 L 58.988281 87.03125 L 58.988281 87.800781 Z M 66.796875 89.589844 L 58.988281 89.589844 L 58.988281 90.355469 L 66.796875 90.355469 Z M 122.707031 79.964844 L 136.578125 79.964844 L 136.578125 58.8125 L 122.707031 58.8125 Z M 122.707031 58.046875 L 136.578125 58.046875 L 136.578125 36.894531 L 122.707031 36.894531 Z M 144.273438 81.773438 C 144.273438 82.5625 144.914062 83.199219 145.699219 83.199219 L 145.835938 83.199219 C 146.625 83.199219 147.265625 82.5625 147.265625 81.773438 C 147.265625 80.984375 146.625 80.347656 145.835938 80.347656 L 145.699219 80.347656 C 144.914062 80.347656 144.273438 80.984375 144.273438 81.773438 Z M 144.273438 75.105469 C 144.273438 75.890625 144.914062 76.53125 145.699219 76.53125 L 145.835938 76.53125 C 146.625 76.53125 147.265625 75.890625 147.265625 75.105469 C 147.265625 74.316406 146.625 73.675781 145.835938 73.675781 L 145.699219 73.675781 C 144.914062 73.675781 144.273438 74.316406 144.273438 75.105469 Z M 144.273438 68.433594 C 144.273438 69.222656 144.914062 69.859375 145.699219 69.859375 L 145.835938 69.859375 C 146.625 69.859375 147.265625 69.222656 147.265625 68.433594 C 147.265625 67.644531 146.625 67.007812 145.835938 67.007812 L 145.699219 67.007812 C 144.914062 67.007812 144.273438 67.644531 144.273438 68.433594 Z M 144.273438 61.765625 C 144.273438 62.550781 144.914062 63.191406 145.699219 63.191406 L 145.835938 63.191406 C 146.625 63.191406 147.265625 62.550781 147.265625 61.765625 C 147.265625 60.976562 146.625 60.335938 145.835938 60.335938 L 145.699219 60.335938 C 144.914062 60.335938 144.273438 60.976562 144.273438 61.765625 Z M 144.273438 55.09375 C 144.273438 55.882812 144.914062 56.519531 145.699219 56.519531 L 145.835938 56.519531 C 146.625 56.519531 147.265625 55.882812 147.265625 55.09375 C 147.265625 54.304688 146.625 53.667969 145.835938 53.667969 L 145.699219 53.667969 C 144.914062 53.667969 144.273438 54.304688 144.273438 55.09375 Z M 144.273438 48.425781 C 144.273438 49.210938 144.914062 49.851562 145.699219 49.851562 L 145.835938 49.851562 C 146.625 49.851562 147.265625 49.210938 147.265625 48.425781 C 147.265625 47.636719 146.625 46.996094 145.835938 46.996094 L 145.699219 46.996094 C 144.914062 46.996094 144.273438 47.636719 144.273438 48.425781 Z M 144.273438 41.757812 C 144.273438 42.542969 144.914062 43.179688 145.699219 43.179688 L 145.835938 43.179688 C 146.625 43.179688 147.265625 42.542969 147.265625 41.757812 C 147.265625 40.964844 146.625 40.328125 145.835938 40.328125 L 145.699219 40.328125 C 144.914062 40.328125 144.273438 40.964844 144.273438 41.757812 Z M 144.273438 35.085938 C 144.273438 35.871094 144.914062 36.511719 145.699219 36.511719 L 145.835938 36.511719 C 146.625 36.511719 147.265625 35.871094 147.265625 35.085938 C 147.265625 34.296875 146.625 33.65625 145.835938 33.65625 L 145.699219 33.65625 C 144.914062 33.65625 144.273438 34.296875 144.273438 35.085938 Z M 144.273438 27.4375 C 144.273438 28.546875 145.171875 29.445312 146.277344 29.445312 C 147.386719 29.445312 148.285156 28.546875 148.285156 27.4375 C 148.285156 26.332031 147.386719 25.433594 146.277344 25.433594 C 145.171875 25.433594 144.273438 26.332031 144.273438 27.4375 Z M 150.34375 81.773438 C 150.34375 82.5625 150.984375 83.199219 151.773438 83.199219 L 163.882812 83.199219 C 164.671875 83.199219 165.3125 82.5625 165.3125 81.773438 C 165.3125 80.984375 164.671875 80.347656 163.882812 80.347656 L 151.773438 80.347656 C 150.984375 80.347656 150.34375 80.984375 150.34375 81.773438 Z M 150.34375 75.105469 C 150.34375 75.890625 150.984375 76.53125 151.773438 76.53125 L 177.6875 76.53125 C 178.472656 76.53125 179.113281 75.890625 179.113281 75.105469 C 179.113281 74.316406 178.472656 73.675781 177.6875 73.675781 L 151.773438 73.675781 C 150.984375 73.675781 150.34375 74.316406 150.34375 75.105469 Z M 150.34375 68.433594 C 150.34375 69.222656 150.984375 69.859375 151.773438 69.859375 L 168.382812 69.859375 C 169.171875 69.859375 169.8125 69.222656 169.8125 68.433594 C 169.8125 67.644531 169.171875 67.007812 168.382812 67.007812 L 151.773438 67.007812 C 150.984375 67.007812 150.34375 67.644531 150.34375 68.433594 Z M 150.34375 61.765625 C 150.34375 62.550781 150.984375 63.191406 151.773438 63.191406 L 173.699219 63.191406 C 174.488281 63.191406 175.125 62.550781 175.125 61.765625 C 175.125 60.976562 174.488281 60.335938 173.699219 60.335938 L 151.773438 60.335938 C 150.984375 60.335938 150.34375 60.976562 150.34375 61.765625 Z M 150.34375 55.09375 C 150.34375 55.882812 150.984375 56.519531 151.773438 56.519531 L 180.550781 56.519531 C 181.335938 56.519531 181.976562 55.882812 181.976562 55.09375 C 181.976562 54.304688 181.335938 53.667969 180.550781 53.667969 L 151.773438 53.667969 C 150.984375 53.667969 150.34375 54.304688 150.34375 55.09375 Z M 150.34375 48.425781 C 150.34375 49.210938 150.984375 49.851562 151.773438 49.851562 L 157.648438 49.851562 C 158.433594 49.851562 159.074219 49.210938 159.074219 48.425781 C 159.074219 47.636719 158.433594 46.996094 157.648438 46.996094 L 151.773438 46.996094 C 150.984375 46.996094 150.34375 47.636719 150.34375 48.425781 Z M 150.34375 41.757812 C 150.34375 42.542969 150.984375 43.179688 151.773438 43.179688 L 171.550781 43.179688 C 172.339844 43.179688 172.980469 42.542969 172.980469 41.757812 C 172.980469 40.964844 172.339844 40.328125 171.550781 40.328125 L 151.773438 40.328125 C 150.984375 40.328125 150.34375 40.964844 150.34375 41.757812 Z M 150.34375 35.085938 C 150.34375 35.871094 150.984375 36.511719 151.773438 36.511719 L 160.855469 36.511719 C 161.644531 36.511719 162.28125 35.871094 162.28125 35.085938 C 162.28125 34.296875 161.644531 33.65625 160.855469 33.65625 L 151.773438 33.65625 C 150.984375 33.65625 150.34375 34.296875 150.34375 35.085938 Z M 151.867188 27.4375 C 151.867188 28.546875 152.765625 29.445312 153.875 29.445312 C 154.984375 29.445312 155.882812 28.546875 155.882812 27.4375 C 155.882812 26.332031 154.984375 25.433594 153.875 25.433594 C 152.765625 25.433594 151.867188 26.332031 151.867188 27.4375 Z M 193.503906 46.996094 L 164.726562 46.996094 C 163.9375 46.996094 163.300781 47.636719 163.300781 48.425781 C 163.300781 49.210938 163.9375 49.851562 164.726562 49.851562 L 193.503906 49.851562 C 194.289062 49.851562 194.929688 49.210938 194.929688 48.425781 C 194.929688 47.636719 194.289062 46.996094 193.503906 46.996094 Z M 194.113281 55.09375 C 194.113281 54.304688 193.476562 53.667969 192.6875 53.667969 L 186.8125 53.667969 C 186.027344 53.667969 185.382812 54.304688 185.382812 55.09375 C 185.382812 55.882812 186.027344 56.519531 186.8125 56.519531 L 192.6875 56.519531 C 193.476562 56.519531 194.113281 55.882812 194.113281 55.09375 Z M 193.398438 68.433594 C 193.398438 67.644531 192.757812 67.007812 191.972656 67.007812 L 186.097656 67.007812 C 185.308594 67.007812 184.667969 67.644531 184.667969 68.433594 C 184.667969 69.222656 185.308594 69.859375 186.097656 69.859375 L 191.972656 69.859375 C 192.757812 69.859375 193.398438 69.222656 193.398438 68.433594 Z M 181.539062 68.433594 C 181.539062 67.644531 180.902344 67.007812 180.109375 67.007812 L 174.234375 67.007812 C 173.449219 67.007812 172.808594 67.644531 172.808594 68.433594 C 172.808594 69.222656 173.449219 69.859375 174.234375 69.859375 L 180.109375 69.859375 C 180.902344 69.859375 181.539062 69.222656 181.539062 68.433594 Z M 187.191406 81.773438 C 187.191406 80.984375 186.554688 80.347656 185.761719 80.347656 L 169.15625 80.347656 C 168.363281 80.347656 167.726562 80.984375 167.726562 81.773438 C 167.726562 82.5625 168.363281 83.199219 169.15625 83.199219 L 185.761719 83.199219 C 186.554688 83.199219 187.191406 82.5625 187.191406 81.773438 Z M 226.496094 79.964844 L 244.652344 79.964844 L 244.652344 58.8125 L 226.496094 58.8125 Z M 226.496094 58.046875 L 244.652344 58.046875 L 244.652344 36.894531 L 226.496094 36.894531 Z M 253.28125 78.652344 L 328.082031 78.652344 L 328.082031 40.328125 L 253.28125 40.328125 Z M 260.878906 27.4375 C 260.878906 28.546875 261.777344 29.445312 262.886719 29.445312 C 263.992188 29.445312 264.890625 28.546875 264.890625 27.4375 C 264.890625 26.332031 263.992188 25.433594 262.886719 25.433594 C 261.777344 25.433594 260.878906 26.332031 260.878906 27.4375 Z M 313.308594 82.816406 L 301.4375 82.816406 L 301.4375 83.582031 L 313.308594 83.582031 Z M 313.308594 85.371094 L 308.339844 85.371094 L 308.339844 86.136719 L 313.308594 86.136719 Z M 306.410156 86.136719 L 306.410156 85.371094 L 301.4375 85.371094 L 301.4375 86.136719 Z M 309.246094 87.929688 L 301.4375 87.929688 L 301.4375 88.695312 L 309.246094 88.695312 Z M 288.773438 82.816406 L 276.902344 82.816406 L 276.902344 83.582031 L 288.773438 83.582031 Z M 288.773438 85.371094 L 283.800781 85.371094 L 283.800781 86.136719 L 288.773438 86.136719 Z M 281.871094 86.136719 L 281.871094 85.371094 L 276.902344 85.371094 L 276.902344 86.136719 Z M 284.707031 87.929688 L 276.902344 87.929688 L 276.902344 88.695312 L 284.707031 88.695312 Z M 32.792969 95.441406 L 32.792969 24.25 C 32.792969 22.132812 34.507812 20.414062 36.625 20.414062 L 118.875 20.414062 C 120.992188 20.414062 122.707031 22.132812 122.707031 24.25 L 122.707031 36.128906 L 136.578125 36.128906 L 136.578125 24.25 C 136.578125 22.132812 138.296875 20.414062 140.414062 20.414062 L 222.664062 20.414062 C 224.78125 20.414062 226.496094 22.132812 226.496094 24.25 L 226.496094 36.128906 L 244.652344 36.128906 L 244.652344 24.25 C 244.652344 22.132812 246.367188 20.414062 248.484375 20.414062 L 330.730469 20.414062 C 332.851562 20.414062 334.566406 22.132812 334.566406 24.25 L 334.566406 79.964844 L 344.472656 79.964844 C 344.628906 80.214844 344.773438 80.476562 344.925781 80.730469 L 334.566406 80.730469 L 334.566406 95.441406 C 334.566406 97.558594 332.851562 99.273438 330.730469 99.273438 L 248.484375 99.273438 C 246.367188 99.273438 244.652344 97.558594 244.652344 95.441406 L 244.652344 80.730469 L 226.496094 80.730469 L 226.496094 87.46875 C 226.496094 89.585938 224.78125 91.300781 222.664062 91.300781 L 140.414062 91.300781 C 138.296875 91.300781 136.578125 89.585938 136.578125 87.46875 L 136.578125 80.730469 L 122.707031 80.730469 L 122.707031 95.441406 C 122.707031 97.558594 120.992188 99.273438 118.875 99.273438 L 36.625 99.273438 C 34.507812 99.273438 32.792969 97.558594 32.792969 95.441406 Z M 296.796875 115.714844 C 296.375 115.714844 296.03125 116.058594 296.03125 116.480469 C 296.03125 116.90625 296.375 117.25 296.796875 117.25 L 312.285156 117.25 C 312.710938 117.25 313.050781 116.90625 313.050781 116.480469 C 313.050781 116.058594 312.710938 115.714844 312.285156 115.714844 Z M 313.574219 206.234375 C 313.574219 205.8125 313.230469 205.46875 312.808594 205.46875 L 292.480469 205.46875 C 292.058594 205.46875 291.714844 205.8125 291.714844 206.234375 C 291.714844 206.65625 292.058594 207.003906 292.480469 207.003906 L 312.808594 207.003906 C 313.230469 207.003906 313.574219 206.65625 313.574219 206.234375 Z M 305.078125 221.261719 C 305.078125 220.835938 304.738281 220.496094 304.3125 220.496094 L 274.988281 220.496094 C 274.566406 220.496094 274.222656 220.835938 274.222656 221.261719 C 274.222656 221.683594 274.566406 222.027344 274.988281 222.027344 L 304.3125 222.027344 C 304.738281 222.027344 305.078125 221.683594 305.078125 221.261719 Z M 304.449219 226.269531 C 304.449219 225.84375 304.109375 225.5 303.683594 225.5 L 274.359375 225.5 C 273.933594 225.5 273.59375 225.84375 273.59375 226.269531 C 273.59375 226.691406 273.933594 227.035156 274.359375 227.035156 L 303.683594 227.035156 C 304.109375 227.035156 304.449219 226.691406 304.449219 226.269531 Z M 275.480469 211.242188 C 275.480469 211.667969 275.824219 212.007812 276.246094 212.007812 L 299.945312 212.007812 C 300.367188 212.007812 300.710938 211.667969 300.710938 211.242188 C 300.710938 210.820312 300.367188 210.476562 299.945312 210.476562 L 276.246094 210.476562 C 275.824219 210.476562 275.480469 210.820312 275.480469 211.242188 Z M 276.113281 206.234375 C 276.113281 206.65625 276.453125 207.003906 276.878906 207.003906 L 287.042969 207.003906 C 287.464844 207.003906 287.808594 206.65625 287.808594 206.234375 C 287.808594 205.8125 287.464844 205.46875 287.042969 205.46875 L 276.878906 205.46875 C 276.453125 205.46875 276.113281 205.8125 276.113281 206.234375 Z M 276.742188 201.230469 C 276.742188 201.652344 277.082031 201.996094 277.507812 201.996094 L 306.832031 201.996094 C 307.257812 201.996094 307.597656 201.652344 307.597656 201.230469 C 307.597656 200.804688 307.257812 200.460938 306.832031 200.460938 L 277.507812 200.460938 C 277.082031 200.460938 276.742188 200.804688 276.742188 201.230469 Z M 271.097656 201.230469 C 271.097656 200.804688 270.753906 200.460938 270.332031 200.460938 L 265.21875 200.460938 C 264.796875 200.460938 264.453125 200.804688 264.453125 201.230469 C 264.453125 201.652344 264.796875 201.996094 265.21875 201.996094 L 270.332031 201.996094 C 270.753906 201.996094 271.097656 201.652344 271.097656 201.230469 Z M 270.464844 206.234375 C 270.464844 205.8125 270.125 205.46875 269.699219 205.46875 L 264.589844 205.46875 C 264.164062 205.46875 263.824219 205.8125 263.824219 206.234375 C 263.824219 206.65625 264.164062 207.003906 264.589844 207.003906 L 269.699219 207.003906 C 270.125 207.003906 270.464844 206.65625 270.464844 206.234375 Z M 269.835938 211.242188 C 269.835938 210.820312 269.496094 210.476562 269.070312 210.476562 L 263.957031 210.476562 C 263.535156 210.476562 263.191406 210.820312 263.191406 211.242188 C 263.191406 211.667969 263.535156 212.007812 263.957031 212.007812 L 269.070312 212.007812 C 269.496094 212.007812 269.835938 211.667969 269.835938 211.242188 Z M 268.578125 221.261719 C 268.578125 220.835938 268.234375 220.496094 267.8125 220.496094 L 262.699219 220.496094 C 262.277344 220.496094 261.933594 220.835938 261.933594 221.261719 C 261.933594 221.683594 262.277344 222.027344 262.699219 222.027344 L 267.8125 222.027344 C 268.234375 222.027344 268.578125 221.683594 268.578125 221.261719 Z M 267.949219 226.269531 C 267.949219 225.84375 267.605469 225.5 267.183594 225.5 L 262.070312 225.5 C 261.644531 225.5 261.304688 225.84375 261.304688 226.269531 C 261.304688 226.691406 261.644531 227.035156 262.070312 227.035156 L 267.183594 227.035156 C 267.605469 227.035156 267.949219 226.691406 267.949219 226.269531 Z M 323.714844 198.148438 L 319.5 231.679688 L 310.292969 231.679688 C 310.371094 231.5625 310.425781 231.425781 310.425781 231.277344 C 310.425781 230.851562 310.085938 230.511719 309.660156 230.511719 L 289.332031 230.511719 C 288.910156 230.511719 288.566406 230.851562 288.566406 231.277344 C 288.566406 231.425781 288.617188 231.5625 288.695312 231.679688 L 284.53125 231.679688 C 284.605469 231.5625 284.660156 231.425781 284.660156 231.277344 C 284.660156 230.851562 284.316406 230.511719 283.894531 230.511719 L 273.730469 230.511719 C 273.304688 230.511719 272.960938 230.851562 272.960938 231.277344 C 272.960938 231.425781 273.019531 231.5625 273.09375 231.679688 L 267.1875 231.679688 C 267.265625 231.5625 267.320312 231.425781 267.320312 231.277344 C 267.320312 230.851562 266.976562 230.511719 266.550781 230.511719 L 261.441406 230.511719 C 261.015625 230.511719 260.675781 230.851562 260.675781 231.277344 C 260.675781 231.425781 260.726562 231.5625 260.804688 231.679688 L 255.765625 231.679688 L 259.984375 198.148438 C 260.25 196.03125 262.179688 194.316406 264.300781 194.316406 L 320.363281 194.316406 C 322.480469 194.316406 323.984375 196.03125 323.714844 198.148438 Z M 214.859375 209.382812 L 209.019531 209.382812 C 208.210938 209.382812 207.480469 210.035156 207.378906 210.839844 C 207.277344 211.644531 207.847656 212.296875 208.652344 212.296875 L 214.492188 212.296875 C 215.300781 212.296875 216.035156 211.644531 216.136719 210.839844 C 216.234375 210.035156 215.664062 209.382812 214.859375 209.382812 Z M 201.085938 209.382812 L 195.246094 209.382812 C 194.441406 209.382812 193.707031 210.035156 193.605469 210.839844 C 193.503906 211.644531 194.074219 212.296875 194.878906 212.296875 L 200.722656 212.296875 C 201.523438 212.296875 202.261719 211.644531 202.363281 210.839844 C 202.460938 210.035156 201.890625 209.382812 201.085938 209.382812 Z M 191.078125 197.132812 C 190.453125 197.132812 189.878906 197.640625 189.804688 198.269531 C 189.726562 198.894531 190.167969 199.402344 190.792969 199.402344 C 191.421875 199.402344 191.992188 198.894531 192.070312 198.269531 C 192.152344 197.640625 191.703125 197.132812 191.078125 197.132812 Z M 195.089844 199.402344 C 195.714844 199.402344 196.285156 198.894531 196.367188 198.269531 C 196.445312 197.640625 196 197.132812 195.375 197.132812 C 194.75 197.132812 194.175781 197.640625 194.097656 198.269531 C 194.015625 198.894531 194.464844 199.402344 195.089844 199.402344 Z M 199.382812 199.402344 C 200.007812 199.402344 200.582031 198.894531 200.660156 198.269531 C 200.738281 197.640625 200.296875 197.132812 199.667969 197.132812 C 199.039062 197.132812 198.472656 197.640625 198.390625 198.269531 C 198.3125 198.894531 198.757812 199.402344 199.382812 199.402344 Z M 211.324219 204.167969 L 199.898438 204.167969 C 199.476562 204.167969 199.128906 204.515625 199.128906 204.9375 C 199.128906 205.363281 199.476562 205.703125 199.898438 205.703125 L 211.324219 205.703125 C 211.75 205.703125 212.089844 205.363281 212.089844 204.9375 C 212.089844 204.515625 211.75 204.167969 211.324219 204.167969 Z M 222.933594 194.304688 C 225.050781 194.304688 226.554688 196.023438 226.285156 198.140625 L 224.679688 210.914062 C 224.414062 213.03125 222.480469 214.75 220.363281 214.75 L 187.800781 214.75 C 185.683594 214.75 184.183594 213.03125 184.449219 210.914062 L 186.054688 198.140625 C 186.320312 196.023438 188.253906 194.304688 190.371094 194.304688 Z M 205.613281 127.722656 C 205.695312 127.097656 205.25 126.585938 204.621094 126.585938 C 204 126.585938 203.425781 127.097656 203.34375 127.722656 C 203.265625 128.347656 203.710938 128.855469 204.335938 128.855469 C 204.960938 128.855469 205.535156 128.347656 205.613281 127.722656 Z M 246.097656 183.441406 C 246.097656 183.015625 245.75 182.671875 245.328125 182.671875 L 241.410156 182.671875 C 240.984375 182.671875 240.644531 183.015625 240.644531 183.441406 C 240.644531 183.863281 240.984375 184.207031 241.410156 184.207031 L 245.328125 184.207031 C 245.75 184.207031 246.097656 183.863281 246.097656 183.441406 Z M 240.476562 144.09375 C 240.898438 144.09375 241.242188 143.746094 241.242188 143.324219 C 241.242188 142.902344 240.898438 142.558594 240.476562 142.558594 L 229.0625 142.558594 C 228.636719 142.558594 228.292969 142.902344 228.292969 143.324219 C 228.292969 143.746094 228.636719 144.09375 229.0625 144.09375 Z M 238.253906 150.035156 L 210.476562 150.035156 C 209.347656 150.035156 208.316406 150.953125 208.175781 152.082031 L 207.335938 158.757812 C 207.195312 159.882812 207.992188 160.800781 209.125 160.800781 L 236.898438 160.800781 C 238.027344 160.800781 239.058594 159.882812 239.199219 158.757812 L 240.039062 152.082031 C 240.183594 150.953125 239.378906 150.035156 238.253906 150.035156 Z M 226.269531 180.527344 L 230.1875 180.527344 C 230.609375 180.527344 230.953125 180.183594 230.953125 179.761719 C 230.953125 179.335938 230.609375 178.992188 230.1875 178.992188 L 226.269531 178.992188 C 225.84375 178.992188 225.503906 179.335938 225.503906 179.761719 C 225.503906 180.183594 225.84375 180.527344 226.269531 180.527344 Z M 232.980469 183.441406 C 232.980469 183.015625 232.632812 182.671875 232.210938 182.671875 L 225.804688 182.671875 C 225.382812 182.671875 225.039062 183.015625 225.039062 183.441406 C 225.039062 183.863281 225.382812 184.207031 225.804688 184.207031 L 232.210938 184.207031 C 232.632812 184.207031 232.980469 183.863281 232.980469 183.441406 Z M 219.71875 179.761719 C 219.71875 179.335938 219.375 178.992188 218.953125 178.992188 L 212.109375 178.992188 C 211.683594 178.992188 211.34375 179.335938 211.34375 179.761719 C 211.34375 180.183594 211.683594 180.527344 212.109375 180.527344 L 218.953125 180.527344 C 219.375 180.527344 219.71875 180.183594 219.71875 179.761719 Z M 216.332031 183.441406 C 216.332031 183.015625 215.988281 182.671875 215.566406 182.671875 L 211.644531 182.671875 C 211.222656 182.671875 210.878906 183.015625 210.878906 183.441406 C 210.878906 183.863281 211.222656 184.207031 211.644531 184.207031 L 215.566406 184.207031 C 215.988281 184.207031 216.332031 183.863281 216.332031 183.441406 Z M 204.25 179.761719 C 204.25 179.335938 203.910156 178.992188 203.484375 178.992188 L 195.648438 178.992188 C 195.222656 178.992188 194.878906 179.335938 194.878906 179.761719 C 194.878906 180.183594 195.222656 180.527344 195.648438 180.527344 L 203.484375 180.527344 C 203.910156 180.527344 204.25 180.183594 204.25 179.761719 Z M 200.660156 183.441406 C 200.660156 183.015625 200.3125 182.671875 199.890625 182.671875 L 195.1875 182.671875 C 194.761719 182.671875 194.417969 183.015625 194.417969 183.441406 C 194.417969 183.863281 194.761719 184.207031 195.1875 184.207031 L 199.890625 184.207031 C 200.3125 184.207031 200.660156 183.863281 200.660156 183.441406 Z M 208.507812 143.324219 C 208.507812 143.746094 208.855469 144.09375 209.277344 144.09375 L 223.757812 144.09375 C 224.183594 144.09375 224.527344 143.746094 224.527344 143.324219 C 224.527344 142.902344 224.183594 142.558594 223.757812 142.558594 L 209.277344 142.558594 C 208.855469 142.558594 208.507812 142.902344 208.507812 143.324219 Z M 241.105469 179.761719 C 241.105469 180.183594 241.449219 180.527344 241.871094 180.527344 L 248.714844 180.527344 C 249.136719 180.527344 249.480469 180.183594 249.480469 179.761719 C 249.480469 179.335938 249.136719 178.992188 248.714844 178.992188 L 241.871094 178.992188 C 241.449219 178.992188 241.105469 179.335938 241.105469 179.761719 Z M 247.535156 188.703125 L 191.472656 188.703125 C 189.351562 188.703125 187.851562 186.988281 188.121094 184.871094 L 194.601562 133.308594 L 258.335938 133.308594 L 259.257812 125.96875 L 251.851562 184.871094 C 251.585938 186.988281 249.65625 188.703125 247.535156 188.703125 Z M 333.386719 226.246094 L 325.652344 226.246094 C 325.230469 226.246094 324.882812 226.589844 324.882812 227.011719 C 324.882812 227.433594 325.230469 227.78125 325.652344 227.78125 L 333.386719 227.78125 C 333.8125 227.78125 334.15625 227.433594 334.15625 227.011719 C 334.15625 226.589844 333.8125 226.246094 333.386719 226.246094 Z M 337.167969 221.238281 L 326.285156 221.238281 C 325.859375 221.238281 325.515625 221.582031 325.515625 222.003906 C 325.515625 222.429688 325.859375 222.769531 326.285156 222.769531 L 337.167969 222.769531 C 337.59375 222.769531 337.9375 222.429688 337.9375 222.003906 C 337.9375 221.582031 337.59375 221.238281 337.167969 221.238281 Z M 326.914062 217.765625 L 333.375 217.765625 C 333.796875 217.765625 334.140625 217.417969 334.140625 216.996094 C 334.140625 216.574219 333.796875 216.230469 333.375 216.230469 L 326.914062 216.230469 C 326.488281 216.230469 326.144531 216.574219 326.144531 216.996094 C 326.144531 217.417969 326.488281 217.765625 326.914062 217.765625 Z M 340.917969 159.660156 L 333.183594 159.660156 C 332.757812 159.660156 332.417969 160.003906 332.417969 160.425781 C 332.417969 160.851562 332.757812 161.191406 333.183594 161.191406 L 340.917969 161.191406 C 341.339844 161.191406 341.6875 160.851562 341.6875 160.425781 C 341.6875 160.003906 341.339844 159.660156 340.917969 159.660156 Z M 344.699219 154.652344 L 333.8125 154.652344 C 333.386719 154.652344 333.046875 154.996094 333.046875 155.417969 C 333.046875 155.84375 333.386719 156.1875 333.8125 156.1875 L 344.699219 156.1875 C 345.125 156.1875 345.464844 155.84375 345.464844 155.417969 C 345.464844 154.996094 345.125 154.652344 344.699219 154.652344 Z M 334.441406 149.644531 C 334.019531 149.644531 333.675781 149.988281 333.675781 150.410156 C 333.675781 150.835938 334.019531 151.175781 334.441406 151.175781 L 340.902344 151.175781 C 341.328125 151.175781 341.671875 150.835938 341.671875 150.410156 C 341.671875 149.988281 341.328125 149.644531 340.902344 149.644531 Z M 322.742188 133.308594 C 322.742188 132.882812 322.402344 132.539062 321.976562 132.539062 L 309.058594 132.539062 C 308.632812 132.539062 308.289062 132.882812 308.289062 133.308594 C 308.289062 133.730469 308.632812 134.074219 309.058594 134.074219 L 321.976562 134.074219 C 322.402344 134.074219 322.742188 133.730469 322.742188 133.308594 Z M 316.273438 143.324219 C 316.273438 142.902344 315.929688 142.558594 315.503906 142.558594 L 304.214844 142.558594 C 303.792969 142.558594 303.449219 142.902344 303.449219 143.324219 C 303.449219 143.746094 303.792969 144.09375 304.214844 144.09375 L 315.503906 144.09375 C 315.929688 144.09375 316.273438 143.746094 316.273438 143.324219 Z M 313.125 168.363281 C 313.125 167.941406 312.78125 167.597656 312.359375 167.597656 L 301.066406 167.597656 C 300.644531 167.597656 300.300781 167.941406 300.300781 168.363281 C 300.300781 168.789062 300.644531 169.128906 301.066406 169.128906 L 312.359375 169.128906 C 312.78125 169.128906 313.125 168.789062 313.125 168.363281 Z M 307.519531 173.375 C 307.519531 172.949219 307.179688 172.605469 306.753906 172.605469 L 293.113281 172.605469 C 292.6875 172.605469 292.34375 172.949219 292.34375 173.375 C 292.34375 173.796875 292.6875 174.140625 293.113281 174.140625 L 306.753906 174.140625 C 307.179688 174.140625 307.519531 173.796875 307.519531 173.375 Z M 299.789062 178.378906 C 299.789062 177.957031 299.445312 177.613281 299.023438 177.613281 L 280.382812 177.613281 C 279.957031 177.613281 279.613281 177.957031 279.613281 178.378906 C 279.613281 178.804688 279.957031 179.144531 280.382812 179.144531 L 299.023438 179.144531 C 299.445312 179.144531 299.789062 178.804688 299.789062 178.378906 Z M 279.636719 133.308594 C 279.636719 132.882812 279.292969 132.539062 278.867188 132.539062 L 273.757812 132.539062 C 273.335938 132.539062 272.992188 132.882812 272.992188 133.308594 C 272.992188 133.730469 273.335938 134.074219 273.757812 134.074219 L 278.867188 134.074219 C 279.292969 134.074219 279.636719 133.730469 279.636719 133.308594 Z M 279.007812 138.316406 C 279.007812 137.894531 278.664062 137.550781 278.238281 137.550781 L 273.128906 137.550781 C 272.703125 137.550781 272.363281 137.894531 272.363281 138.316406 C 272.363281 138.738281 272.703125 139.082031 273.128906 139.082031 L 278.238281 139.082031 C 278.664062 139.082031 279.007812 138.738281 279.007812 138.316406 Z M 278.378906 143.324219 C 278.378906 142.902344 278.035156 142.558594 277.609375 142.558594 L 272.5 142.558594 C 272.074219 142.558594 271.734375 142.902344 271.734375 143.324219 C 271.734375 143.746094 272.074219 144.09375 272.5 144.09375 L 277.609375 144.09375 C 278.035156 144.09375 278.378906 143.746094 278.378906 143.324219 Z M 277.75 148.332031 C 277.75 147.910156 277.402344 147.566406 276.980469 147.566406 L 271.867188 147.566406 C 271.445312 147.566406 271.101562 147.910156 271.101562 148.332031 C 271.101562 148.753906 271.445312 149.097656 271.867188 149.097656 L 276.980469 149.097656 C 277.402344 149.097656 277.75 148.753906 277.75 148.332031 Z M 277.121094 153.339844 C 277.121094 152.917969 276.773438 152.574219 276.351562 152.574219 L 271.238281 152.574219 C 270.816406 152.574219 270.472656 152.917969 270.472656 153.339844 C 270.472656 153.765625 270.816406 154.109375 271.238281 154.109375 L 276.351562 154.109375 C 276.773438 154.109375 277.121094 153.765625 277.121094 153.339844 Z M 275.859375 163.359375 C 275.859375 162.933594 275.515625 162.589844 275.089844 162.589844 L 269.980469 162.589844 C 269.554688 162.589844 269.214844 162.933594 269.214844 163.359375 C 269.214844 163.78125 269.554688 164.125 269.980469 164.125 L 275.089844 164.125 C 275.515625 164.125 275.859375 163.78125 275.859375 163.359375 Z M 275.230469 168.363281 C 275.230469 167.941406 274.886719 167.597656 274.460938 167.597656 L 269.347656 167.597656 C 268.925781 167.597656 268.582031 167.941406 268.582031 168.363281 C 268.582031 168.789062 268.925781 169.128906 269.347656 169.128906 L 274.460938 169.128906 C 274.886719 169.128906 275.230469 168.789062 275.230469 168.363281 Z M 274.601562 173.375 C 274.601562 172.949219 274.253906 172.605469 273.832031 172.605469 L 268.71875 172.605469 C 268.296875 172.605469 267.953125 172.949219 267.953125 173.375 C 267.953125 173.796875 268.296875 174.140625 268.71875 174.140625 L 273.832031 174.140625 C 274.253906 174.140625 274.601562 173.796875 274.601562 173.375 Z M 273.972656 178.378906 C 273.972656 177.957031 273.625 177.613281 273.203125 177.613281 L 268.089844 177.613281 C 267.667969 177.613281 267.324219 177.957031 267.324219 178.378906 C 267.324219 178.804688 267.667969 179.144531 268.089844 179.144531 L 273.203125 179.144531 C 273.625 179.144531 273.972656 178.804688 273.972656 178.378906 Z M 280.242188 173.375 C 280.242188 173.796875 280.589844 174.140625 281.011719 174.140625 L 288.746094 174.140625 C 289.167969 174.140625 289.511719 173.796875 289.511719 173.375 C 289.511719 172.949219 289.167969 172.605469 288.746094 172.605469 L 281.011719 172.605469 C 280.589844 172.605469 280.242188 172.949219 280.242188 173.375 Z M 280.871094 168.363281 C 280.871094 168.789062 281.21875 169.128906 281.640625 169.128906 L 296.703125 169.128906 C 297.125 169.128906 297.46875 168.789062 297.46875 168.363281 C 297.46875 167.941406 297.125 167.597656 296.703125 167.597656 L 281.640625 167.597656 C 281.21875 167.597656 280.871094 167.941406 280.871094 168.363281 Z M 281.5 163.359375 C 281.5 163.78125 281.847656 164.125 282.269531 164.125 L 288.730469 164.125 C 289.15625 164.125 289.496094 163.78125 289.496094 163.359375 C 289.496094 162.933594 289.15625 162.589844 288.730469 162.589844 L 282.269531 162.589844 C 281.847656 162.589844 281.5 162.933594 281.5 163.359375 Z M 282.761719 153.339844 C 282.761719 153.765625 283.105469 154.109375 283.53125 154.109375 L 292.847656 154.109375 C 293.273438 154.109375 293.617188 153.765625 293.617188 153.339844 C 293.617188 152.917969 293.273438 152.574219 292.847656 152.574219 L 283.53125 152.574219 C 283.105469 152.574219 282.761719 152.917969 282.761719 153.339844 Z M 283.390625 148.332031 C 283.390625 148.753906 283.738281 149.097656 284.160156 149.097656 L 291.894531 149.097656 C 292.316406 149.097656 292.660156 148.753906 292.660156 148.332031 C 292.660156 147.910156 292.316406 147.566406 291.894531 147.566406 L 284.160156 147.566406 C 283.738281 147.566406 283.390625 147.910156 283.390625 148.332031 Z M 284.019531 143.324219 C 284.019531 143.746094 284.367188 144.09375 284.789062 144.09375 L 299.851562 144.09375 C 300.273438 144.09375 300.617188 143.746094 300.617188 143.324219 C 300.617188 142.902344 300.273438 142.558594 299.851562 142.558594 L 284.789062 142.558594 C 284.367188 142.558594 284.019531 142.902344 284.019531 143.324219 Z M 284.648438 138.316406 C 284.648438 138.738281 284.996094 139.082031 285.417969 139.082031 L 291.878906 139.082031 C 292.304688 139.082031 292.644531 138.738281 292.644531 138.316406 C 292.644531 137.894531 292.304688 137.550781 291.878906 137.550781 L 285.417969 137.550781 C 284.996094 137.550781 284.648438 137.894531 284.648438 138.316406 Z M 285.28125 133.308594 C 285.28125 133.730469 285.625 134.074219 286.046875 134.074219 L 304.6875 134.074219 C 305.113281 134.074219 305.457031 133.730469 305.457031 133.308594 C 305.457031 132.882812 305.113281 132.539062 304.6875 132.539062 L 286.046875 132.539062 C 285.625 132.539062 285.28125 132.882812 285.28125 133.308594 Z M 308.257812 139.082031 C 308.683594 139.082031 309.023438 138.738281 309.023438 138.316406 C 309.023438 137.894531 308.683594 137.550781 308.257812 137.550781 L 295.335938 137.550781 C 294.914062 137.550781 294.566406 137.894531 294.566406 138.316406 C 294.566406 138.738281 294.914062 139.082031 295.335938 139.082031 Z M 302.148438 148.332031 C 302.148438 147.910156 301.804688 147.566406 301.382812 147.566406 L 296.261719 147.566406 C 295.835938 147.566406 295.492188 147.910156 295.492188 148.332031 C 295.492188 148.753906 295.835938 149.097656 296.261719 149.097656 L 301.382812 149.097656 C 301.804688 149.097656 302.148438 148.753906 302.148438 148.332031 Z M 305.109375 162.589844 L 292.1875 162.589844 C 291.765625 162.589844 291.417969 162.933594 291.417969 163.359375 C 291.417969 163.78125 291.765625 164.125 292.1875 164.125 L 305.109375 164.125 C 305.535156 164.125 305.875 163.78125 305.875 163.359375 C 305.875 162.933594 305.535156 162.589844 305.109375 162.589844 Z M 309.558594 154.109375 C 309.980469 154.109375 310.328125 153.765625 310.328125 153.339844 C 310.328125 152.917969 309.980469 152.574219 309.558594 152.574219 L 296.199219 152.574219 C 295.777344 152.574219 295.433594 152.917969 295.433594 153.339844 C 295.433594 153.765625 295.777344 154.109375 296.199219 154.109375 Z M 325.382812 184.871094 C 325.117188 186.988281 323.1875 188.703125 321.066406 188.703125 L 265.003906 188.703125 C 262.886719 188.703125 261.382812 186.988281 261.652344 184.871094 L 269.058594 125.96875 C 269.324219 123.851562 271.257812 122.136719 273.371094 122.136719 L 329.4375 122.136719 C 331.554688 122.136719 333.054688 123.851562 332.792969 125.96875 Z M 124.953125 145.710938 L 124.242188 139.832031 C 123.554688 134.121094 125.238281 128.726562 128.46875 124.558594 L 97.058594 124.558594 L 97.058594 145.625 C 97.058594 145.65625 97.050781 145.683594 97.050781 145.710938 Z M 90.621094 123.855469 L 83.023438 123.855469 L 83.023438 142.222656 L 90.621094 142.222656 Z M 79.167969 124.558594 L 79.167969 121.554688 L 71.574219 121.554688 L 71.574219 142.222656 L 79.167969 142.222656 Z M 67.71875 126.613281 L 60.121094 126.613281 L 60.121094 142.222656 L 67.71875 142.222656 Z M 56.265625 135.839844 L 48.671875 135.839844 L 48.671875 142.222656 L 56.265625 142.222656 Z M 44.816406 132.589844 L 37.21875 132.589844 L 37.21875 142.222656 L 44.816406 142.222656 Z M 122.4375 168.394531 L 6.808594 168.394531 C 6.792969 168.140625 6.769531 167.882812 6.753906 167.628906 L 122.652344 167.628906 L 124.753906 160.222656 C 125.660156 157.03125 125.917969 153.695312 125.519531 150.402344 L 125.046875 146.480469 L 96.953125 146.480469 C 96.5625 148.183594 95.046875 149.457031 93.222656 149.457031 L 36.625 149.457031 C 34.800781 149.457031 33.28125 148.183594 32.894531 146.480469 L 7.035156 146.480469 C 7.058594 146.222656 7.085938 145.964844 7.113281 145.710938 L 32.800781 145.710938 C 32.800781 145.683594 32.792969 145.65625 32.792969 145.625 L 32.792969 124.558594 L 11.121094 124.558594 C 11.191406 124.304688 11.273438 124.050781 11.347656 123.792969 L 32.792969 123.792969 L 32.792969 115.945312 C 32.792969 113.828125 34.507812 112.113281 36.625 112.113281 L 93.222656 112.113281 C 95.339844 112.113281 97.058594 113.828125 97.058594 115.945312 L 97.058594 123.792969 L 129.09375 123.792969 C 132.898438 119.34375 138.550781 116.480469 144.945312 116.480469 C 151.257812 116.480469 156.964844 119.300781 160.808594 123.792969 L 180.996094 123.792969 L 180.914062 124.558594 L 161.433594 124.558594 C 163.75 127.546875 165.277344 131.1875 165.691406 135.191406 L 165.898438 137.21875 L 170.265625 145.710938 L 178.566406 145.710938 L 178.480469 146.480469 L 170.546875 146.480469 C 170.566406 146.964844 170.261719 147.433594 169.757812 147.582031 L 168.042969 148.082031 C 167.542969 148.226562 167.21875 148.699219 167.257812 149.21875 C 167.519531 152.628906 168.285156 164.792969 165.898438 166.078125 C 163.121094 167.574219 149.847656 164.890625 149.847656 164.890625 C 149.59375 165.792969 149.386719 166.707031 149.214844 167.628906 L 176.132812 167.628906 L 176.050781 168.394531 L 149.082031 168.394531 C 148.613281 171.238281 148.496094 174.128906 148.742188 176.996094 C 145.765625 175.980469 141.792969 174.425781 135.609375 173.167969 C 129.683594 171.964844 123.972656 173.324219 120.730469 174.402344 Z M 105.046875 230.117188 C 104.105469 224.164062 102.859375 218.019531 101.304688 212.226562 L 101.308594 212.226562 C 101.28125 212.125 101.253906 212.027344 101.226562 211.929688 C 100.671875 209.878906 100.078125 207.875 99.441406 205.941406 C 97.320312 199.488281 99.339844 192.925781 103.734375 188.6875 C 103.523438 188.78125 103.308594 188.867188 103.097656 188.96875 C 102.738281 189.148438 102.394531 189.34375 102.058594 189.542969 L 9.730469 189.542969 C 9.785156 189.800781 9.835938 190.054688 9.886719 190.308594 L 100.878906 190.308594 C 94.246094 195.066406 92.105469 204.179688 96.207031 211.460938 L 15.765625 211.460938 C 15.851562 211.714844 15.933594 211.972656 16.023438 212.226562 L 96.636719 212.226562 Z M 176.960938 343.449219 C 180.089844 343.449219 183.226562 343.277344 186.367188 342.957031 L 166.308594 342.957031 C 169.847656 343.273438 173.398438 343.449219 176.960938 343.449219 Z M 133.984375 321.066406 C 133.242188 321.066406 132.519531 321.058594 131.804688 321.042969 L 103.0625 321.042969 C 103.488281 321.300781 103.910156 321.550781 104.335938 321.808594 L 242.226562 321.808594 C 242.621094 321.554688 243.011719 321.296875 243.40625 321.042969 L 134.921875 321.042969 C 134.605469 321.046875 134.304688 321.066406 133.984375 321.066406 Z M 103.542969 299.125 L 73.992188 299.125 C 74.273438 299.382812 74.558594 299.636719 74.839844 299.890625 L 103.589844 299.890625 C 103.574219 299.636719 103.558594 299.382812 103.542969 299.125 Z M 168.324219 299.890625 L 270.371094 299.890625 C 270.644531 299.636719 270.921875 299.382812 271.199219 299.125 L 168.59375 299.125 C 168.507812 299.375 168.417969 299.628906 168.324219 299.890625 Z M 104.148438 277.210938 L 53.085938 277.210938 C 53.300781 277.46875 53.519531 277.71875 53.734375 277.976562 L 104.070312 277.976562 C 104.09375 277.71875 104.121094 277.464844 104.148438 277.210938 Z M 107.332031 255.292969 L 37.097656 255.292969 C 37.265625 255.550781 37.429688 255.804688 37.59375 256.058594 L 107.332031 256.058594 C 107.332031 255.808594 107.332031 255.554688 107.332031 255.292969 Z M 225.492188 266.285156 C 227.289062 266.578125 229.054688 266.855469 230.765625 267.117188 L 230.570312 266.8125 L 226.019531 265.847656 Z M 265.574219 277.210938 L 277.117188 277.210938 L 273.464844 274.664062 L 266.933594 276.15625 Z M 177.027344 233.375 L 323.285156 233.375 C 323.136719 233.628906 322.988281 233.886719 322.839844 234.144531 L 177.417969 234.144531 C 182.273438 243.550781 186.730469 251.371094 189.417969 255.292969 L 309.210938 255.292969 C 309.03125 255.550781 308.851562 255.804688 308.671875 256.058594 L 189.957031 256.058594 C 190.652344 257.027344 191.203125 257.664062 191.558594 257.898438 C 194.40625 259.796875 201.449219 261.703125 209.675781 263.410156 L 222.722656 258.484375 C 224.054688 257.984375 225.546875 258.15625 226.730469 258.949219 L 233.175781 263.253906 L 235.867188 267.875 C 240.898438 268.605469 245.035156 269.148438 247.339844 269.441406 L 254.484375 269.171875 L 269.804688 263.882812 C 271.179688 263.410156 272.703125 263.625 273.886719 264.46875 L 280.34375 269.050781 L 284.789062 277.210938 L 292.191406 277.210938 C 291.972656 277.464844 291.753906 277.722656 291.535156 277.976562 L 285.203125 277.976562 L 285.355469 278.25 C 285.636719 278.777344 285.421875 279.429688 284.878906 279.679688 C 283.800781 279.605469 282.5625 279.066406 281.554688 278.316406 L 281.816406 280.078125 C 281.9375 280.882812 281.277344 281.597656 280.464844 281.535156 C 279.199219 281.445312 278.15625 280.507812 277.9375 279.253906 L 277.710938 277.976562 L 264.582031 277.976562 L 261.445312 280.40625 C 259.964844 281.546875 258.242188 282.308594 256.425781 282.640625 C 255.242188 282.855469 254.023438 282.820312 252.828125 282.660156 L 245.582031 281.660156 L 191.644531 281.277344 C 185.132812 281.003906 180.335938 279.765625 176.6875 277.976562 L 162.929688 277.976562 C 162.890625 277.851562 162.855469 277.730469 162.820312 277.605469 L 162.816406 277.605469 C 162.785156 277.503906 162.757812 277.402344 162.726562 277.296875 C 162.71875 277.269531 162.710938 277.238281 162.699219 277.210938 L 162.703125 277.210938 C 161.550781 273.300781 160.71875 269.246094 160.71875 265.664062 C 160.71875 263.625 161.023438 261.472656 161.515625 259.246094 C 161.640625 259.269531 161.769531 259.292969 161.898438 259.320312 L 153.808594 243.707031 C 153.382812 243.796875 152.945312 243.84375 152.503906 243.84375 C 148.476562 243.84375 144.507812 240.070312 141.523438 234.144531 L 25.207031 234.144531 C 25.085938 233.886719 24.957031 233.632812 24.828125 233.375 L 141.148438 233.375 C 138.957031 228.757812 137.351562 222.953125 136.734375 216.636719 C 136.238281 211.574219 136.445312 206.835938 137.210938 202.777344 C 137.148438 197.46875 138.582031 192.832031 142.539062 190.988281 C 142.859375 190.839844 143.179688 190.722656 143.496094 190.597656 C 144.628906 189.84375 145.863281 189.433594 147.1875 189.433594 C 147.726562 189.433594 148.261719 189.507812 148.796875 189.636719 C 154.105469 189.753906 158.832031 193.144531 161.066406 198.769531 C 165.542969 210.023438 171.515625 222.667969 177.019531 233.375 Z M 171.1875 212.226562 L 171.273438 211.460938 L 168.207031 211.460938 C 168.292969 211.714844 168.378906 211.972656 168.464844 212.226562 Z M 173.707031 189.542969 L 158.6875 189.542969 C 158.773438 189.703125 158.863281 189.855469 158.945312 190.015625 C 158.992188 190.113281 159.042969 190.214844 159.089844 190.308594 L 173.621094 190.308594 Z M 353.617188 101.878906 L 20.410156 101.878906 C 20.273438 102.132812 20.140625 102.390625 20.003906 102.644531 L 353.800781 102.644531 C 353.738281 102.390625 353.679688 102.132812 353.617188 101.878906 " fill-opacity="1" fill-rule="nonzero"/></g><g clip-path="url(#b0a68e8b9c)"><path fill="#14110f" d="M 270.144531 257.65625 L 248.546875 257.722656 L 237.746094 257.757812 L 226.949219 257.867188 L 226.949219 258.214844 L 237.746094 258.320312 L 248.546875 258.355469 L 270.144531 258.421875 L 291.742188 258.339844 L 302.542969 258.296875 L 313.34375 258.1875 L 313.34375 257.894531 L 302.542969 257.78125 L 291.742188 257.738281 Z M 261.089844 87.929688 L 253.285156 87.929688 L 253.285156 88.695312 L 261.089844 88.695312 Z M 265.152344 86.136719 L 265.152344 85.371094 L 260.1875 85.371094 L 260.1875 86.136719 Z M 258.25 85.371094 L 253.285156 85.371094 L 253.285156 86.136719 L 258.25 86.136719 Z M 265.152344 82.816406 L 253.285156 82.816406 L 253.285156 83.582031 L 265.152344 83.582031 Z M 270.480469 29.445312 C 271.589844 29.445312 272.488281 28.546875 272.488281 27.4375 C 272.488281 26.332031 271.589844 25.433594 270.480469 25.433594 C 269.375 25.433594 268.476562 26.332031 268.476562 27.4375 C 268.476562 28.546875 269.375 29.445312 270.480469 29.445312 Z M 161.472656 29.445312 C 162.582031 29.445312 163.480469 28.546875 163.480469 27.4375 C 163.480469 26.332031 162.582031 25.433594 161.472656 25.433594 C 160.363281 25.433594 159.464844 26.332031 159.464844 27.4375 C 159.464844 28.546875 160.363281 29.445312 161.472656 29.445312 Z M 83.113281 89.589844 L 75.308594 89.589844 L 75.308594 90.355469 L 83.113281 90.355469 Z M 87.179688 87.800781 L 87.179688 87.03125 L 82.210938 87.03125 L 82.210938 87.800781 Z M 80.277344 87.03125 L 75.308594 87.03125 L 75.308594 87.800781 L 80.277344 87.800781 Z M 87.179688 84.480469 L 75.308594 84.480469 L 75.308594 85.246094 L 87.179688 85.246094 Z M 54.902344 29.445312 C 56.007812 29.445312 56.90625 28.546875 56.90625 27.4375 C 56.90625 26.332031 56.007812 25.433594 54.902344 25.433594 C 53.792969 25.433594 52.894531 26.332031 52.894531 27.4375 C 52.894531 28.546875 53.792969 29.445312 54.902344 29.445312 Z M 40.632812 145.902344 L 41.402344 145.902344 L 41.402344 145.085938 L 52.085938 145.085938 L 52.085938 145.902344 L 52.851562 145.902344 L 52.851562 145.085938 L 63.535156 145.085938 L 63.535156 145.902344 L 64.304688 145.902344 L 64.304688 145.085938 L 74.988281 145.085938 L 74.988281 145.902344 L 75.753906 145.902344 L 75.753906 145.085938 L 86.441406 145.085938 L 86.441406 145.902344 L 87.207031 145.902344 L 87.207031 145.085938 L 90.695312 145.085938 L 90.695312 144.320312 L 87.207031 144.320312 L 87.207031 143.503906 L 86.441406 143.503906 L 86.441406 144.320312 L 75.753906 144.320312 L 75.753906 143.503906 L 74.988281 143.503906 L 74.988281 144.320312 L 64.304688 144.320312 L 64.304688 143.503906 L 63.535156 143.503906 L 63.535156 144.320312 L 52.851562 144.320312 L 52.851562 143.503906 L 52.085938 143.503906 L 52.085938 144.320312 L 41.402344 144.320312 L 41.402344 143.503906 L 40.632812 143.503906 L 40.632812 144.320312 L 37.21875 144.320312 L 37.21875 145.085938 L 40.632812 145.085938 Z M 289.585938 116.480469 C 289.585938 116.058594 289.242188 115.714844 288.820312 115.714844 L 189.75 115.714844 C 189.324219 115.714844 188.980469 116.058594 188.980469 116.480469 C 188.980469 116.90625 189.324219 117.25 189.75 117.25 L 288.820312 117.25 C 289.242188 117.25 289.585938 116.90625 289.585938 116.480469 Z M 267.183594 225.5 L 262.070312 225.5 C 261.644531 225.5 261.304688 225.84375 261.304688 226.269531 C 261.304688 226.691406 261.644531 227.035156 262.070312 227.035156 L 267.183594 227.035156 C 267.605469 227.035156 267.949219 226.691406 267.949219 226.269531 C 267.949219 225.84375 267.605469 225.5 267.183594 225.5 Z M 268.578125 221.261719 C 268.578125 220.835938 268.234375 220.496094 267.8125 220.496094 L 262.699219 220.496094 C 262.277344 220.496094 261.933594 220.835938 261.933594 221.261719 C 261.933594 221.683594 262.277344 222.027344 262.699219 222.027344 L 267.8125 222.027344 C 268.234375 222.027344 268.578125 221.683594 268.578125 221.261719 Z M 269.835938 211.242188 C 269.835938 210.820312 269.496094 210.476562 269.070312 210.476562 L 263.957031 210.476562 C 263.535156 210.476562 263.191406 210.820312 263.191406 211.242188 C 263.191406 211.667969 263.535156 212.007812 263.957031 212.007812 L 269.070312 212.007812 C 269.496094 212.007812 269.835938 211.667969 269.835938 211.242188 Z M 270.464844 206.234375 C 270.464844 205.8125 270.125 205.46875 269.699219 205.46875 L 264.589844 205.46875 C 264.164062 205.46875 263.824219 205.8125 263.824219 206.234375 C 263.824219 206.65625 264.164062 207.003906 264.589844 207.003906 L 269.699219 207.003906 C 270.125 207.003906 270.464844 206.65625 270.464844 206.234375 Z M 271.097656 201.230469 C 271.097656 200.804688 270.753906 200.460938 270.332031 200.460938 L 265.21875 200.460938 C 264.796875 200.460938 264.453125 200.804688 264.453125 201.230469 C 264.453125 201.652344 264.796875 201.996094 265.21875 201.996094 L 270.332031 201.996094 C 270.753906 201.996094 271.097656 201.652344 271.097656 201.230469 Z M 198.390625 198.269531 C 198.3125 198.894531 198.757812 199.402344 199.382812 199.402344 C 200.007812 199.402344 200.582031 198.894531 200.660156 198.269531 C 200.738281 197.640625 200.296875 197.132812 199.667969 197.132812 C 199.039062 197.132812 198.472656 197.640625 198.390625 198.269531 Z M 207.640625 127.722656 C 207.5625 128.347656 208.007812 128.855469 208.632812 128.855469 C 209.257812 128.855469 209.832031 128.347656 209.90625 127.722656 C 209.984375 127.097656 209.542969 126.585938 208.917969 126.585938 C 208.289062 126.585938 207.71875 127.097656 207.640625 127.722656 Z M 218.988281 154.652344 C 218.566406 154.652344 218.222656 154.996094 218.222656 155.417969 C 218.222656 155.84375 218.566406 156.1875 218.988281 156.1875 L 228.386719 156.1875 C 228.808594 156.1875 229.152344 155.84375 229.152344 155.417969 C 229.152344 154.996094 228.808594 154.652344 228.386719 154.652344 Z M 273.972656 178.378906 C 273.972656 177.957031 273.625 177.613281 273.203125 177.613281 L 268.089844 177.613281 C 267.667969 177.613281 267.324219 177.957031 267.324219 178.378906 C 267.324219 178.804688 267.667969 179.144531 268.089844 179.144531 L 273.203125 179.144531 C 273.625 179.144531 273.972656 178.804688 273.972656 178.378906 Z M 274.601562 173.375 C 274.601562 172.949219 274.253906 172.605469 273.832031 172.605469 L 268.71875 172.605469 C 268.296875 172.605469 267.953125 172.949219 267.953125 173.375 C 267.953125 173.796875 268.296875 174.140625 268.71875 174.140625 L 273.832031 174.140625 C 274.253906 174.140625 274.601562 173.796875 274.601562 173.375 Z M 275.230469 168.363281 C 275.230469 167.941406 274.886719 167.597656 274.460938 167.597656 L 269.347656 167.597656 C 268.925781 167.597656 268.582031 167.941406 268.582031 168.363281 C 268.582031 168.789062 268.925781 169.128906 269.347656 169.128906 L 274.460938 169.128906 C 274.886719 169.128906 275.230469 168.789062 275.230469 168.363281 Z M 275.859375 163.359375 C 275.859375 162.933594 275.515625 162.589844 275.089844 162.589844 L 269.980469 162.589844 C 269.554688 162.589844 269.214844 162.933594 269.214844 163.359375 C 269.214844 163.78125 269.554688 164.125 269.980469 164.125 L 275.089844 164.125 C 275.515625 164.125 275.859375 163.78125 275.859375 163.359375 Z M 277.121094 153.339844 C 277.121094 152.917969 276.773438 152.574219 276.351562 152.574219 L 271.238281 152.574219 C 270.816406 152.574219 270.472656 152.917969 270.472656 153.339844 C 270.472656 153.765625 270.816406 154.109375 271.238281 154.109375 L 276.351562 154.109375 C 276.773438 154.109375 277.121094 153.765625 277.121094 153.339844 Z M 277.75 148.332031 C 277.75 147.910156 277.402344 147.566406 276.980469 147.566406 L 271.867188 147.566406 C 271.445312 147.566406 271.101562 147.910156 271.101562 148.332031 C 271.101562 148.753906 271.445312 149.097656 271.867188 149.097656 L 276.980469 149.097656 C 277.402344 149.097656 277.75 148.753906 277.75 148.332031 Z M 278.378906 143.324219 C 278.378906 142.902344 278.035156 142.558594 277.609375 142.558594 L 272.5 142.558594 C 272.074219 142.558594 271.734375 142.902344 271.734375 143.324219 C 271.734375 143.746094 272.074219 144.09375 272.5 144.09375 L 277.609375 144.09375 C 278.035156 144.09375 278.378906 143.746094 278.378906 143.324219 Z M 279.007812 138.316406 C 279.007812 137.894531 278.664062 137.550781 278.238281 137.550781 L 273.128906 137.550781 C 272.703125 137.550781 272.363281 137.894531 272.363281 138.316406 C 272.363281 138.738281 272.703125 139.082031 273.128906 139.082031 L 278.238281 139.082031 C 278.664062 139.082031 279.007812 138.738281 279.007812 138.316406 Z M 279.636719 133.308594 C 279.636719 132.882812 279.292969 132.539062 278.867188 132.539062 L 273.757812 132.539062 C 273.335938 132.539062 272.992188 132.882812 272.992188 133.308594 C 272.992188 133.730469 273.335938 134.074219 273.757812 134.074219 L 278.867188 134.074219 C 279.292969 134.074219 279.636719 133.730469 279.636719 133.308594 Z M 162.144531 136.902344 L 165.75 136.722656 C 165.925781 134.621094 166.535156 132.683594 167.527344 132.191406 C 166.46875 132.082031 165.4375 132.113281 164.652344 132.457031 C 164.601562 129.796875 163.550781 128.382812 162.890625 126.710938 C 162.878906 128.621094 163.402344 128.035156 163.199219 130.59375 C 163.089844 132.011719 163.378906 133.46875 163.042969 134.851562 C 162.871094 135.585938 162.53125 136.253906 162.144531 136.902344 Z M 166.519531 136.683594 L 169.523438 136.535156 C 169.296875 134.242188 168.5625 132.839844 168.027344 132.839844 C 167.484375 132.839844 166.730469 134.304688 166.519531 136.683594 Z M 169.582031 137.296875 L 166.46875 137.453125 C 166.460938 137.632812 166.460938 137.816406 166.460938 138.003906 C 166.460938 141.15625 167.386719 143.171875 168.027344 143.171875 C 168.667969 143.171875 169.597656 141.15625 169.597656 138.003906 C 169.597656 137.761719 169.589844 137.527344 169.582031 137.296875 Z M 97.273438 168.109375 C 96.441406 162.628906 98.039062 156.828125 101.566406 152.550781 C 102.859375 150.980469 104.453125 149.492188 104.851562 147.503906 C 105.261719 145.449219 104.285156 143.40625 103.839844 141.363281 C 102.992188 137.457031 104.199219 133.164062 106.960938 130.273438 C 109.078125 128.058594 112.011719 126.652344 113.800781 124.160156 C 115.300781 122.070312 115.828125 119.46875 116.855469 117.113281 C 119.738281 110.515625 127.035156 106.121094 134.214844 106.65625 C 136.214844 104.167969 140.078125 103.003906 143.21875 103.558594 C 146.355469 104.113281 149.148438 105.894531 151.589844 107.941406 C 159.273438 106.765625 168.929688 114.09375 171.613281 133.101562 C 170.894531 132.886719 169.886719 132.601562 168.824219 132.390625 C 169.828125 133.242188 170.367188 135.683594 170.367188 138.003906 C 170.367188 140.878906 169.542969 143.9375 168.027344 143.9375 C 166.511719 143.9375 165.691406 140.878906 165.691406 138.003906 C 165.691406 137.835938 165.695312 137.664062 165.703125 137.492188 L 163.964844 137.578125 C 164.296875 137.757812 164.546875 138.410156 164.546875 139.199219 C 164.546875 140.121094 164.203125 140.871094 163.785156 140.871094 C 163.363281 140.871094 163.023438 140.121094 163.023438 139.199219 C 163.023438 138.4375 163.257812 137.796875 163.574219 137.597656 L 161.652344 137.695312 C 161.195312 138.410156 160.734375 139.125 160.421875 139.910156 C 159 143.503906 161.015625 147.582031 160.449219 151.414062 C 160.09375 153.816406 158.75 155.945312 158.019531 158.265625 C 156.992188 161.550781 157.714844 166.101562 159.226562 169.195312 L 148.589844 169.195312 C 147.921875 166.691406 147.066406 164.417969 146.972656 161.828125 C 146.265625 164.539062 145.953125 167.007812 145.714844 169.800781 C 144.40625 166.269531 143.542969 162.832031 143.453125 159.066406 C 143.082031 162.078125 142.953125 165.09375 142.578125 168.109375 Z M 169.183594 271.558594 C 170.359375 273.039062 171.652344 274.4375 173.0625 275.710938 C 174.46875 276.984375 176.03125 278.117188 177.753906 278.984375 C 178.617188 279.402344 179.53125 279.738281 180.472656 279.972656 C 181.433594 280.183594 182.359375 280.285156 183.289062 280.417969 C 185.160156 280.652344 187.027344 280.886719 188.902344 281.054688 C 192.648438 281.410156 196.40625 281.644531 200.171875 281.714844 C 200.261719 281.714844 200.34375 281.640625 200.347656 281.546875 C 200.351562 281.453125 200.277344 281.371094 200.183594 281.367188 C 198.308594 281.261719 196.4375 281.109375 194.570312 280.9375 C 192.703125 280.777344 190.835938 280.59375 188.972656 280.378906 C 187.109375 280.160156 185.246094 279.945312 183.390625 279.6875 C 182.464844 279.554688 181.519531 279.441406 180.648438 279.242188 C 179.769531 279.015625 178.910156 278.695312 178.085938 278.296875 C 174.785156 276.660156 172.070312 273.988281 169.683594 271.148438 C 168.484375 269.722656 167.371094 268.214844 166.332031 266.664062 C 165.277344 265.117188 164.28125 263.527344 163.390625 261.882812 L 163.390625 261.878906 C 163.351562 261.808594 163.265625 261.78125 163.195312 261.820312 C 163.121094 261.855469 163.09375 261.941406 163.128906 262.011719 C 164.804688 265.394531 166.820312 268.601562 169.183594 271.558594 Z M 143.515625 225.226562 C 143.09375 224.972656 142.699219 224.675781 142.324219 224.355469 C 141.949219 224.027344 141.601562 223.660156 141.257812 223.273438 C 141.21875 223.226562 141.152344 223.210938 141.089844 223.234375 C 141.015625 223.265625 140.976562 223.351562 141.007812 223.425781 C 141.40625 224.433594 142.183594 225.292969 143.109375 225.875 C 143.578125 226.164062 144.070312 226.402344 144.585938 226.5625 C 145.019531 226.703125 145.460938 226.792969 145.90625 226.851562 C 147.382812 230.214844 148.917969 233.554688 150.460938 236.886719 C 152.222656 240.59375 153.996094 244.292969 155.816406 247.96875 C 157.640625 251.648438 159.5 255.304688 161.449219 258.921875 C 161.488281 259.003906 161.59375 259.039062 161.675781 258.996094 C 161.761719 258.953125 161.796875 258.847656 161.757812 258.761719 C 160.847656 256.921875 159.964844 255.074219 159.085938 253.222656 L 156.429688 247.675781 L 151.152344 236.558594 C 149.390625 232.859375 147.671875 229.132812 145.972656 225.40625 C 145.121094 223.539062 144.292969 221.664062 143.488281 219.785156 C 142.691406 217.902344 141.871094 216.015625 141.273438 214.070312 L 141.269531 214.058594 C 141.25 213.984375 141.167969 213.941406 141.089844 213.964844 C 141.011719 213.984375 140.96875 214.066406 140.992188 214.144531 C 142.128906 218.117188 143.773438 221.890625 145.378906 225.664062 C 145.472656 225.875 145.570312 226.085938 145.664062 226.292969 C 145.382812 226.175781 145.101562 226.058594 144.835938 225.933594 C 144.378906 225.714844 143.933594 225.488281 143.515625 225.226562 Z M 163.644531 152.441406 C 163.933594 152.625 164.261719 152.742188 164.59375 152.824219 C 164.929688 152.890625 165.265625 152.921875 165.601562 152.890625 C 165.769531 152.878906 165.933594 152.84375 166.097656 152.820312 C 166.257812 152.773438 166.417969 152.730469 166.570312 152.667969 C 166.617188 152.648438 166.652344 152.601562 166.664062 152.550781 C 166.675781 152.46875 166.617188 152.390625 166.535156 152.378906 C 165.902344 152.277344 165.324219 152.210938 164.765625 152.078125 C 164.484375 152.011719 164.214844 151.925781 163.941406 151.832031 C 163.675781 151.738281 163.402344 151.609375 163.152344 151.488281 L 163.121094 151.46875 C 163.070312 151.445312 163.007812 151.445312 162.953125 151.480469 C 162.871094 151.527344 162.84375 151.636719 162.890625 151.714844 C 163.082031 152.042969 163.351562 152.253906 163.644531 152.441406 Z M 322.308594 282.554688 L 309.03125 262.597656 L 309.03125 262.421875 L 299.425781 262.316406 L 289.824219 262.28125 L 270.613281 262.214844 L 251.402344 262.296875 L 241.800781 262.339844 L 232.195312 262.449219 L 232.195312 262.742188 L 232.417969 262.746094 L 233.175781 263.253906 L 235.71875 267.625 L 231.242188 266.988281 C 231.269531 266.976562 231.296875 266.964844 231.324219 266.949219 C 231.5 266.863281 231.644531 266.734375 231.777344 266.589844 C 231.902344 266.441406 232.011719 266.28125 232.078125 266.097656 C 232.144531 265.914062 232.1875 265.722656 232.167969 265.519531 C 232.160156 265.484375 232.144531 265.445312 232.121094 265.414062 C 232.054688 265.335938 231.929688 265.324219 231.847656 265.394531 L 231.839844 265.398438 C 231.699219 265.519531 231.597656 265.640625 231.488281 265.753906 C 231.382812 265.863281 231.292969 265.980469 231.195312 266.09375 C 231.105469 266.210938 231.003906 266.324219 230.914062 266.449219 C 230.820312 266.578125 230.71875 266.703125 230.625 266.859375 L 230.617188 266.867188 C 230.617188 266.875 230.617188 266.875 230.617188 266.882812 L 230.570312 266.8125 L 226.15625 265.878906 C 226.183594 265.769531 226.210938 265.667969 226.234375 265.5625 C 226.3125 265.195312 226.332031 264.820312 226.335938 264.445312 C 226.324219 264.066406 226.296875 263.691406 226.210938 263.328125 C 226.132812 262.960938 226.027344 262.601562 225.851562 262.265625 C 225.824219 262.207031 225.761719 262.167969 225.695312 262.167969 C 225.597656 262.167969 225.515625 262.246094 225.515625 262.347656 C 225.507812 262.710938 225.527344 263.0625 225.539062 263.410156 L 225.566406 264.457031 L 225.589844 265.5 C 225.59375 265.726562 225.597656 265.957031 225.601562 266.183594 L 223.398438 265.871094 C 215.738281 264.722656 208.070312 263.558594 200.476562 262.0625 C 198.582031 261.683594 196.679688 261.300781 194.851562 260.761719 C 194.402344 260.621094 193.941406 260.472656 193.554688 260.273438 C 193.347656 260.160156 193.3125 260.136719 193.160156 259.890625 L 192.769531 259.304688 C 192.261719 258.484375 191.753906 257.660156 191.261719 256.828125 C 189.277344 253.503906 187.335938 250.148438 185.398438 246.792969 L 178.539062 234.886719 L 260.457031 234.886719 L 264.96875 252.132812 L 297.472656 252.132812 L 292.964844 234.886719 L 342.324219 234.886719 C 347.140625 234.886719 351.183594 231.265625 351.714844 226.484375 L 363.589844 119.390625 C 364.210938 113.800781 359.832031 108.90625 354.199219 108.90625 L 187.878906 108.90625 C 183.0625 108.90625 179.019531 112.527344 178.488281 117.3125 L 168.085938 211.117188 C 169.070312 213.988281 169.878906 216.789062 170.398438 219.359375 L 181.675781 117.664062 C 182.027344 114.5 184.691406 112.113281 187.878906 112.113281 L 354.199219 112.113281 C 355.996094 112.113281 357.652344 112.851562 358.851562 114.191406 C 360.050781 115.53125 360.601562 117.25 360.402344 119.039062 L 348.527344 226.128906 C 348.175781 229.292969 345.507812 231.679688 342.324219 231.679688 L 267.1875 231.679688 C 267.265625 231.5625 267.320312 231.425781 267.320312 231.277344 C 267.320312 230.851562 266.976562 230.511719 266.550781 230.511719 L 261.441406 230.511719 C 261.015625 230.511719 260.675781 230.851562 260.675781 231.277344 C 260.675781 231.425781 260.726562 231.5625 260.804688 231.679688 L 176.691406 231.679688 L 173.789062 226.644531 C 173.75 226.578125 173.664062 226.550781 173.589844 226.589844 C 173.523438 226.628906 173.496094 226.71875 173.535156 226.792969 L 176.238281 231.679688 L 176.152344 231.679688 C 176.707031 232.769531 177.257812 233.835938 177.804688 234.886719 L 178.011719 234.886719 L 179.160156 236.964844 L 184.878906 247.09375 C 186.796875 250.460938 188.710938 253.832031 190.675781 257.175781 C 191.164062 258.011719 191.664062 258.84375 192.175781 259.679688 L 192.582031 260.300781 C 192.667969 260.414062 192.675781 260.488281 192.839844 260.640625 C 192.976562 260.777344 193.09375 260.832031 193.21875 260.902344 C 193.695312 261.152344 194.164062 261.300781 194.636719 261.453125 C 196.523438 262.023438 198.421875 262.417969 200.328125 262.808594 C 207.957031 264.277344 215.636719 265.390625 223.308594 266.496094 L 234.835938 268.078125 L 246.378906 269.492188 C 246.472656 269.503906 246.5625 269.4375 246.570312 269.34375 C 246.585938 269.246094 246.519531 269.160156 246.425781 269.148438 L 242.160156 268.542969 L 245.929688 262.871094 L 251.402344 262.898438 L 270.613281 262.976562 L 289.824219 262.910156 L 299.425781 262.878906 L 304.070312 262.824219 L 317.195312 282.554688 L 312.332031 282.554688 L 305.367188 274.671875 L 302.152344 276.785156 L 308.105469 282.554688 L 288.8125 282.554688 L 306.355469 271.425781 L 281.636719 271.425781 L 285.355469 278.25 C 285.636719 278.777344 285.421875 279.429688 284.878906 279.679688 C 283.878906 279.609375 282.742188 279.136719 281.777344 278.46875 C 281.777344 278.441406 281.785156 278.425781 281.777344 278.402344 C 281.363281 277.429688 281.355469 276.355469 281.222656 275.25 C 281.164062 274.695312 281.042969 274.125 280.824219 273.574219 C 280.605469 273.023438 280.292969 272.523438 279.933594 272.070312 C 279.1875 271.1875 278.289062 270.492188 277.378906 269.875 C 276.472656 269.25 275.566406 268.667969 274.75 267.953125 C 274.699219 267.90625 274.617188 267.902344 274.5625 267.953125 C 274.5 268.003906 274.488281 268.09375 274.539062 268.15625 C 275.246094 269.03125 276.144531 269.71875 276.996094 270.394531 C 277.851562 271.066406 278.699219 271.730469 279.339844 272.554688 C 279.664062 272.953125 279.949219 273.386719 280.144531 273.851562 C 280.347656 274.3125 280.445312 274.824219 280.550781 275.351562 C 280.710938 276.203125 280.808594 277.148438 281.179688 278.007812 C 280.710938 277.601562 280.304688 277.160156 280.023438 276.695312 L 277.582031 272.609375 L 273.238281 271.5625 C 273.226562 271.550781 273.222656 271.539062 273.214844 271.53125 C 273.175781 271.484375 273.113281 271.460938 273.050781 271.480469 C 273.035156 271.488281 273.03125 271.503906 273.019531 271.507812 L 272.960938 271.496094 L 266.851562 276.222656 C 266.855469 276.183594 266.863281 276.152344 266.867188 276.121094 C 266.902344 275.800781 266.882812 275.480469 266.832031 275.160156 C 266.777344 274.84375 266.695312 274.53125 266.5625 274.238281 C 266.433594 273.949219 266.273438 273.667969 266.054688 273.429688 C 266.011719 273.386719 265.949219 273.363281 265.890625 273.375 C 265.789062 273.390625 265.726562 273.484375 265.742188 273.582031 C 265.789062 273.886719 265.863281 274.167969 265.917969 274.449219 C 265.96875 274.734375 266.035156 275.007812 266.078125 275.289062 C 266.136719 275.570312 266.171875 275.851562 266.21875 276.132812 C 266.246094 276.300781 266.273438 276.476562 266.300781 276.648438 L 261.445312 280.40625 C 260.0625 281.46875 258.46875 282.1875 256.785156 282.554688 L 252.066406 282.554688 L 246.085938 281.726562 C 246.453125 281.402344 246.78125 281.019531 247.011719 280.570312 C 247.308594 280.023438 247.449219 279.378906 247.355469 278.773438 C 247.34375 278.699219 247.285156 278.636719 247.207031 278.625 C 247.109375 278.613281 247.023438 278.679688 247.007812 278.777344 C 246.929688 279.316406 246.738281 279.800781 246.441406 280.230469 C 246.316406 280.40625 246.171875 280.570312 246.019531 280.734375 C 246.011719 280.378906 245.96875 280.03125 245.882812 279.691406 C 245.722656 279.03125 245.449219 278.402344 245.035156 277.882812 C 244.996094 277.832031 244.925781 277.8125 244.867188 277.835938 C 244.789062 277.867188 244.753906 277.949219 244.78125 278.027344 C 245.003906 278.617188 245.164062 279.207031 245.234375 279.808594 C 245.300781 280.410156 245.300781 281.011719 245.207031 281.597656 C 245.203125 281.621094 245.210938 281.636719 245.210938 281.660156 L 204.019531 281.363281 L 202.214844 282.554688 L 164.484375 282.554688 C 164.578125 282.8125 164.675781 283.066406 164.769531 283.320312 L 363.652344 283.320312 L 363.652344 282.554688 Z M 50.714844 282.554688 L 50.714844 283.320312 L 136.464844 283.320312 C 141.660156 283.320312 143.15625 282.554688 143.15625 282.554688 C 143.832031 282.371094 144.480469 282.125 145.09375 281.828125 C 149.492188 279.675781 152.144531 274.664062 150.890625 269.503906 L 136.214844 209.152344 C 135.027344 204.277344 130.664062 200.847656 125.648438 200.847656 L 43.667969 200.847656 C 36.625 200.847656 31.441406 207.441406 33.101562 214.285156 L 47.777344 274.632812 C 48.730469 278.554688 51.742188 281.535156 55.492188 282.554688 Z M 169.761719 294.523438 C 169.761719 294.523438 169.742188 294.664062 169.699219 294.90625 L 169.703125 294.90625 C 169.167969 298.105469 164.285156 321.066406 133.984375 321.066406 C 122.894531 321.066406 114.875 319.234375 110.410156 317.855469 C 111.996094 326.921875 119.90625 333.8125 129.425781 333.8125 L 187.710938 333.8125 C 202.144531 333.8125 216.226562 327.804688 216.226562 327.804688 L 211.699219 354.617188 L 241.414062 354.617188 C 241.414062 354.617188 244.851562 327.804688 246.335938 309.8125 C 247.203125 299.28125 239.441406 295.898438 232.859375 294.90625 L 286.320312 294.90625 L 282.847656 324.78125 L 293.832031 326.601562 L 297.519531 294.90625 L 337.082031 294.90625 L 341.683594 334.527344 L 353.101562 336.414062 L 348.28125 294.90625 L 363.652344 294.90625 L 363.652344 294.140625 L 169.5625 294.140625 C 169.6875 294.386719 169.761719 294.523438 169.761719 294.523438 Z M 103.378906 294.140625 L 50.714844 294.140625 L 50.714844 294.90625 L 76.050781 294.90625 C 76.027344 295.019531 76.039062 295.140625 76.007812 295.253906 L 75.90625 296.027344 C 75.828125 296.539062 75.800781 297.0625 75.75 297.578125 L 75.660156 299.140625 L 75.621094 299.917969 L 75.597656 300.3125 C 75.609375 300.441406 75.511719 300.5625 75.761719 300.722656 C 76.042969 300.621094 75.972656 300.484375 76.015625 300.359375 L 76.085938 299.972656 L 76.222656 299.203125 L 76.496094 297.667969 C 76.5625 297.148438 76.65625 296.636719 76.703125 296.117188 L 76.78125 295.34375 C 76.769531 295.195312 76.832031 295.054688 76.804688 294.90625 L 103.390625 294.90625 C 103.386719 294.652344 103.382812 294.398438 103.378906 294.140625 Z M 233.648438 127.71875 C 233.648438 127.296875 233.300781 126.953125 232.878906 126.953125 L 221.460938 126.953125 C 221.039062 126.953125 220.695312 127.296875 220.695312 127.71875 C 220.695312 128.144531 221.039062 128.484375 221.460938 128.484375 L 232.878906 128.484375 C 233.300781 128.484375 233.648438 128.144531 233.648438 127.71875 Z M 203.34375 127.722656 C 203.265625 128.347656 203.710938 128.855469 204.335938 128.855469 C 204.960938 128.855469 205.535156 128.347656 205.613281 127.722656 C 205.695312 127.097656 205.25 126.585938 204.621094 126.585938 C 204 126.585938 203.425781 127.097656 203.34375 127.722656 Z M 200.042969 128.855469 C 199.417969 128.855469 198.972656 128.347656 199.050781 127.722656 C 199.128906 127.097656 199.703125 126.585938 200.328125 126.585938 C 200.953125 126.585938 201.398438 127.097656 201.320312 127.722656 C 201.242188 128.347656 200.671875 128.855469 200.042969 128.855469 " fill-opacity="1" fill-rule="nonzero"/></g><g clip-path="url(#98f551785c)"><path fill="#777b85" d="M 307.433594 252.132812 L 301.257812 252.132812 L 296.75 234.886719 L 292.964844 234.886719 L 297.472656 252.132812 L 232.855469 252.132812 C 229.59375 252.132812 226.949219 254.777344 226.949219 258.039062 L 313.34375 258.039062 C 313.34375 254.777344 310.699219 252.132812 307.433594 252.132812 Z M 98.460938 251.726562 L 85.730469 251.726562 C 84.914062 251.726562 84.226562 252.339844 84.132812 253.148438 L 73.824219 342.425781 C 73.71875 343.378906 74.464844 344.214844 75.421875 344.214844 L 88.15625 344.214844 C 88.972656 344.214844 89.65625 343.605469 89.753906 342.792969 L 100.058594 253.519531 C 100.167969 252.5625 99.421875 251.726562 98.460938 251.726562 Z M 288.234375 282.917969 L 293.398438 282.917969 L 305.164062 275.191406 L 312 282.917969 L 315.8125 282.917969 L 306.355469 271.425781 Z M 359.261719 108.90625 L 354.199219 108.90625 C 359.832031 108.90625 364.210938 113.800781 363.589844 119.390625 L 351.714844 226.484375 C 351.183594 231.265625 347.140625 234.886719 342.324219 234.886719 L 347.386719 234.886719 C 352.199219 234.886719 356.246094 231.265625 356.777344 226.484375 L 368.652344 119.390625 C 369.273438 113.800781 364.890625 108.90625 359.261719 108.90625 Z M 233.648438 127.71875 C 233.648438 127.296875 233.300781 126.953125 232.878906 126.953125 L 221.460938 126.953125 C 221.039062 126.953125 220.695312 127.296875 220.695312 127.71875 C 220.695312 128.144531 221.039062 128.484375 221.460938 128.484375 L 232.878906 128.484375 C 233.300781 128.484375 233.648438 128.144531 233.648438 127.71875 Z M 204.621094 126.585938 C 204 126.585938 203.425781 127.097656 203.34375 127.722656 C 203.265625 128.347656 203.710938 128.855469 204.335938 128.855469 C 204.960938 128.855469 205.535156 128.347656 205.613281 127.722656 C 205.695312 127.097656 205.25 126.585938 204.621094 126.585938 Z M 200.328125 126.585938 C 199.703125 126.585938 199.128906 127.097656 199.050781 127.722656 C 198.972656 128.347656 199.417969 128.855469 200.042969 128.855469 C 200.671875 128.855469 201.242188 128.347656 201.320312 127.722656 C 201.398438 127.097656 200.953125 126.585938 200.328125 126.585938 Z M 209.90625 127.722656 C 209.832031 128.347656 209.257812 128.855469 208.632812 128.855469 C 208.007812 128.855469 207.5625 128.347656 207.640625 127.722656 C 207.71875 127.097656 208.289062 126.585938 208.917969 126.585938 C 209.542969 126.585938 209.984375 127.097656 209.90625 127.722656 " fill-opacity="1" fill-rule="nonzero"/></g></svg>