<svg xmlns="http://www.w3.org/2000/svg" xmlns:xlink="http://www.w3.org/1999/xlink" width="500" zoomAndPan="magnify" viewBox="0 0 375 374.999991" height="500" preserveAspectRatio="xMidYMid meet" version="1.0"><defs><clipPath id="1e4c730f7d"><path d="M 37.5 37.5 L 337.5 37.5 L 337.5 337 L 37.5 337 Z M 37.5 37.5 " clip-rule="nonzero"/></clipPath></defs><rect x="-37.5" width="450" fill="#ffffff" y="-37.499999" height="449.999989" fill-opacity="1"/><rect x="-37.5" width="450" fill="#ffffff" y="-37.499999" height="449.999989" fill-opacity="1"/><g clip-path="url(#1e4c730f7d)"><path fill="#f615ba" d="M 337.339844 96.167969 L 273.875 332.96875 C 273.785156 333.304688 273.660156 333.628906 273.503906 333.9375 C 273.347656 334.25 273.164062 334.542969 272.949219 334.816406 C 272.738281 335.089844 272.5 335.34375 272.238281 335.570312 C 271.976562 335.796875 271.695312 336 271.394531 336.171875 C 271.089844 336.34375 270.777344 336.488281 270.445312 336.597656 C 270.117188 336.710938 269.78125 336.789062 269.4375 336.832031 C 269.09375 336.878906 268.746094 336.890625 268.398438 336.867188 C 268.054688 336.84375 267.710938 336.789062 267.375 336.699219 L 146.042969 304.195312 L 245.316406 304.195312 C 247.183594 304.191406 248.992188 303.863281 250.742188 303.214844 C 252.492188 302.5625 254.078125 301.628906 255.492188 300.414062 L 265.351562 303.078125 L 268.121094 292.738281 L 261.035156 290.875 C 261.207031 289.996094 261.292969 289.105469 261.300781 288.210938 L 261.300781 274.355469 L 272.226562 277.339844 L 274.996094 267.003906 L 261.300781 263.324219 L 261.300781 246.753906 L 279.152344 251.601562 L 281.921875 241.265625 L 261.300781 235.722656 L 261.300781 219.207031 L 286.027344 225.867188 L 288.796875 215.527344 L 261.300781 208.175781 L 261.300781 191.601562 L 292.953125 200.128906 L 295.722656 189.792969 L 261.300781 180.574219 L 261.300781 164.054688 L 299.828125 174.390625 L 302.597656 164.054688 L 261.300781 153.023438 L 261.300781 136.453125 L 306.753906 148.65625 L 309.523438 138.316406 L 261.300781 125.421875 L 261.300781 108.851562 L 313.628906 122.917969 L 316.398438 112.578125 L 261.300781 97.820312 L 261.300781 70.269531 L 333.558594 89.613281 C 333.898438 89.703125 334.226562 89.824219 334.542969 89.980469 C 334.855469 90.132812 335.15625 90.320312 335.433594 90.53125 C 335.714844 90.746094 335.96875 90.984375 336.203125 91.25 C 336.433594 91.511719 336.636719 91.796875 336.8125 92.101562 C 336.988281 92.40625 337.132812 92.726562 337.246094 93.058594 C 337.359375 93.394531 337.4375 93.734375 337.484375 94.082031 C 337.527344 94.429688 337.539062 94.78125 337.515625 95.132812 C 337.492188 95.484375 337.433594 95.828125 337.339844 96.167969 Z M 245.316406 293.539062 L 42.828125 293.539062 C 42.480469 293.539062 42.132812 293.503906 41.789062 293.4375 C 41.445312 293.367188 41.113281 293.265625 40.789062 293.132812 C 40.464844 293 40.160156 292.835938 39.867188 292.640625 C 39.578125 292.445312 39.308594 292.226562 39.0625 291.976562 C 38.8125 291.730469 38.59375 291.460938 38.398438 291.171875 C 38.203125 290.878906 38.039062 290.574219 37.90625 290.25 C 37.773438 289.925781 37.671875 289.59375 37.601562 289.25 C 37.535156 288.90625 37.5 288.558594 37.5 288.210938 L 37.5 80.394531 L 69.472656 80.394531 C 70.519531 80.390625 71.558594 80.285156 72.585938 80.082031 C 73.613281 79.875 74.613281 79.570312 75.582031 79.164062 C 76.550781 78.761719 77.46875 78.269531 78.339844 77.6875 C 79.214844 77.101562 80.019531 76.441406 80.761719 75.699219 C 81.503906 74.957031 82.164062 74.152344 82.75 73.28125 C 83.332031 72.40625 83.824219 71.488281 84.226562 70.519531 C 84.628906 69.550781 84.933594 68.554688 85.140625 67.523438 C 85.347656 66.496094 85.453125 65.457031 85.457031 64.410156 L 85.457031 37.765625 L 245.316406 37.765625 C 245.664062 37.765625 246.011719 37.800781 246.355469 37.867188 C 246.699219 37.9375 247.03125 38.039062 247.355469 38.171875 C 247.675781 38.304688 247.984375 38.46875 248.277344 38.664062 C 248.566406 38.859375 248.835938 39.078125 249.082031 39.328125 C 249.332031 39.574219 249.550781 39.84375 249.746094 40.132812 C 249.941406 40.425781 250.105469 40.734375 250.238281 41.054688 C 250.371094 41.378906 250.472656 41.710938 250.542969 42.054688 C 250.609375 42.398438 250.644531 42.746094 250.644531 43.09375 L 250.644531 288.210938 C 250.644531 288.558594 250.609375 288.90625 250.542969 289.25 C 250.472656 289.59375 250.371094 289.925781 250.238281 290.25 C 250.105469 290.574219 249.941406 290.878906 249.746094 291.171875 C 249.550781 291.460938 249.332031 291.730469 249.082031 291.976562 C 248.835938 292.226562 248.566406 292.445312 248.277344 292.640625 C 247.984375 292.835938 247.675781 293 247.355469 293.132812 C 247.03125 293.265625 246.699219 293.367188 246.355469 293.4375 C 246.011719 293.503906 245.664062 293.539062 245.316406 293.539062 Z M 53.484375 101.710938 L 101.441406 101.710938 L 101.441406 91.050781 L 53.484375 91.050781 Z M 53.484375 128.351562 L 69.472656 128.351562 L 69.472656 117.695312 L 53.484375 117.695312 Z M 53.484375 181.636719 L 128.085938 181.636719 L 128.085938 170.980469 L 53.484375 170.980469 Z M 53.484375 234.925781 L 160.058594 234.925781 L 160.058594 224.265625 L 53.484375 224.265625 Z M 234.65625 250.910156 L 122.757812 250.910156 L 122.757812 261.566406 L 234.65625 261.566406 Z M 234.65625 224.265625 L 176.042969 224.265625 L 176.042969 234.925781 L 234.65625 234.925781 Z M 234.65625 197.625 L 53.484375 197.625 L 53.484375 208.28125 L 234.65625 208.28125 Z M 234.65625 170.980469 L 144.070312 170.980469 L 144.070312 181.636719 L 234.65625 181.636719 Z M 234.65625 144.339844 L 53.484375 144.339844 L 53.484375 154.996094 L 234.65625 154.996094 Z M 234.65625 117.695312 L 80.128906 117.695312 L 80.128906 128.351562 L 234.65625 128.351562 Z M 133.414062 101.710938 L 133.414062 91.050781 L 112.101562 91.050781 L 112.101562 101.710938 Z M 234.65625 91.050781 L 144.070312 91.050781 L 144.070312 101.710938 L 234.65625 101.710938 Z M 234.65625 64.410156 L 101.441406 64.410156 L 101.441406 75.066406 L 234.65625 75.066406 Z M 74.800781 64.410156 L 74.800781 44.320312 L 46.1875 69.738281 L 69.472656 69.738281 C 69.820312 69.738281 70.167969 69.703125 70.511719 69.636719 C 70.855469 69.566406 71.1875 69.464844 71.511719 69.332031 C 71.835938 69.199219 72.140625 69.035156 72.433594 68.839844 C 72.722656 68.644531 72.992188 68.425781 73.238281 68.175781 C 73.488281 67.929688 73.707031 67.660156 73.902344 67.371094 C 74.097656 67.078125 74.261719 66.773438 74.394531 66.449219 C 74.527344 66.125 74.628906 65.792969 74.699219 65.449219 C 74.765625 65.105469 74.800781 64.757812 74.800781 64.410156 Z M 74.800781 64.410156 " fill-opacity="1" fill-rule="nonzero"/></g></svg>