<svg xmlns="http://www.w3.org/2000/svg" xmlns:xlink="http://www.w3.org/1999/xlink" width="500" zoomAndPan="magnify" viewBox="0 0 375 374.999991" height="500" preserveAspectRatio="xMidYMid meet" version="1.0"><defs><clipPath id="ffa18014eb"><path d="M 13.359375 11.109375 L 367.359375 11.109375 L 367.359375 365 L 13.359375 365 Z M 13.359375 11.109375 " clip-rule="nonzero"/></clipPath></defs><g clip-path="url(#ffa18014eb)"><path fill="#7044df" d="M 367.167969 80.335938 L 292.28125 359.761719 C 292.171875 360.15625 292.027344 360.539062 291.84375 360.90625 C 291.660156 361.273438 291.441406 361.617188 291.1875 361.941406 C 290.9375 362.265625 290.65625 362.5625 290.347656 362.832031 C 290.039062 363.097656 289.707031 363.335938 289.351562 363.539062 C 288.996094 363.746094 288.625 363.910156 288.234375 364.042969 C 287.847656 364.175781 287.449219 364.265625 287.042969 364.320312 C 286.636719 364.375 286.226562 364.386719 285.820312 364.359375 C 285.410156 364.335938 285.007812 364.269531 284.609375 364.164062 L 141.4375 325.808594 L 258.578125 325.808594 C 260.78125 325.804688 262.917969 325.417969 264.984375 324.648438 C 267.046875 323.882812 268.917969 322.78125 270.589844 321.34375 L 282.222656 324.488281 L 285.492188 312.289062 L 277.128906 310.089844 C 277.328125 309.050781 277.433594 308.003906 277.441406 306.945312 L 277.441406 290.597656 L 290.332031 294.117188 L 293.601562 281.921875 L 277.441406 277.582031 L 277.441406 258.027344 L 298.507812 263.75 L 301.777344 251.550781 L 277.441406 245.011719 L 277.441406 225.519531 L 306.617188 233.378906 L 309.886719 221.179688 L 277.441406 212.503906 L 277.441406 192.949219 L 314.792969 203.007812 L 318.0625 190.8125 L 277.441406 179.933594 L 277.441406 160.441406 L 322.902344 172.640625 L 326.171875 160.441406 L 277.441406 147.425781 L 277.441406 127.871094 L 331.078125 142.269531 L 334.347656 130.070312 L 277.441406 114.855469 L 277.441406 95.300781 L 339.1875 111.898438 L 342.457031 99.703125 L 277.441406 82.285156 L 277.441406 49.777344 L 362.703125 72.601562 C 363.105469 72.707031 363.492188 72.851562 363.867188 73.035156 C 364.238281 73.214844 364.589844 73.433594 364.921875 73.6875 C 365.25 73.9375 365.550781 74.21875 365.824219 74.53125 C 366.101562 74.84375 366.339844 75.179688 366.546875 75.539062 C 366.753906 75.898438 366.925781 76.273438 367.058594 76.667969 C 367.191406 77.0625 367.285156 77.464844 367.339844 77.875 C 367.390625 78.285156 367.402344 78.699219 367.375 79.113281 C 367.347656 79.527344 367.277344 79.933594 367.167969 80.335938 Z M 258.578125 313.234375 L 19.644531 313.234375 C 19.230469 313.234375 18.824219 313.191406 18.417969 313.113281 C 18.011719 313.03125 17.621094 312.914062 17.238281 312.753906 C 16.859375 312.597656 16.496094 312.402344 16.152344 312.171875 C 15.808594 311.945312 15.492188 311.683594 15.199219 311.390625 C 14.90625 311.101562 14.648438 310.78125 14.417969 310.4375 C 14.1875 310.097656 13.992188 309.734375 13.835938 309.351562 C 13.679688 308.96875 13.558594 308.578125 13.476562 308.171875 C 13.398438 307.765625 13.359375 307.359375 13.359375 306.945312 L 13.359375 61.722656 L 51.082031 61.722656 C 51.703125 61.722656 52.316406 61.691406 52.929688 61.628906 C 53.546875 61.566406 54.15625 61.472656 54.761719 61.351562 C 55.363281 61.230469 55.964844 61.078125 56.554688 60.898438 C 57.144531 60.71875 57.722656 60.511719 58.292969 60.273438 C 58.863281 60.035156 59.421875 59.769531 59.964844 59.480469 C 60.507812 59.1875 61.039062 58.871094 61.550781 58.527344 C 62.0625 58.183594 62.558594 57.816406 63.035156 57.425781 C 63.511719 57.03125 63.96875 56.617188 64.40625 56.183594 C 64.84375 55.746094 65.257812 55.289062 65.648438 54.8125 C 66.039062 54.335938 66.40625 53.839844 66.75 53.328125 C 67.09375 52.8125 67.410156 52.285156 67.703125 51.742188 C 67.996094 51.199219 68.257812 50.640625 68.496094 50.070312 C 68.734375 49.5 68.941406 48.921875 69.121094 48.328125 C 69.300781 47.738281 69.453125 47.140625 69.574219 46.535156 C 69.695312 45.929688 69.789062 45.320312 69.851562 44.707031 C 69.914062 44.09375 69.945312 43.476562 69.945312 42.859375 L 69.945312 11.421875 L 258.578125 11.421875 C 258.992188 11.421875 259.402344 11.460938 259.804688 11.542969 C 260.210938 11.625 260.605469 11.742188 260.984375 11.902344 C 261.367188 12.058594 261.730469 12.253906 262.074219 12.480469 C 262.414062 12.710938 262.734375 12.972656 263.027344 13.261719 C 263.316406 13.554688 263.578125 13.871094 263.808594 14.214844 C 264.035156 14.558594 264.230469 14.921875 264.386719 15.304688 C 264.546875 15.683594 264.664062 16.078125 264.746094 16.484375 C 264.828125 16.886719 264.867188 17.296875 264.867188 17.710938 L 264.867188 306.945312 C 264.867188 307.359375 264.828125 307.765625 264.746094 308.171875 C 264.664062 308.578125 264.546875 308.96875 264.386719 309.351562 C 264.230469 309.734375 264.035156 310.097656 263.808594 310.4375 C 263.578125 310.78125 263.316406 311.101562 263.027344 311.390625 C 262.734375 311.683594 262.414062 311.945312 262.074219 312.171875 C 261.730469 312.402344 261.367188 312.597656 260.984375 312.753906 C 260.605469 312.914062 260.210938 313.03125 259.804688 313.113281 C 259.402344 313.191406 258.992188 313.234375 258.578125 313.234375 Z M 32.21875 86.875 L 88.808594 86.875 L 88.808594 74.300781 L 32.21875 74.300781 Z M 32.21875 118.3125 L 51.082031 118.3125 L 51.082031 105.738281 L 32.21875 105.738281 Z M 32.21875 181.191406 L 120.25 181.191406 L 120.25 168.617188 L 32.21875 168.617188 Z M 32.21875 244.070312 L 157.976562 244.070312 L 157.976562 231.492188 L 32.21875 231.492188 Z M 246.003906 262.929688 L 113.960938 262.929688 L 113.960938 275.507812 L 246.003906 275.507812 Z M 246.003906 231.492188 L 176.839844 231.492188 L 176.839844 244.070312 L 246.003906 244.070312 Z M 246.003906 200.054688 L 32.21875 200.054688 L 32.21875 212.628906 L 246.003906 212.628906 Z M 246.003906 168.617188 L 139.113281 168.617188 L 139.113281 181.191406 L 246.003906 181.191406 Z M 246.003906 137.175781 L 32.21875 137.175781 L 32.21875 149.753906 L 246.003906 149.753906 Z M 246.003906 105.738281 L 63.660156 105.738281 L 63.660156 118.3125 L 246.003906 118.3125 Z M 126.535156 86.875 L 126.535156 74.300781 L 101.386719 74.300781 L 101.386719 86.875 Z M 246.003906 74.300781 L 139.113281 74.300781 L 139.113281 86.875 L 246.003906 86.875 Z M 246.003906 42.859375 L 88.808594 42.859375 L 88.808594 55.4375 L 246.003906 55.4375 Z M 57.371094 42.859375 L 57.371094 19.15625 L 23.605469 49.148438 L 51.082031 49.148438 C 51.496094 49.148438 51.90625 49.109375 52.3125 49.027344 C 52.714844 48.945312 53.109375 48.828125 53.488281 48.667969 C 53.871094 48.511719 54.234375 48.316406 54.578125 48.089844 C 54.921875 47.859375 55.238281 47.597656 55.53125 47.308594 C 55.820312 47.015625 56.082031 46.695312 56.3125 46.355469 C 56.542969 46.011719 56.734375 45.648438 56.894531 45.265625 C 57.050781 44.886719 57.171875 44.492188 57.25 44.085938 C 57.332031 43.683594 57.371094 43.273438 57.371094 42.859375 Z M 57.371094 42.859375 " fill-opacity="1" fill-rule="nonzero"/></g></svg>