<svg xmlns="http://www.w3.org/2000/svg" xmlns:xlink="http://www.w3.org/1999/xlink" width="500" zoomAndPan="magnify" viewBox="0 0 375 374.999991" height="500" preserveAspectRatio="xMidYMid meet" version="1.0"><defs><clipPath id="b24c6fc5fb"><path d="M 15.890625 15.089844 L 367.640625 15.089844 L 367.640625 366.839844 L 15.890625 366.839844 Z M 15.890625 15.089844 " clip-rule="nonzero"/></clipPath></defs><g clip-path="url(#b24c6fc5fb)"><path fill="#b9b4ff" d="M 367.453125 83.875 L 293.042969 361.527344 C 292.933594 361.921875 292.789062 362.300781 292.605469 362.664062 C 292.421875 363.027344 292.207031 363.371094 291.957031 363.691406 C 291.707031 364.015625 291.429688 364.308594 291.121094 364.574219 C 290.8125 364.84375 290.484375 365.078125 290.128906 365.28125 C 289.777344 365.484375 289.40625 365.652344 289.023438 365.78125 C 288.636719 365.910156 288.242188 366.003906 287.835938 366.054688 C 287.433594 366.109375 287.027344 366.125 286.621094 366.097656 C 286.214844 366.070312 285.8125 366.007812 285.421875 365.902344 L 143.160156 327.789062 L 259.554688 327.789062 C 261.746094 327.785156 263.867188 327.402344 265.917969 326.636719 C 267.96875 325.875 269.828125 324.78125 271.488281 323.355469 L 283.046875 326.476562 L 286.296875 314.355469 L 277.984375 312.171875 C 278.1875 311.140625 278.289062 310.097656 278.296875 309.046875 L 278.296875 292.800781 L 291.105469 296.300781 L 294.355469 284.179688 L 278.296875 279.871094 L 278.296875 260.4375 L 299.226562 266.125 L 302.476562 254.003906 L 278.296875 247.507812 L 278.296875 228.136719 L 307.289062 235.949219 L 310.535156 223.828125 L 278.296875 215.203125 L 278.296875 195.773438 L 315.410156 205.769531 L 318.660156 193.648438 L 278.296875 182.839844 L 278.296875 163.472656 L 323.46875 175.59375 L 326.71875 163.472656 L 278.296875 150.539062 L 278.296875 131.109375 L 331.589844 145.417969 L 334.839844 133.296875 L 278.296875 118.175781 L 278.296875 98.746094 L 339.652344 115.242188 L 342.898438 103.121094 L 278.296875 85.8125 L 278.296875 53.511719 L 363.019531 76.191406 C 363.417969 76.296875 363.800781 76.441406 364.171875 76.621094 C 364.542969 76.804688 364.890625 77.019531 365.21875 77.269531 C 365.546875 77.519531 365.847656 77.800781 366.121094 78.109375 C 366.390625 78.417969 366.632812 78.753906 366.835938 79.109375 C 367.042969 79.46875 367.210938 79.839844 367.34375 80.230469 C 367.476562 80.621094 367.570312 81.023438 367.621094 81.433594 C 367.675781 81.839844 367.6875 82.25 367.660156 82.664062 C 367.632812 83.074219 367.5625 83.480469 367.453125 83.875 Z M 259.554688 315.292969 L 22.140625 315.292969 C 21.730469 315.292969 21.324219 315.253906 20.921875 315.175781 C 20.519531 315.09375 20.128906 314.976562 19.75 314.820312 C 19.371094 314.660156 19.007812 314.46875 18.667969 314.242188 C 18.328125 314.011719 18.011719 313.753906 17.722656 313.464844 C 17.429688 313.175781 17.171875 312.859375 16.945312 312.519531 C 16.714844 312.175781 16.523438 311.816406 16.367188 311.4375 C 16.210938 311.058594 16.089844 310.667969 16.011719 310.265625 C 15.929688 309.863281 15.890625 309.457031 15.890625 309.046875 L 15.890625 65.382812 L 53.378906 65.382812 C 53.992188 65.382812 54.601562 65.351562 55.214844 65.289062 C 55.824219 65.226562 56.429688 65.136719 57.03125 65.015625 C 57.632812 64.894531 58.226562 64.742188 58.8125 64.5625 C 59.398438 64.382812 59.976562 64.175781 60.542969 63.941406 C 61.109375 63.707031 61.660156 63.445312 62.203125 63.152344 C 62.742188 62.863281 63.269531 62.546875 63.777344 62.207031 C 64.289062 61.867188 64.78125 61.5 65.253906 61.113281 C 65.726562 60.722656 66.179688 60.3125 66.617188 59.878906 C 67.050781 59.445312 67.460938 58.988281 67.851562 58.515625 C 68.238281 58.042969 68.605469 57.550781 68.945312 57.039062 C 69.285156 56.53125 69.601562 56.003906 69.890625 55.464844 C 70.179688 54.925781 70.445312 54.371094 70.679688 53.804688 C 70.914062 53.238281 71.121094 52.660156 71.300781 52.074219 C 71.480469 51.488281 71.632812 50.894531 71.753906 50.292969 C 71.875 49.691406 71.964844 49.085938 72.027344 48.476562 C 72.089844 47.863281 72.121094 47.253906 72.121094 46.640625 L 72.121094 15.402344 L 259.554688 15.402344 C 259.964844 15.402344 260.371094 15.441406 260.773438 15.519531 C 261.175781 15.601562 261.566406 15.71875 261.945312 15.875 C 262.324219 16.035156 262.683594 16.226562 263.027344 16.453125 C 263.367188 16.683594 263.683594 16.941406 263.972656 17.230469 C 264.261719 17.519531 264.523438 17.835938 264.75 18.179688 C 264.976562 18.519531 265.171875 18.878906 265.328125 19.257812 C 265.484375 19.636719 265.601562 20.027344 265.683594 20.429688 C 265.761719 20.832031 265.800781 21.238281 265.800781 21.648438 L 265.800781 309.046875 C 265.800781 309.457031 265.761719 309.863281 265.683594 310.265625 C 265.601562 310.667969 265.484375 311.058594 265.328125 311.4375 C 265.171875 311.816406 264.976562 312.175781 264.75 312.519531 C 264.523438 312.859375 264.261719 313.175781 263.972656 313.464844 C 263.683594 313.753906 263.367188 314.011719 263.027344 314.242188 C 262.683594 314.46875 262.324219 314.660156 261.945312 314.820312 C 261.566406 314.976562 261.175781 315.09375 260.773438 315.175781 C 260.371094 315.253906 259.964844 315.292969 259.554688 315.292969 Z M 34.636719 90.375 L 90.863281 90.375 L 90.863281 77.878906 L 34.636719 77.878906 Z M 34.636719 121.613281 L 53.378906 121.613281 L 53.378906 109.117188 L 34.636719 109.117188 Z M 34.636719 184.089844 L 122.105469 184.089844 L 122.105469 171.59375 L 34.636719 171.59375 Z M 34.636719 246.570312 L 159.589844 246.570312 L 159.589844 234.074219 L 34.636719 234.074219 Z M 247.058594 265.3125 L 115.855469 265.3125 L 115.855469 277.808594 L 247.058594 277.808594 Z M 247.058594 234.074219 L 178.332031 234.074219 L 178.332031 246.570312 L 247.058594 246.570312 Z M 247.058594 202.835938 L 34.636719 202.835938 L 34.636719 215.328125 L 247.058594 215.328125 Z M 247.058594 171.59375 L 140.847656 171.59375 L 140.847656 184.089844 L 247.058594 184.089844 Z M 247.058594 140.355469 L 34.636719 140.355469 L 34.636719 152.851562 L 247.058594 152.851562 Z M 247.058594 109.117188 L 65.875 109.117188 L 65.875 121.613281 L 247.058594 121.613281 Z M 128.351562 90.375 L 128.351562 77.878906 L 103.359375 77.878906 L 103.359375 90.375 Z M 247.058594 77.878906 L 140.847656 77.878906 L 140.847656 90.375 L 247.058594 90.375 Z M 247.058594 46.640625 L 90.863281 46.640625 L 90.863281 59.136719 L 247.058594 59.136719 Z M 59.625 46.640625 L 59.625 23.085938 L 26.074219 52.886719 L 53.378906 52.886719 C 53.789062 52.886719 54.195312 52.847656 54.597656 52.769531 C 55 52.6875 55.390625 52.570312 55.769531 52.414062 C 56.148438 52.253906 56.507812 52.0625 56.847656 51.835938 C 57.191406 51.605469 57.507812 51.347656 57.796875 51.058594 C 58.085938 50.769531 58.34375 50.453125 58.574219 50.109375 C 58.800781 49.769531 58.992188 49.410156 59.148438 49.03125 C 59.308594 48.652344 59.425781 48.261719 59.507812 47.859375 C 59.585938 47.457031 59.625 47.050781 59.625 46.640625 Z M 59.625 46.640625 " fill-opacity="1" fill-rule="nonzero"/></g></svg>