<svg xmlns="http://www.w3.org/2000/svg" xmlns:xlink="http://www.w3.org/1999/xlink" width="500" zoomAndPan="magnify" viewBox="0 0 375 374.999991" height="500" preserveAspectRatio="xMidYMid meet" version="1.0"><defs><clipPath id="fafaa98bb3"><path d="M 60.84375 61 L 321.09375 61 L 321.09375 321 L 60.84375 321 Z M 60.84375 61 " clip-rule="nonzero"/></clipPath></defs><g clip-path="url(#fafaa98bb3)"><path fill="#7044df" d="M 320.953125 111.738281 L 265.898438 317.164062 C 265.820312 317.453125 265.710938 317.734375 265.578125 318.003906 C 265.441406 318.273438 265.28125 318.527344 265.097656 318.765625 C 264.910156 319.003906 264.707031 319.222656 264.476562 319.417969 C 264.25 319.617188 264.007812 319.792969 263.746094 319.941406 C 263.484375 320.089844 263.210938 320.214844 262.925781 320.3125 C 262.640625 320.40625 262.347656 320.476562 262.046875 320.515625 C 261.75 320.554688 261.449219 320.5625 261.148438 320.542969 C 260.847656 320.527344 260.550781 320.476562 260.261719 320.398438 L 155.003906 292.203125 L 241.125 292.203125 C 242.742188 292.199219 244.3125 291.914062 245.832031 291.351562 C 247.347656 290.785156 248.722656 289.976562 249.953125 288.921875 L 258.503906 291.230469 L 260.90625 282.265625 L 254.757812 280.644531 C 254.90625 279.882812 254.984375 279.113281 254.992188 278.335938 L 254.992188 266.316406 L 264.46875 268.90625 L 266.871094 259.9375 L 254.992188 256.746094 L 254.992188 242.371094 L 270.476562 246.578125 L 272.878906 237.609375 L 254.992188 232.800781 L 254.992188 218.472656 L 276.4375 224.25 L 278.84375 215.28125 L 254.992188 208.902344 L 254.992188 194.527344 L 282.449219 201.921875 L 284.851562 192.957031 L 254.992188 184.960938 L 254.992188 170.628906 L 288.410156 179.597656 L 290.816406 170.628906 L 254.992188 161.058594 L 254.992188 146.683594 L 294.421875 157.269531 L 296.824219 148.300781 L 254.992188 137.117188 L 254.992188 122.738281 L 300.382812 134.941406 L 302.789062 125.976562 L 254.992188 113.171875 L 254.992188 89.273438 L 317.671875 106.050781 C 317.96875 106.128906 318.253906 106.234375 318.527344 106.371094 C 318.800781 106.503906 319.058594 106.664062 319.300781 106.847656 C 319.542969 107.035156 319.765625 107.242188 319.96875 107.472656 C 320.167969 107.699219 320.347656 107.945312 320.5 108.210938 C 320.652344 108.476562 320.777344 108.753906 320.875 109.042969 C 320.972656 109.332031 321.039062 109.625 321.078125 109.929688 C 321.117188 110.230469 321.128906 110.535156 321.105469 110.839844 C 321.085938 111.144531 321.035156 111.441406 320.953125 111.738281 Z M 241.125 282.957031 L 65.464844 282.957031 C 65.164062 282.957031 64.863281 282.925781 64.5625 282.867188 C 64.265625 282.808594 63.976562 282.722656 63.695312 282.605469 C 63.417969 282.488281 63.148438 282.347656 62.898438 282.179688 C 62.644531 282.007812 62.410156 281.816406 62.199219 281.601562 C 61.984375 281.386719 61.792969 281.15625 61.621094 280.902344 C 61.453125 280.652344 61.3125 280.382812 61.195312 280.105469 C 61.078125 279.824219 60.992188 279.535156 60.933594 279.238281 C 60.871094 278.9375 60.84375 278.636719 60.84375 278.335938 L 60.84375 98.054688 L 88.578125 98.054688 C 89.488281 98.050781 90.390625 97.960938 91.28125 97.78125 C 92.171875 97.601562 93.039062 97.335938 93.878906 96.988281 C 94.71875 96.640625 95.515625 96.210938 96.273438 95.707031 C 97.03125 95.199219 97.730469 94.625 98.371094 93.980469 C 99.015625 93.335938 99.589844 92.636719 100.097656 91.882812 C 100.601562 91.125 101.03125 90.328125 101.378906 89.488281 C 101.730469 88.648438 101.992188 87.78125 102.171875 86.890625 C 102.351562 85.996094 102.445312 85.097656 102.445312 84.1875 L 102.445312 61.074219 L 241.125 61.074219 C 241.425781 61.074219 241.726562 61.105469 242.023438 61.164062 C 242.324219 61.222656 242.613281 61.308594 242.890625 61.425781 C 243.171875 61.542969 243.4375 61.683594 243.691406 61.855469 C 243.945312 62.023438 244.175781 62.214844 244.390625 62.429688 C 244.605469 62.644531 244.796875 62.875 244.964844 63.128906 C 245.136719 63.382812 245.277344 63.648438 245.394531 63.929688 C 245.511719 64.207031 245.597656 64.496094 245.65625 64.796875 C 245.714844 65.09375 245.746094 65.394531 245.746094 65.695312 L 245.746094 278.335938 C 245.746094 278.636719 245.714844 278.9375 245.65625 279.238281 C 245.597656 279.535156 245.511719 279.824219 245.394531 280.105469 C 245.277344 280.382812 245.136719 280.652344 244.964844 280.902344 C 244.796875 281.15625 244.605469 281.386719 244.390625 281.601562 C 244.175781 281.816406 243.945312 282.007812 243.691406 282.179688 C 243.4375 282.347656 243.171875 282.488281 242.890625 282.605469 C 242.613281 282.722656 242.324219 282.808594 242.023438 282.867188 C 241.726562 282.925781 241.425781 282.957031 241.125 282.957031 Z M 74.710938 116.546875 L 116.3125 116.546875 L 116.3125 107.300781 L 74.710938 107.300781 Z M 74.710938 139.65625 L 88.578125 139.65625 L 88.578125 130.414062 L 74.710938 130.414062 Z M 74.710938 185.882812 L 139.425781 185.882812 L 139.425781 176.636719 L 74.710938 176.636719 Z M 74.710938 232.109375 L 167.164062 232.109375 L 167.164062 222.863281 L 74.710938 222.863281 Z M 231.878906 245.976562 L 134.804688 245.976562 L 134.804688 255.222656 L 231.878906 255.222656 Z M 231.878906 222.863281 L 181.03125 222.863281 L 181.03125 232.109375 L 231.878906 232.109375 Z M 231.878906 199.75 L 74.710938 199.75 L 74.710938 208.996094 L 231.878906 208.996094 Z M 231.878906 176.636719 L 153.292969 176.636719 L 153.292969 185.882812 L 231.878906 185.882812 Z M 231.878906 153.527344 L 74.710938 153.527344 L 74.710938 162.769531 L 231.878906 162.769531 Z M 231.878906 130.414062 L 97.824219 130.414062 L 97.824219 139.65625 L 231.878906 139.65625 Z M 144.050781 116.546875 L 144.050781 107.300781 L 125.558594 107.300781 L 125.558594 116.546875 Z M 231.878906 107.300781 L 153.292969 107.300781 L 153.292969 116.546875 L 231.878906 116.546875 Z M 231.878906 84.1875 L 116.3125 84.1875 L 116.3125 93.433594 L 231.878906 93.433594 Z M 93.203125 84.1875 L 93.203125 66.761719 L 68.378906 88.808594 L 88.578125 88.808594 C 88.882812 88.808594 89.183594 88.78125 89.480469 88.722656 C 89.777344 88.660156 90.066406 88.574219 90.347656 88.457031 C 90.628906 88.339844 90.894531 88.199219 91.148438 88.03125 C 91.398438 87.863281 91.632812 87.671875 91.847656 87.457031 C 92.0625 87.242188 92.253906 87.007812 92.421875 86.753906 C 92.589844 86.503906 92.734375 86.238281 92.847656 85.957031 C 92.964844 85.675781 93.054688 85.386719 93.113281 85.089844 C 93.171875 84.792969 93.203125 84.492188 93.203125 84.1875 Z M 93.203125 84.1875 " fill-opacity="1" fill-rule="nonzero"/></g></svg>