<svg xmlns="http://www.w3.org/2000/svg" xmlns:xlink="http://www.w3.org/1999/xlink" width="500" zoomAndPan="magnify" viewBox="0 0 375 374.999991" height="500" preserveAspectRatio="xMidYMid meet" version="1.0"><defs><clipPath id="0da55f8181"><path d="M 18.074219 18.074219 L 357.074219 18.074219 L 357.074219 357.074219 L 18.074219 357.074219 Z M 18.074219 18.074219 " clip-rule="nonzero"/></clipPath></defs><g clip-path="url(#0da55f8181)"><path fill="#b9b4ff" d="M 257.855469 278.1875 C 254.914062 285.195312 251.609375 291.835938 248.03125 297.929688 C 233.605469 322.46875 214.929688 337.664062 195.355469 340.8125 L 195.355469 268.585938 C 217.402344 269.210938 238.417969 272.433594 257.855469 278.1875 Z M 297.578125 80.085938 C 289.988281 84.519531 281.613281 88.492188 272.667969 91.914062 C 269.351562 83.890625 265.59375 76.273438 261.476562 69.273438 C 255.730469 59.496094 249.328125 50.9375 242.425781 43.792969 L 242.5 43.820312 C 242.714844 43.898438 242.933594 43.984375 243.144531 44.0625 C 243.96875 44.386719 244.867188 44.746094 245.890625 45.167969 L 246.203125 45.292969 C 246.367188 45.359375 246.535156 45.429688 246.699219 45.5 C 247.628906 45.886719 248.597656 46.304688 249.65625 46.773438 L 250.214844 47.019531 C 251.304688 47.507812 252.40625 48.015625 253.492188 48.53125 L 253.683594 48.625 C 266.523438 54.761719 278.46875 62.664062 289.183594 72.113281 L 289.246094 72.167969 C 290.210938 73.019531 291.164062 73.878906 292.074219 74.722656 L 292.140625 74.785156 C 293.011719 75.597656 293.890625 76.429688 294.753906 77.269531 L 294.949219 77.460938 C 295.820312 78.308594 296.703125 79.191406 297.578125 80.085938 Z M 195.355469 106.523438 L 195.355469 34.296875 C 214.929688 37.445312 233.605469 52.640625 248.03125 77.179688 C 251.609375 83.269531 254.914062 89.90625 257.855469 96.925781 C 238.417969 102.671875 217.402344 105.902344 195.355469 106.523438 Z M 195.355469 179.757812 L 195.355469 122.132812 C 219.28125 121.488281 242.128906 117.9375 263.296875 111.570312 C 270.058594 132.265625 273.984375 155.808594 274.671875 179.757812 Z M 261.476562 305.832031 C 265.59375 298.835938 269.351562 291.222656 272.667969 283.195312 C 281.613281 286.613281 289.988281 290.59375 297.578125 295.023438 C 296.710938 295.910156 295.832031 296.789062 294.960938 297.636719 L 294.910156 297.6875 C 294.003906 298.570312 293.0625 299.46875 292.105469 300.355469 C 291.160156 301.230469 290.210938 302.089844 289.277344 302.914062 L 289.175781 303.003906 C 278.457031 312.453125 266.515625 320.351562 253.683594 326.484375 L 253.492188 326.574219 C 252.390625 327.097656 251.292969 327.609375 250.222656 328.089844 L 249.648438 328.339844 C 248.578125 328.8125 247.617188 329.230469 246.703125 329.613281 C 246.5625 329.667969 245.882812 329.945312 245.882812 329.945312 C 244.835938 330.375 243.96875 330.726562 243.144531 331.042969 C 242.980469 331.105469 242.425781 331.316406 242.425781 331.316406 C 249.328125 324.171875 255.730469 315.613281 261.476562 305.832031 Z M 195.355469 252.980469 L 195.355469 195.355469 L 274.671875 195.355469 C 273.984375 219.300781 270.058594 242.839844 263.296875 263.539062 C 242.128906 257.171875 219.28125 253.621094 195.355469 252.980469 Z M 338.351562 218.304688 C 338.300781 218.542969 338.25 218.777344 338.199219 219.015625 L 338.097656 219.488281 C 337.929688 220.269531 337.761719 221.050781 337.585938 221.828125 C 337.507812 222.175781 337.425781 222.523438 337.34375 222.867188 L 337.261719 223.203125 C 337.09375 223.914062 336.917969 224.625 336.742188 225.335938 C 336.621094 225.8125 336.496094 226.285156 336.371094 226.757812 C 336.191406 227.453125 336 228.140625 335.808594 228.828125 C 335.679688 229.300781 335.546875 229.773438 335.410156 230.242188 C 335.207031 230.941406 335 231.636719 334.785156 232.332031 L 334.679688 232.6875 C 334.582031 233.015625 334.480469 233.34375 334.378906 233.675781 C 334.140625 234.425781 333.894531 235.175781 333.644531 235.925781 L 333.484375 236.414062 C 333.414062 236.628906 333.339844 236.847656 333.269531 237.058594 C 332.859375 238.253906 332.480469 239.34375 332.097656 240.378906 L 331.988281 240.667969 C 331.617188 241.675781 331.230469 242.695312 330.835938 243.695312 C 330.742188 243.929688 330.648438 244.160156 330.550781 244.398438 L 330.367188 244.851562 C 330.085938 245.558594 329.796875 246.265625 329.503906 246.96875 C 329.359375 247.304688 329.214844 247.640625 329.074219 247.972656 L 328.9375 248.28125 C 328.660156 248.929688 328.378906 249.574219 328.089844 250.21875 C 327.890625 250.667969 327.683594 251.117188 327.480469 251.566406 C 327.1875 252.191406 326.898438 252.820312 326.601562 253.441406 C 326.390625 253.886719 326.175781 254.332031 325.960938 254.773438 C 325.652344 255.40625 325.335938 256.035156 325.019531 256.664062 L 324.8125 257.078125 C 324.667969 257.359375 324.523438 257.644531 324.378906 257.929688 C 324.03125 258.605469 323.667969 259.277344 323.3125 259.949219 L 323.078125 260.390625 C 322.960938 260.601562 322.851562 260.816406 322.734375 261.03125 C 322.140625 262.121094 321.585938 263.105469 321.042969 264.046875 L 320.796875 264.46875 C 320.257812 265.398438 319.753906 266.25 319.261719 267.0625 C 319.140625 267.269531 319.007812 267.472656 318.882812 267.675781 L 318.585938 268.160156 C 318.195312 268.789062 317.808594 269.417969 317.410156 270.039062 C 317.210938 270.351562 317.007812 270.664062 316.804688 270.972656 L 316.625 271.246094 C 316.25 271.824219 315.875 272.398438 315.492188 272.96875 C 315.214844 273.382812 314.933594 273.796875 314.652344 274.207031 C 314.273438 274.761719 313.886719 275.320312 313.5 275.867188 C 313.214844 276.273438 312.925781 276.679688 312.636719 277.085938 C 312.234375 277.648438 311.828125 278.199219 311.417969 278.757812 L 311.203125 279.046875 C 310.992188 279.335938 310.78125 279.617188 310.566406 279.90625 C 310.121094 280.496094 309.667969 281.082031 309.203125 281.683594 L 308.878906 282.101562 C 308.734375 282.289062 308.589844 282.484375 308.4375 282.667969 C 308.316406 282.824219 308.195312 282.976562 308.078125 283.128906 C 307.304688 282.65625 306.566406 282.210938 305.835938 281.78125 C 297.371094 276.808594 288.03125 272.359375 278.058594 268.5625 C 285.359375 246.261719 289.582031 220.980469 290.277344 195.355469 L 341.238281 195.355469 C 341.226562 195.582031 341.175781 196.445312 341.175781 196.445312 C 341.132812 197.207031 341.085938 197.96875 341.03125 198.726562 C 340.996094 199.222656 340.957031 199.71875 340.914062 200.210938 C 340.855469 200.953125 340.789062 201.695312 340.71875 202.433594 C 340.667969 202.929688 340.621094 203.421875 340.566406 203.914062 C 340.492188 204.660156 340.402344 205.410156 340.3125 206.160156 L 340.261719 206.574219 C 340.222656 206.902344 340.183594 207.234375 340.140625 207.5625 C 340.03125 208.378906 339.917969 209.191406 339.796875 210 L 339.726562 210.488281 C 339.695312 210.71875 339.664062 210.949219 339.625 211.179688 C 339.429688 212.460938 339.234375 213.636719 339.03125 214.761719 L 339.011719 214.863281 C 338.8125 215.972656 338.589844 217.125 338.351562 218.304688 Z M 308.925781 93.066406 L 309.210938 93.429688 C 309.664062 94.019531 310.117188 94.605469 310.566406 95.207031 C 310.777344 95.484375 310.984375 95.765625 311.195312 96.050781 L 311.421875 96.355469 C 311.828125 96.910156 312.234375 97.464844 312.636719 98.023438 C 312.925781 98.425781 313.214844 98.832031 313.5 99.242188 C 313.886719 99.792969 314.273438 100.34375 314.652344 100.902344 C 314.933594 101.3125 315.21875 101.726562 315.492188 102.140625 C 315.875 102.710938 316.25 103.28125 316.625 103.855469 L 316.773438 104.089844 C 316.988281 104.417969 317.203125 104.742188 317.414062 105.074219 C 317.808594 105.691406 318.195312 106.320312 318.582031 106.945312 L 318.839844 107.359375 C 318.980469 107.585938 319.121094 107.816406 319.261719 108.042969 C 319.753906 108.859375 320.257812 109.707031 320.796875 110.636719 L 321.046875 111.0625 C 321.597656 112.019531 322.148438 113.003906 322.734375 114.078125 C 322.851562 114.292969 322.964844 114.507812 323.082031 114.726562 L 323.316406 115.167969 C 323.671875 115.835938 324.03125 116.503906 324.378906 117.179688 C 324.539062 117.492188 324.699219 117.808594 324.855469 118.121094 L 325.019531 118.449219 C 325.339844 119.074219 325.652344 119.703125 325.960938 120.335938 C 326.175781 120.777344 326.390625 121.222656 326.601562 121.667969 C 326.898438 122.292969 327.1875 122.914062 327.476562 123.542969 C 327.683594 123.988281 327.890625 124.441406 328.09375 124.894531 C 328.378906 125.535156 328.660156 126.179688 328.9375 126.828125 L 329.070312 127.128906 C 329.210938 127.464844 329.359375 127.800781 329.503906 128.144531 C 329.796875 128.84375 330.085938 129.546875 330.367188 130.257812 L 330.558594 130.730469 C 330.65625 130.957031 330.746094 131.1875 330.835938 131.417969 C 331.226562 132.410156 331.613281 133.425781 331.988281 134.445312 L 332.09375 134.722656 C 332.484375 135.777344 332.863281 136.863281 333.265625 138.046875 C 333.34375 138.273438 333.417969 138.496094 333.496094 138.722656 L 333.644531 139.191406 C 333.894531 139.933594 334.140625 140.683594 334.378906 141.4375 C 334.480469 141.765625 334.582031 142.101562 334.683594 142.433594 L 334.785156 142.777344 C 335 143.472656 335.207031 144.167969 335.410156 144.867188 C 335.546875 145.339844 335.679688 145.8125 335.808594 146.28125 C 336 146.96875 336.191406 147.65625 336.371094 148.347656 C 336.496094 148.820312 336.621094 149.296875 336.742188 149.773438 C 336.917969 150.480469 337.09375 151.195312 337.261719 151.910156 L 337.359375 152.308594 C 337.4375 152.632812 337.515625 152.957031 337.585938 153.277344 C 337.761719 154.054688 337.929688 154.835938 338.097656 155.621094 L 338.210938 156.152344 C 338.261719 156.371094 338.304688 156.585938 338.351562 156.808594 C 338.59375 157.988281 338.8125 159.148438 339.011719 160.257812 L 339.035156 160.355469 C 339.238281 161.484375 339.429688 162.65625 339.625 163.929688 C 339.660156 164.152344 339.691406 164.367188 339.722656 164.589844 L 339.796875 165.109375 C 339.917969 165.917969 340.03125 166.730469 340.140625 167.542969 C 340.183594 167.886719 340.222656 168.226562 340.265625 168.566406 L 340.3125 168.953125 C 340.402344 169.695312 340.492188 170.445312 340.566406 171.195312 C 340.625 171.6875 340.667969 172.183594 340.71875 172.675781 C 340.789062 173.414062 340.855469 174.152344 340.914062 174.898438 C 340.957031 175.390625 340.996094 175.886719 341.03125 176.382812 C 341.085938 177.140625 341.132812 177.902344 341.175781 178.667969 C 341.175781 178.667969 341.226562 179.519531 341.238281 179.757812 L 290.277344 179.757812 C 289.582031 154.125 285.359375 128.847656 278.058594 106.550781 C 288.03125 102.75 297.375 98.304688 305.835938 93.328125 C 306.570312 92.898438 307.308594 92.453125 308.078125 91.980469 C 308.195312 92.132812 308.320312 92.285156 308.4375 92.4375 C 308.601562 92.640625 308.757812 92.84375 308.925781 93.066406 Z M 117.257812 96.925781 C 120.203125 89.910156 123.503906 83.269531 127.085938 77.179688 C 141.507812 52.640625 160.183594 37.445312 179.757812 34.296875 L 179.757812 106.523438 C 157.707031 105.902344 136.691406 102.671875 117.257812 96.925781 Z M 179.757812 195.355469 L 179.757812 252.980469 C 155.832031 253.621094 132.984375 257.171875 111.820312 263.539062 C 105.058594 242.839844 101.128906 219.300781 100.445312 195.355469 Z M 102.445312 283.195312 C 105.757812 291.222656 109.523438 298.835938 113.636719 305.832031 C 119.386719 315.613281 125.78125 324.171875 132.6875 331.316406 C 132.6875 331.316406 132.203125 331.132812 131.96875 331.042969 C 131.152344 330.726562 130.277344 330.375 129.226562 329.945312 L 128.804688 329.773438 C 128.675781 329.71875 128.542969 329.664062 128.410156 329.609375 C 127.496094 329.226562 126.53125 328.8125 125.464844 328.335938 L 124.898438 328.089844 C 123.8125 327.605469 122.707031 327.09375 121.613281 326.574219 L 121.429688 326.484375 C 108.589844 320.347656 96.648438 312.445312 85.929688 302.996094 L 85.859375 302.9375 C 84.910156 302.097656 83.953125 301.230469 83.011719 300.359375 L 82.976562 300.324219 C 82.03125 299.449219 81.101562 298.566406 80.203125 297.683594 L 80.164062 297.648438 C 79.296875 296.800781 78.414062 295.917969 77.539062 295.023438 C 85.121094 290.59375 93.496094 286.613281 102.445312 283.195312 Z M 179.757812 268.585938 L 179.757812 340.8125 C 160.183594 337.664062 141.507812 322.46875 127.085938 297.929688 C 123.503906 291.835938 120.199219 285.195312 117.257812 278.1875 C 136.691406 272.433594 157.710938 269.210938 179.757812 268.585938 Z M 113.636719 69.273438 C 109.523438 76.273438 105.757812 83.886719 102.445312 91.914062 C 93.496094 88.492188 85.125 84.519531 77.539062 80.085938 C 78.394531 79.207031 79.277344 78.324219 80.164062 77.460938 L 80.207031 77.421875 C 81.109375 76.539062 82.039062 75.652344 82.972656 74.789062 L 83.1875 74.585938 C 84.0625 73.78125 84.964844 72.964844 85.875 72.164062 C 96.605469 62.691406 108.566406 54.773438 121.414062 48.628906 L 121.625 48.53125 C 122.707031 48.015625 123.808594 47.507812 124.894531 47.023438 L 125.464844 46.769531 C 126.523438 46.300781 127.488281 45.886719 128.414062 45.5 C 128.570312 45.433594 128.726562 45.367188 128.886719 45.304688 L 129.226562 45.164062 C 130.277344 44.734375 131.148438 44.382812 131.96875 44.0625 C 132.179688 43.984375 132.394531 43.902344 132.605469 43.824219 L 132.683594 43.792969 C 125.78125 50.9375 119.382812 59.496094 113.636719 69.273438 Z M 179.757812 122.132812 L 179.757812 179.757812 L 100.445312 179.757812 C 101.128906 155.808594 105.058594 132.265625 111.820312 111.570312 C 132.984375 117.9375 155.832031 121.488281 179.757812 122.132812 Z M 66.210938 282.074219 L 65.914062 281.6875 C 65.453125 281.097656 64.996094 280.5 64.546875 279.90625 C 64.355469 279.652344 64.164062 279.394531 63.980469 279.144531 L 63.695312 278.753906 C 63.285156 278.199219 62.878906 277.644531 62.472656 277.085938 C 62.1875 276.679688 61.898438 276.277344 61.613281 275.867188 C 61.222656 275.320312 60.839844 274.761719 60.457031 274.203125 C 60.175781 273.792969 59.898438 273.382812 59.621094 272.964844 C 59.238281 272.398438 58.859375 271.824219 58.488281 271.25 L 58.347656 271.03125 C 58.128906 270.699219 57.914062 270.371094 57.703125 270.035156 C 57.304688 269.414062 56.917969 268.785156 56.527344 268.160156 L 56.277344 267.753906 C 56.132812 267.523438 55.992188 267.292969 55.851562 267.0625 C 55.355469 266.246094 54.851562 265.394531 54.304688 264.453125 L 54.070312 264.054688 C 53.519531 263.09375 52.964844 262.101562 52.378906 261.03125 C 52.257812 260.808594 52.140625 260.589844 52.023438 260.367188 L 51.800781 259.953125 C 51.441406 259.28125 51.085938 258.605469 50.734375 257.929688 C 50.582031 257.636719 50.4375 257.347656 50.289062 257.054688 L 50.09375 256.664062 C 49.773438 256.039062 49.460938 255.40625 49.152344 254.773438 C 48.9375 254.332031 48.726562 253.890625 48.515625 253.445312 C 48.21875 252.820312 47.921875 252.191406 47.636719 251.5625 C 47.429688 251.113281 47.226562 250.667969 47.023438 250.21875 C 46.734375 249.574219 46.453125 248.929688 46.171875 248.28125 L 46.03125 247.953125 C 45.886719 247.625 45.75 247.296875 45.613281 246.972656 C 45.316406 246.265625 45.027344 245.558594 44.742188 244.847656 L 44.535156 244.34375 C 44.449219 244.125 44.363281 243.910156 44.277344 243.695312 C 43.890625 242.710938 43.503906 241.691406 43.125 240.667969 L 43.015625 240.386719 C 42.632812 239.339844 42.25 238.25 41.84375 237.058594 C 41.765625 236.835938 41.695312 236.609375 41.621094 236.378906 L 41.46875 235.925781 C 41.222656 235.175781 40.972656 234.425781 40.734375 233.675781 C 40.636719 233.355469 40.539062 233.035156 40.441406 232.714844 L 40.324219 232.332031 C 40.113281 231.640625 39.90625 230.941406 39.703125 230.242188 C 39.566406 229.773438 39.433594 229.300781 39.300781 228.832031 C 39.109375 228.140625 38.925781 227.453125 38.742188 226.757812 C 38.617188 226.285156 38.492188 225.8125 38.375 225.335938 C 38.191406 224.625 38.019531 223.914062 37.847656 223.199219 L 37.773438 222.878906 C 37.6875 222.527344 37.605469 222.179688 37.527344 221.828125 C 37.347656 221.050781 37.179688 220.269531 37.015625 219.488281 L 36.914062 219.019531 C 36.863281 218.78125 36.808594 218.542969 36.761719 218.304688 C 36.523438 217.117188 36.296875 215.957031 36.097656 214.851562 L 36.082031 214.753906 C 35.878906 213.628906 35.683594 212.460938 35.484375 211.179688 C 35.449219 210.945312 35.414062 210.714844 35.382812 210.480469 L 35.3125 210 C 35.195312 209.191406 35.078125 208.378906 34.976562 207.5625 C 34.929688 207.230469 34.890625 206.898438 34.847656 206.566406 L 34.800781 206.160156 C 34.710938 205.414062 34.625 204.660156 34.542969 203.914062 C 34.492188 203.421875 34.441406 202.929688 34.398438 202.433594 C 34.324219 201.695312 34.257812 200.953125 34.199219 200.210938 C 34.160156 199.71875 34.117188 199.222656 34.082031 198.726562 C 34.027344 197.96875 33.980469 197.207031 33.9375 196.445312 C 33.9375 196.445312 33.886719 195.582031 33.875 195.355469 L 84.835938 195.355469 C 85.535156 220.980469 89.753906 246.261719 97.054688 268.5625 C 87.085938 272.359375 77.742188 276.808594 69.277344 281.78125 C 68.550781 282.210938 67.8125 282.652344 67.035156 283.128906 C 66.914062 282.976562 66.796875 282.824219 66.671875 282.667969 C 66.523438 282.480469 66.378906 282.289062 66.210938 282.074219 Z M 36.761719 156.804688 C 36.804688 156.585938 36.855469 156.367188 36.902344 156.148438 L 37.015625 155.617188 C 37.179688 154.835938 37.347656 154.054688 37.527344 153.277344 C 37.601562 152.957031 37.679688 152.632812 37.753906 152.308594 L 37.847656 151.90625 C 38.019531 151.195312 38.191406 150.480469 38.371094 149.769531 C 38.492188 149.296875 38.617188 148.820312 38.742188 148.347656 C 38.925781 147.65625 39.109375 146.96875 39.300781 146.28125 C 39.433594 145.8125 39.566406 145.339844 39.703125 144.867188 C 39.90625 144.167969 40.113281 143.472656 40.324219 142.773438 L 40.445312 142.382812 C 40.542969 142.066406 40.636719 141.753906 40.734375 141.4375 C 40.972656 140.683594 41.222656 139.933594 41.46875 139.1875 L 41.632812 138.691406 C 41.699219 138.480469 41.769531 138.261719 41.84375 138.046875 C 42.246094 136.863281 42.632812 135.777344 43.015625 134.730469 L 43.125 134.4375 C 43.507812 133.402344 43.894531 132.382812 44.277344 131.414062 C 44.367188 131.179688 44.464844 130.949219 44.5625 130.710938 L 44.742188 130.257812 C 45.03125 129.550781 45.316406 128.84375 45.613281 128.140625 C 45.753906 127.800781 45.898438 127.460938 46.058594 127.097656 L 46.175781 126.828125 C 46.453125 126.179688 46.734375 125.535156 47.023438 124.894531 C 47.222656 124.441406 47.429688 123.992188 47.636719 123.546875 C 47.921875 122.914062 48.21875 122.289062 48.515625 121.664062 C 48.726562 121.21875 48.9375 120.777344 49.152344 120.339844 C 49.460938 119.703125 49.773438 119.074219 50.09375 118.445312 L 50.273438 118.089844 C 50.421875 117.789062 50.578125 117.484375 50.734375 117.183594 C 51.085938 116.503906 51.441406 115.832031 51.800781 115.160156 L 52.035156 114.71875 C 52.148438 114.503906 52.265625 114.292969 52.378906 114.078125 C 52.972656 112.992188 53.527344 112 54.066406 111.058594 L 54.3125 110.644531 C 54.851562 109.71875 55.351562 108.863281 55.851562 108.042969 C 55.988281 107.824219 56.125 107.605469 56.273438 107.363281 L 56.527344 106.953125 C 56.917969 106.320312 57.304688 105.695312 57.703125 105.074219 C 57.898438 104.769531 58.097656 104.460938 58.296875 104.152344 L 58.488281 103.859375 C 58.859375 103.28125 59.238281 102.707031 59.621094 102.136719 C 59.898438 101.726562 60.175781 101.316406 60.457031 100.90625 C 60.839844 100.34375 61.226562 99.789062 61.617188 99.234375 C 61.898438 98.832031 62.1875 98.425781 62.472656 98.023438 C 62.878906 97.464844 63.285156 96.90625 63.695312 96.351562 L 63.921875 96.050781 C 64.128906 95.769531 64.332031 95.484375 64.542969 95.207031 C 65 94.605469 65.457031 94.007812 65.917969 93.414062 L 66.242188 92.992188 C 66.386719 92.808594 66.527344 92.625 66.671875 92.441406 C 66.796875 92.285156 66.914062 92.132812 67.035156 91.980469 C 67.816406 92.460938 68.554688 92.90625 69.277344 93.328125 C 77.742188 98.304688 87.082031 102.75 97.054688 106.550781 C 89.753906 128.847656 85.535156 154.125 84.835938 179.757812 L 33.875 179.757812 C 33.890625 179.507812 33.9375 178.664062 33.9375 178.664062 C 33.980469 177.902344 34.027344 177.140625 34.082031 176.382812 C 34.117188 175.886719 34.160156 175.390625 34.199219 174.898438 C 34.257812 174.152344 34.324219 173.414062 34.398438 172.675781 C 34.441406 172.183594 34.492188 171.6875 34.542969 171.195312 C 34.625 170.445312 34.710938 169.695312 34.800781 168.949219 L 34.847656 168.566406 C 34.886719 168.226562 34.929688 167.882812 34.976562 167.542969 C 35.078125 166.730469 35.195312 165.917969 35.3125 165.105469 L 35.382812 164.632812 C 35.414062 164.398438 35.449219 164.164062 35.484375 163.933594 C 35.683594 162.648438 35.878906 161.476562 36.082031 160.34375 L 36.101562 160.242188 C 36.296875 159.144531 36.523438 157.988281 36.761719 156.804688 Z M 18.121094 191.539062 C 18.128906 191.820312 18.136719 192.101562 18.148438 192.382812 L 18.164062 192.84375 C 18.1875 193.734375 18.222656 194.625 18.261719 195.515625 C 18.28125 195.898438 18.300781 196.28125 18.320312 196.695312 L 18.34375 197.054688 C 18.390625 197.867188 18.433594 198.679688 18.492188 199.488281 C 18.527344 200.023438 18.570312 200.558594 18.613281 201.09375 C 18.671875 201.886719 18.742188 202.671875 18.816406 203.460938 C 18.863281 203.996094 18.914062 204.53125 18.96875 205.066406 C 19.050781 205.871094 19.140625 206.667969 19.234375 207.460938 L 19.277344 207.847656 C 19.320312 208.234375 19.367188 208.613281 19.414062 209 C 19.523438 209.867188 19.640625 210.730469 19.765625 211.589844 L 19.832031 212.066406 C 19.867188 212.34375 19.90625 212.621094 19.945312 212.902344 C 20.144531 214.246094 20.347656 215.496094 20.558594 216.722656 C 20.585938 216.875 20.617188 217.027344 20.644531 217.175781 L 20.699219 217.484375 C 20.910156 218.660156 21.089844 219.636719 21.269531 220.5625 C 21.335938 220.894531 21.40625 221.230469 21.472656 221.5625 L 21.574219 222.039062 C 21.734375 222.820312 21.898438 223.597656 22.070312 224.375 C 22.171875 224.855469 22.28125 225.332031 22.394531 225.8125 L 22.445312 226.011719 C 22.609375 226.734375 22.777344 227.453125 22.949219 228.167969 C 23.089844 228.734375 23.230469 229.296875 23.378906 229.859375 C 23.554688 230.558594 23.738281 231.253906 23.929688 231.949219 C 24.078125 232.515625 24.234375 233.082031 24.390625 233.644531 C 24.585938 234.339844 24.789062 235.03125 24.992188 235.726562 L 25.101562 236.09375 C 25.226562 236.527344 25.355469 236.957031 25.484375 237.390625 C 25.699219 238.074219 25.917969 238.765625 26.136719 239.449219 L 26.335938 240.066406 C 26.445312 240.410156 26.550781 240.75 26.664062 241.089844 C 27.066406 242.292969 27.472656 243.476562 27.875 244.605469 C 27.984375 244.917969 28.097656 245.230469 28.21875 245.546875 L 28.519531 246.355469 C 28.746094 246.980469 28.976562 247.601562 29.214844 248.226562 C 29.378906 248.660156 29.550781 249.09375 29.726562 249.527344 L 29.9375 250.0625 C 30.167969 250.648438 30.398438 251.230469 30.636719 251.8125 C 30.867188 252.375 31.105469 252.9375 31.355469 253.53125 L 31.378906 253.585938 C 31.632812 254.179688 31.882812 254.773438 32.136719 255.363281 C 32.402344 255.960938 32.667969 256.558594 32.9375 257.15625 C 33.195312 257.730469 33.457031 258.304688 33.726562 258.875 C 34.003906 259.476562 34.285156 260.082031 34.570312 260.679688 C 34.8125 261.183594 35.0625 261.6875 35.3125 262.195312 L 35.53125 262.644531 C 35.78125 263.148438 36.027344 263.652344 36.285156 264.152344 C 36.496094 264.578125 36.71875 264.996094 36.933594 265.414062 L 37.382812 266.273438 C 37.609375 266.710938 37.839844 267.152344 38.074219 267.589844 C 38.207031 267.835938 38.34375 268.082031 38.480469 268.328125 L 38.753906 268.820312 C 39.433594 270.066406 40.152344 271.335938 40.886719 272.59375 L 41.136719 273.03125 C 41.339844 273.378906 41.542969 273.730469 41.75 274.078125 C 42.058594 274.59375 42.375 275.109375 42.6875 275.621094 L 42.992188 276.121094 C 43.253906 276.542969 43.507812 276.957031 43.765625 277.375 C 44.148438 277.980469 44.535156 278.582031 44.921875 279.183594 C 45.234375 279.667969 45.550781 280.148438 45.863281 280.628906 C 46.257812 281.226562 46.660156 281.824219 47.0625 282.421875 C 47.382812 282.890625 47.707031 283.359375 48.027344 283.824219 C 48.441406 284.421875 48.859375 285.019531 49.28125 285.613281 C 49.542969 285.980469 49.808594 286.347656 50.078125 286.714844 L 50.457031 287.238281 C 50.828125 287.75 51.195312 288.257812 51.574219 288.757812 C 51.785156 289.042969 51.996094 289.316406 52.207031 289.59375 L 52.507812 289.988281 C 53.816406 291.707031 55.007812 293.21875 56.152344 294.617188 L 56.191406 294.660156 C 58.960938 298.050781 61.90625 301.382812 64.941406 304.558594 C 65.871094 305.527344 66.800781 306.484375 67.710938 307.394531 C 99.726562 339.410156 142.285156 357.039062 187.558594 357.039062 C 232.828125 357.039062 275.390625 339.410156 307.398438 307.394531 C 308.316406 306.476562 309.246094 305.527344 310.167969 304.558594 C 314.546875 299.976562 318.734375 295.070312 322.613281 289.980469 L 322.953125 289.53125 C 323.148438 289.277344 323.34375 289.019531 323.535156 288.761719 C 323.9375 288.226562 324.332031 287.6875 324.738281 287.125 L 325.050781 286.695312 C 325.3125 286.335938 325.574219 285.976562 325.832031 285.613281 C 326.253906 285.023438 326.671875 284.421875 327.085938 283.824219 C 327.410156 283.359375 327.730469 282.894531 328.046875 282.421875 C 328.453125 281.824219 328.855469 281.226562 329.25 280.625 C 329.566406 280.148438 329.878906 279.667969 330.1875 279.183594 C 330.578125 278.582031 330.964844 277.980469 331.339844 277.375 C 331.589844 276.980469 331.835938 276.582031 332.082031 276.183594 L 332.40625 275.65625 C 332.722656 275.128906 333.046875 274.605469 333.363281 274.078125 C 333.570312 273.726562 333.777344 273.371094 333.980469 273.019531 L 334.222656 272.601562 C 335 271.269531 335.753906 269.929688 336.464844 268.628906 L 336.691406 268.21875 C 336.808594 268.011719 336.925781 267.800781 337.039062 267.589844 C 337.277344 267.144531 337.511719 266.695312 337.742188 266.25 L 338.214844 265.339844 C 338.421875 264.945312 338.628906 264.550781 338.832031 264.152344 C 339.082031 263.660156 339.328125 263.160156 339.574219 262.660156 L 339.761719 262.273438 C 340.023438 261.746094 340.285156 261.210938 340.542969 260.675781 C 340.828125 260.078125 341.109375 259.476562 341.386719 258.875 C 341.652344 258.304688 341.914062 257.730469 342.175781 257.15625 C 342.445312 256.5625 342.710938 255.960938 342.972656 255.359375 C 343.230469 254.769531 343.480469 254.179688 343.734375 253.589844 C 343.984375 253 344.234375 252.402344 344.476562 251.808594 C 344.710938 251.246094 344.929688 250.679688 345.152344 250.117188 L 345.414062 249.464844 C 345.578125 249.050781 345.738281 248.640625 345.898438 248.226562 C 346.136719 247.597656 346.371094 246.972656 346.601562 246.34375 L 346.890625 245.558594 C 347.011719 245.238281 347.125 244.925781 347.242188 244.605469 C 347.644531 243.46875 348.054688 242.289062 348.449219 241.089844 C 348.5625 240.75 348.667969 240.414062 348.773438 240.074219 L 348.980469 239.425781 C 349.199219 238.746094 349.417969 238.066406 349.625 237.386719 C 349.753906 236.960938 349.882812 236.539062 350.011719 236.09375 L 350.121094 235.726562 C 350.324219 235.03125 350.523438 234.34375 350.722656 233.648438 C 350.878906 233.082031 351.035156 232.515625 351.1875 231.949219 C 351.375 231.253906 351.558594 230.558594 351.738281 229.859375 C 351.878906 229.296875 352.023438 228.734375 352.160156 228.167969 C 352.335938 227.453125 352.503906 226.734375 352.671875 226.015625 L 352.730469 225.753906 C 352.835938 225.296875 352.945312 224.835938 353.046875 224.375 C 353.21875 223.597656 353.378906 222.816406 353.539062 222.039062 L 353.636719 221.550781 C 353.707031 221.222656 353.777344 220.890625 353.839844 220.5625 C 354.023438 219.644531 354.207031 218.660156 354.414062 217.472656 L 354.472656 217.164062 C 354.5 217.019531 354.527344 216.871094 354.550781 216.722656 C 354.761719 215.503906 354.964844 214.253906 355.164062 212.902344 C 355.207031 212.621094 355.246094 212.34375 355.285156 212.066406 L 355.347656 211.59375 C 355.46875 210.730469 355.59375 209.867188 355.699219 209 C 355.75 208.613281 355.792969 208.226562 355.835938 207.839844 L 355.878906 207.460938 C 355.972656 206.664062 356.0625 205.871094 356.144531 205.066406 C 356.199219 204.53125 356.25 204 356.300781 203.464844 C 356.371094 202.671875 356.4375 201.886719 356.503906 201.09375 C 356.542969 200.558594 356.582031 200.023438 356.621094 199.488281 C 356.675781 198.679688 356.726562 197.867188 356.769531 197.054688 L 356.789062 196.695312 C 356.808594 196.304688 356.835938 195.910156 356.851562 195.515625 C 356.890625 194.625 356.921875 193.738281 356.949219 192.851562 L 356.964844 192.371094 C 356.976562 192.09375 356.984375 191.820312 356.992188 191.539062 C 357.023438 190.113281 357.039062 188.8125 357.039062 187.554688 C 357.039062 186.296875 357.023438 184.996094 356.992188 183.570312 C 356.984375 183.292969 356.976562 183.015625 356.964844 182.738281 L 356.949219 182.261719 C 356.921875 181.371094 356.890625 180.480469 356.851562 179.59375 C 356.835938 179.214844 356.8125 178.835938 356.792969 178.453125 L 356.769531 178.054688 C 356.726562 177.242188 356.675781 176.433594 356.621094 175.621094 C 356.582031 175.085938 356.542969 174.550781 356.503906 174.019531 C 356.4375 173.226562 356.371094 172.433594 356.300781 171.648438 C 356.25 171.113281 356.199219 170.574219 356.144531 170.039062 C 356.0625 169.242188 355.972656 168.445312 355.878906 167.648438 L 355.832031 167.257812 C 355.792969 166.875 355.746094 166.488281 355.695312 166.109375 C 355.59375 165.242188 355.46875 164.382812 355.351562 163.515625 L 355.285156 163.042969 C 355.246094 162.765625 355.207031 162.488281 355.164062 162.210938 C 354.96875 160.875 354.765625 159.625 354.550781 158.382812 C 354.527344 158.238281 354.5 158.085938 354.472656 157.9375 L 354.414062 157.632812 C 354.207031 156.453125 354.023438 155.472656 353.839844 154.550781 C 353.777344 154.214844 353.707031 153.882812 353.636719 153.546875 L 353.539062 153.070312 C 353.378906 152.292969 353.21875 151.511719 353.046875 150.738281 C 352.945312 150.273438 352.835938 149.8125 352.722656 149.328125 L 352.671875 149.09375 C 352.503906 148.375 352.335938 147.660156 352.160156 146.941406 C 352.023438 146.378906 351.878906 145.8125 351.738281 145.246094 C 351.558594 144.550781 351.375 143.855469 351.1875 143.164062 C 351.035156 142.597656 350.878906 142.027344 350.722656 141.460938 C 350.523438 140.769531 350.324219 140.078125 350.121094 139.390625 L 350.019531 139.035156 C 349.886719 138.597656 349.757812 138.160156 349.625 137.71875 C 349.417969 137.050781 349.207031 136.382812 348.992188 135.710938 L 348.78125 135.054688 C 348.667969 134.707031 348.5625 134.359375 348.449219 134.019531 C 348.050781 132.816406 347.644531 131.632812 347.242188 130.507812 C 347.125 130.179688 347.007812 129.863281 346.886719 129.539062 L 346.589844 128.738281 C 346.363281 128.117188 346.132812 127.503906 345.898438 126.886719 C 345.730469 126.449219 345.558594 126.015625 345.386719 125.578125 L 345.179688 125.054688 C 344.949219 124.46875 344.714844 123.886719 344.476562 123.300781 C 344.234375 122.707031 343.980469 122.109375 343.734375 121.519531 C 343.480469 120.925781 343.230469 120.339844 342.972656 119.75 C 342.710938 119.152344 342.445312 118.550781 342.175781 117.949219 C 341.914062 117.375 341.652344 116.804688 341.390625 116.238281 C 341.109375 115.632812 340.828125 115.03125 340.542969 114.429688 C 340.285156 113.890625 340.019531 113.355469 339.726562 112.765625 L 339.582031 112.46875 C 339.335938 111.964844 339.082031 111.457031 338.828125 110.949219 C 338.628906 110.554688 338.421875 110.164062 338.203125 109.75 L 337.738281 108.855469 C 337.507812 108.40625 337.277344 107.960938 337.039062 107.519531 C 336.9375 107.328125 336.828125 107.136719 336.722656 106.949219 L 336.511719 106.566406 C 335.789062 105.242188 335.019531 103.871094 334.21875 102.503906 L 333.964844 102.0625 C 333.765625 101.71875 333.566406 101.375 333.363281 101.03125 C 333.058594 100.515625 332.742188 100.003906 332.429688 99.496094 L 332.089844 98.941406 C 331.84375 98.539062 331.597656 98.136719 331.34375 97.738281 C 330.964844 97.128906 330.578125 96.523438 330.1875 95.921875 C 329.878906 95.445312 329.566406 94.964844 329.25 94.488281 C 328.855469 93.886719 328.453125 93.285156 328.050781 92.6875 C 327.730469 92.21875 327.410156 91.753906 327.085938 91.289062 C 326.671875 90.6875 326.253906 90.089844 325.832031 89.496094 C 325.589844 89.15625 325.34375 88.816406 325.09375 88.476562 L 324.679688 87.90625 C 324.300781 87.382812 323.921875 86.863281 323.539062 86.351562 C 323.332031 86.070312 323.117188 85.789062 322.902344 85.511719 L 322.613281 85.132812 C 319.515625 81.070312 316.238281 77.136719 312.863281 73.441406 L 312.824219 73.398438 C 311.882812 72.367188 311.015625 71.433594 310.167969 70.550781 C 309.242188 69.578125 308.308594 68.621094 307.398438 67.710938 C 275.386719 35.699219 232.828125 18.070312 187.558594 18.070312 C 142.285156 18.070312 99.726562 35.699219 67.710938 67.710938 C 66.804688 68.621094 65.875 69.574219 64.945312 70.546875 C 64.097656 71.433594 63.21875 72.375 62.269531 73.417969 C 60.167969 75.722656 58.117188 78.085938 56.183594 80.453125 L 56.078125 80.585938 C 54.945312 81.96875 53.78125 83.453125 52.511719 85.117188 L 52.203125 85.519531 C 51.992188 85.796875 51.78125 86.074219 51.574219 86.351562 C 51.195312 86.855469 50.824219 87.363281 50.457031 87.871094 L 50.042969 88.445312 C 49.785156 88.792969 49.53125 89.144531 49.277344 89.5 C 48.859375 90.089844 48.445312 90.683594 48.03125 91.28125 C 47.707031 91.75 47.382812 92.21875 47.0625 92.691406 C 46.660156 93.285156 46.257812 93.882812 45.863281 94.480469 C 45.550781 94.964844 45.234375 95.445312 44.921875 95.925781 C 44.535156 96.523438 44.148438 97.128906 43.769531 97.734375 C 43.507812 98.152344 43.25 98.574219 42.988281 98.996094 L 42.695312 99.476562 C 42.378906 99.992188 42.0625 100.511719 41.75 101.027344 C 41.539062 101.390625 41.328125 101.75 41.121094 102.109375 L 40.882812 102.523438 C 40.144531 103.785156 39.433594 105.050781 38.75 106.292969 L 38.492188 106.757812 C 38.355469 107.011719 38.214844 107.265625 38.074219 107.519531 C 37.839844 107.957031 37.609375 108.398438 37.382812 108.835938 L 36.914062 109.734375 C 36.699219 110.140625 36.492188 110.542969 36.285156 110.953125 C 36.027344 111.457031 35.78125 111.960938 35.53125 112.464844 L 35.347656 112.84375 C 35.085938 113.375 34.824219 113.898438 34.570312 114.429688 C 34.285156 115.03125 34.003906 115.632812 33.726562 116.234375 C 33.457031 116.804688 33.195312 117.375 32.9375 117.949219 C 32.667969 118.550781 32.402344 119.152344 32.136719 119.753906 C 31.882812 120.339844 31.632812 120.929688 31.375 121.535156 C 31.125 122.125 30.878906 122.707031 30.636719 123.300781 C 30.402344 123.871094 30.175781 124.441406 29.949219 125.015625 L 29.726562 125.578125 C 29.554688 126.015625 29.378906 126.449219 29.214844 126.886719 C 28.972656 127.511719 28.742188 128.144531 28.511719 128.777344 L 28.222656 129.546875 C 28.105469 129.867188 27.984375 130.183594 27.875 130.503906 C 27.46875 131.636719 27.0625 132.820312 26.664062 134.023438 C 26.558594 134.34375 26.453125 134.667969 26.351562 134.996094 L 26.132812 135.675781 C 25.914062 136.359375 25.695312 137.039062 25.484375 137.722656 C 25.351562 138.15625 25.226562 138.589844 25.097656 139.023438 L 24.992188 139.386719 C 24.789062 140.074219 24.585938 140.769531 24.390625 141.460938 C 24.234375 142.027344 24.078125 142.597656 23.925781 143.164062 C 23.738281 143.855469 23.554688 144.550781 23.378906 145.246094 C 23.230469 145.8125 23.089844 146.375 22.949219 146.941406 C 22.777344 147.65625 22.609375 148.375 22.445312 149.09375 L 22.386719 149.324219 C 22.277344 149.796875 22.171875 150.265625 22.070312 150.738281 C 21.898438 151.511719 21.734375 152.289062 21.574219 153.066406 L 21.472656 153.546875 C 21.40625 153.882812 21.335938 154.21875 21.269531 154.550781 C 21.09375 155.460938 20.910156 156.4375 20.699219 157.628906 L 20.640625 157.9375 C 20.613281 158.085938 20.585938 158.238281 20.558594 158.386719 C 20.347656 159.617188 20.144531 160.867188 19.945312 162.210938 C 19.90625 162.488281 19.867188 162.769531 19.828125 163.042969 L 19.765625 163.515625 C 19.640625 164.378906 19.523438 165.242188 19.414062 166.109375 C 19.367188 166.484375 19.324219 166.867188 19.277344 167.253906 L 19.234375 167.644531 C 19.140625 168.445312 19.050781 169.242188 18.96875 170.039062 C 18.914062 170.574219 18.863281 171.113281 18.816406 171.648438 C 18.742188 172.433594 18.671875 173.226562 18.613281 174.019531 C 18.570312 174.550781 18.527344 175.085938 18.492188 175.621094 C 18.433594 176.433594 18.390625 177.242188 18.34375 178.054688 L 18.320312 178.410156 C 18.300781 178.804688 18.28125 179.199219 18.261719 179.59375 C 18.222656 180.484375 18.1875 181.375 18.164062 182.261719 L 18.148438 182.730469 C 18.136719 183.007812 18.128906 183.289062 18.121094 183.570312 C 18.085938 184.988281 18.074219 186.292969 18.074219 187.554688 C 18.074219 188.816406 18.085938 190.121094 18.121094 191.539062 " fill-opacity="1" fill-rule="nonzero"/></g></svg>