<svg xmlns="http://www.w3.org/2000/svg" xmlns:xlink="http://www.w3.org/1999/xlink" width="350" zoomAndPan="magnify" viewBox="0 0 262.5 112.499997" height="150" preserveAspectRatio="xMidYMid meet" version="1.0"><defs><g/></defs><g fill="#f615ba" fill-opacity="1"><g transform="translate(8.977464, 93.220313)"><g><path d="M 1.828125 -11.394531 C 1.828125 -11.019531 1.828125 -10.582031 1.828125 -10.089844 C 1.828125 -9.539062 1.828125 -9.074219 1.828125 -8.757812 L 13.308594 -2.347656 L 14.816406 -4.902344 L 6.089844 -10.121094 L 14.816406 -15.308594 L 13.308594 -17.832031 Z M 1.828125 -11.394531 "/></g></g></g><g fill="#f615ba" fill-opacity="1"><g transform="translate(37.557358, 93.220313)"><g><path d="M 13.078125 0.289062 C 16.324219 0.289062 18.703125 -0.550781 20.238281 -2.203125 L 19.28125 -3.335938 C 17.570312 -1.855469 15.511719 -1.160156 13.078125 -1.160156 C 7.191406 -1.160156 3.101562 -6.175781 3.101562 -11.335938 C 3.101562 -17.078125 8.0625 -21.488281 13.078125 -21.488281 C 15.484375 -21.488281 17.660156 -20.789062 19.078125 -19.515625 L 20.269531 -20.328125 C 18.179688 -21.949219 15.628906 -22.9375 13.078125 -22.9375 C 6.351562 -22.9375 1.710938 -17.136719 1.710938 -11.335938 C 1.710938 -4.640625 7.335938 0.289062 13.078125 0.289062 Z M 13.078125 0.289062 "/></g></g></g><g fill="#f615ba" fill-opacity="1"><g transform="translate(72.437374, 93.220313)"><g><path d="M 13.367188 0.289062 C 20.414062 0.289062 24.996094 -5.21875 24.996094 -11.335938 C 24.996094 -15.601562 22.820312 -19.371094 19.253906 -21.429688 C 17.484375 -22.441406 15.511719 -22.9375 13.367188 -22.9375 C 6.320312 -22.9375 1.710938 -17.367188 1.710938 -11.335938 C 1.710938 -4.292969 7.335938 0.289062 13.367188 0.289062 Z M 13.367188 -1.160156 C 7.132812 -1.160156 3.101562 -5.914062 3.101562 -11.335938 C 3.101562 -17.542969 7.945312 -21.488281 13.367188 -21.488281 C 19.542969 -21.488281 23.601562 -16.761719 23.601562 -11.335938 C 23.601562 -5.132812 18.730469 -1.160156 13.367188 -1.160156 Z M 13.367188 -1.160156 "/></g></g></g><g fill="#f615ba" fill-opacity="1"><g transform="translate(111.868658, 93.220313)"><g><path d="M 2.898438 0 L 8.785156 0 C 15.917969 0 20.152344 -5.21875 20.152344 -11.335938 C 20.152344 -18.472656 14.902344 -22.644531 8.785156 -22.644531 L 2.898438 -22.644531 Z M 4.261719 -1.246094 L 4.261719 -21.398438 L 8.785156 -21.398438 C 15.078125 -21.398438 18.761719 -16.761719 18.761719 -11.335938 C 18.761719 -5.101562 14.179688 -1.246094 8.785156 -1.246094 Z M 4.261719 -1.246094 "/></g></g></g><g fill="#f615ba" fill-opacity="1"><g transform="translate(146.458784, 93.220313)"><g><path d="M 2.898438 0 C 2.898438 0 3.132812 0 3.59375 0 C 4.03125 0 4.261719 0 4.261719 0 L 4.261719 -22.644531 C 4.261719 -22.644531 4.03125 -22.644531 3.59375 -22.644531 C 3.132812 -22.644531 2.898438 -22.644531 2.898438 -22.644531 Z M 2.898438 0 "/></g></g></g><g fill="#f615ba" fill-opacity="1"><g transform="translate(166.351505, 93.220313)"><g><path d="M 2.898438 0 L 4.261719 0 L 4.261719 -20.355469 L 19.660156 0 L 20.820312 0 L 20.820312 -22.644531 L 19.457031 -22.644531 L 19.457031 -2.289062 L 4.117188 -22.644531 L 2.898438 -22.644531 Z M 2.898438 0 "/></g></g></g><g fill="#f615ba" fill-opacity="1"><g transform="translate(202.796931, 93.220313)"><g><path d="M 13.078125 0.289062 C 16.265625 0.289062 18.671875 -0.523438 20.355469 -2.03125 L 20.355469 -10.816406 L 13.164062 -10.816406 L 13.164062 -9.570312 L 18.964844 -9.570312 L 18.964844 -3.042969 C 17.28125 -1.796875 15.339844 -1.160156 13.078125 -1.160156 C 5.828125 -1.160156 3.101562 -6.175781 3.101562 -11.335938 C 3.101562 -17.078125 7.625 -21.488281 13.078125 -21.488281 C 15.484375 -21.488281 17.660156 -20.789062 19.078125 -19.515625 L 20.269531 -20.328125 C 18.269531 -22.039062 15.714844 -22.9375 13.078125 -22.9375 C 5.914062 -22.9375 1.710938 -17.136719 1.710938 -11.335938 C 1.710938 -4.640625 5.972656 0.289062 13.078125 0.289062 Z M 13.078125 0.289062 "/></g></g></g><g fill="#f615ba" fill-opacity="1"><g transform="translate(237.675056, 93.220313)"><g><path d="M 14.816406 -11.394531 L 3.335938 -17.832031 L 1.828125 -15.308594 L 10.554688 -10.121094 L 1.828125 -4.902344 L 3.335938 -2.347656 L 14.816406 -8.757812 C 14.816406 -9.074219 14.816406 -9.539062 14.816406 -10.089844 C 14.816406 -10.582031 14.816406 -11.019531 14.816406 -11.394531 Z M 14.816406 -11.394531 "/></g></g></g><g fill="#f615ba" fill-opacity="1"><g transform="translate(8.110001, 51.445816)"><g><path d="M 4.527344 0 C 4.527344 0 5.296875 0 6.882812 0 C 8.464844 0 9.234375 0 9.234375 0 L 9.234375 -35.359375 C 9.234375 -35.359375 8.464844 -35.359375 6.882812 -35.359375 C 5.296875 -35.359375 4.527344 -35.359375 4.527344 -35.359375 Z M 4.527344 0 "/></g></g></g><g fill="#f615ba" fill-opacity="1"><g transform="translate(34.459921, 51.445816)"><g><path d="M 39.933594 -35.359375 C 39.933594 -35.359375 38.4375 -35.359375 35.496094 -35.359375 L 22.410156 -8.511719 L 8.964844 -35.359375 C 6.023438 -35.359375 4.527344 -35.359375 4.527344 -35.359375 L 4.527344 0 C 4.527344 0 5.296875 0 6.882812 0 C 8.464844 0 9.234375 0 9.234375 0 L 9.234375 -24.449219 L 20.058594 -1.359375 L 24.265625 -1.359375 L 35.222656 -24.855469 L 35.222656 0 C 35.222656 0 35.992188 0 37.578125 0 C 39.164062 0 39.933594 0 39.933594 0 Z M 39.933594 -35.359375 "/></g></g></g><g fill="#f615ba" fill-opacity="1"><g transform="translate(91.504232, 51.445816)"><g><path d="M 4.527344 0 L 9.234375 0 L 9.234375 -12.269531 L 15.9375 -12.269531 C 23.179688 -12.269531 27.527344 -17.296875 27.527344 -23.632812 C 27.527344 -31.011719 22.320312 -35.359375 15.9375 -35.359375 L 4.527344 -35.359375 Z M 15.9375 -16.617188 L 9.234375 -16.617188 L 9.234375 -31.011719 L 15.9375 -31.011719 C 20.058594 -31.011719 23 -27.933594 23 -23.632812 C 23 -19.511719 20.058594 -16.617188 15.9375 -16.617188 Z M 15.9375 -16.617188 "/></g></g></g><g fill="#f615ba" fill-opacity="1"><g transform="translate(132.295908, 51.445816)"><g><path d="M -0.273438 0 L 5.296875 0 L 7.878906 -7.789062 L 24.132812 -7.789062 L 26.578125 0 L 32.101562 0 L 18.199219 -35.359375 L 13.761719 -35.359375 Z M 9.460938 -11.679688 L 16.074219 -27.800781 L 22.546875 -11.679688 Z M 9.460938 -11.679688 "/></g></g></g><g fill="#f615ba" fill-opacity="1"><g transform="translate(176.70934, 51.445816)"><g><path d="M 20.375 0.453125 C 24.492188 0.453125 28.207031 -0.859375 31.464844 -3.484375 L 28.703125 -6.835938 C 26.035156 -4.84375 23.269531 -3.847656 20.375 -3.847656 C 12.585938 -3.847656 7.425781 -10.777344 7.425781 -17.703125 C 7.425781 -25.714844 13.539062 -31.558594 20.375 -31.558594 C 24.132812 -31.558594 26.078125 -30.695312 28.570312 -28.570312 L 31.421875 -31.917969 C 27.980469 -34.679688 24.945312 -35.8125 20.375 -35.8125 C 9.6875 -35.8125 2.898438 -26.984375 2.898438 -17.703125 C 2.898438 -6.882812 11.136719 0.453125 20.375 0.453125 Z M 20.375 0.453125 "/></g></g></g><g fill="#f615ba" fill-opacity="1"><g transform="translate(224.472902, 51.445816)"><g><path d="M 29.246094 -35.359375 L 0.679688 -35.359375 L 0.679688 -31.011719 L 12.632812 -31.011719 L 12.632812 0 L 17.339844 0 L 17.339844 -31.011719 L 29.246094 -31.011719 Z M 29.246094 -35.359375 "/></g></g></g></svg>